<svg xmlns="http://www.w3.org/2000/svg" viewBox="0 0 104.56 105.74"><defs><style>.cls-1{fill:#fff;}.cls-2{fill:none;}</style></defs><title>Asset 2</title><g id="Layer_2" data-name="Layer 2"><g id="Layer_1-2" data-name="Layer 1"><path class="cls-1" d="M5.46,53c.54-2.88.91-5.81,1.67-8.63A47.75,47.75,0,0,1,28,15.77c2.51-1.63,4.94-3.4,7.39-5.14,1.68-1.2,2.19-1.11,3.27.69A9.5,9.5,0,0,1,37.21,23a46.72,46.72,0,0,1-6.54,4.88,40.71,40.71,0,1,0,43.47.26,53.75,53.75,0,0,1-6.66-4.72A9.47,9.47,0,0,1,66.66,9.5h1c2.55,1.84,5,3.85,7.68,5.49A48,48,0,0,1,97.43,44.51c.8,3,1.13,6.09,1.67,9.14v6c-.2,1.36-.4,2.73-.61,4.09A46.75,46.75,0,0,1,6.73,67.34c-.55-2.3-.85-4.67-1.27-7Z"/><path class="cls-1" d="M52.26,102.13a30.42,30.42,0,0,0,27.6-18.75,29.54,29.54,0,0,0-6.71-32.47c-1.76-1.7-3.82-3.07-5.67-4.67A30.68,30.68,0,0,1,64,42.85a9.11,9.11,0,0,1-.61-10.72c1.22-1.86,1.9-1.92,3.53-.51,2.11,1.81,4.24,3.61,6.44,5.31,19.42,15,20.28,45.4-2,59.91-20.87,13.61-50,1.14-54.22-23.4C14.53,58.11,19.82,45.69,32.11,36.2a66.8,66.8,0,0,0,5.19-4.47c1.15-1.1,2-.84,2.89.24,2.25,2.63,2.58,7.73.25,10.58a37.56,37.56,0,0,1-6,5.73C24.69,55.85,20.74,65.83,23,77.75s9.9,19.77,21.69,23.16A60.9,60.9,0,0,0,52.26,102.13Z"/><path class="cls-1" d="M77.88,75.54a25.82,25.82,0,0,1-26.69,25.93c-13.67-.2-24.85-12.38-24.64-26.84a25.67,25.67,0,1,1,51.33.91Zm-5.09,4.81A20.6,20.6,0,1,0,52.24,101,20.65,20.65,0,0,0,72.79,80.35Z"/><path class="cls-1" d="M52.22,38.32a5.89,5.89,0,0,1-6-6.06,6.07,6.07,0,0,1,6.17-5.92,6,6,0,0,1-.2,12Z"/><path class="cls-1" d="M56.44,17.61a4.23,4.23,0,0,1-4.19,4.26,4.39,4.39,0,0,1-4-4.46,3.84,3.84,0,0,1,4.07-3.89A4.09,4.09,0,0,1,56.44,17.61Z"/><path class="cls-1" d="M55.38,5.26a3.14,3.14,0,0,1-3.11,3.16,3.24,3.24,0,0,1-3-3.31,2.83,2.83,0,0,1,3-2.88A3,3,0,0,1,55.38,5.26Z"/><path class="cls-1" d="M36.16,84.26a16.1,16.1,0,1,1,32.19.38c-.09,9-7.4,15.91-16.71,15.82C43.15,100.38,36.09,93,36.16,84.26Zm16.07-7.52A11.63,11.63,0,1,0,63.91,88.43,11.72,11.72,0,0,0,52.23,76.74Z"/><rect class="cls-2" width="104.56" height="105.74"/></g></g></svg>