<svg width="74" height="99" viewBox="0 0 74 99" fill="none" xmlns="http://www.w3.org/2000/svg">
<path d="M0 13C0 5.8203 5.8203 0 13 0H37H61C68.1797 0 74 5.8203 74 13V86C74 93.1797 68.1797 99 61 99H13C5.8203 99 0 93.1797 0 86V13Z" fill="url(#paint0_linear)" fill-opacity="0.45"/>
<path d="M14.6632 41.064C14.9266 39.6477 15.1071 38.2068 15.4778 36.82C16.958 30.9898 20.6019 25.9551 25.6573 22.7553C26.8816 21.9537 28.0668 21.0833 29.2618 20.2276C30.0812 19.6375 30.33 19.6817 30.8568 20.5669C31.3963 21.4651 31.62 22.5205 31.4917 23.5626C31.3634 24.6047 30.8905 25.5728 30.1495 26.3108C29.1577 27.203 28.0903 28.006 26.9596 28.7106C23.3069 31.0054 20.4925 34.4346 18.9403 38.4818C17.3881 42.529 17.1822 46.9751 18.3535 51.1505C19.5247 55.326 22.0098 59.0047 25.4345 61.6328C28.8592 64.2608 33.0381 65.6958 37.3418 65.7218C41.6456 65.7477 45.8412 64.3632 49.2968 61.7766C52.7524 59.1901 55.281 55.5416 56.5017 51.3806C57.7225 47.2196 57.5693 42.7713 56.0652 38.7057C54.5612 34.64 51.7877 31.1772 48.1624 28.8385C47.0228 28.1489 45.9369 27.373 44.914 26.5173C44.4187 26.1098 44.0127 25.603 43.7217 25.0291C43.4307 24.4552 43.261 23.8266 43.2234 23.1831C43.1858 22.5397 43.2811 21.8954 43.5033 21.291C43.7254 20.6866 44.0696 20.1352 44.514 19.6719H45.0018C46.2456 20.5767 47.4406 21.5652 48.7478 22.3717C51.4041 23.956 53.7235 26.0542 55.5727 28.5456C57.4218 31.037 58.7641 33.8725 59.5223 36.8888C59.9125 38.3641 60.0735 39.8837 60.3369 41.3836V44.3343C60.2393 45.0031 60.1418 45.6768 60.0394 46.3456C59.2466 51.6325 56.651 56.4755 52.699 60.0411C48.7471 63.6068 43.686 65.6722 38.3868 65.8818C33.0875 66.0914 27.8815 64.4322 23.6647 61.1896C19.4478 57.9471 16.4838 53.324 15.2827 48.116C15.0144 46.9849 14.8681 45.8194 14.6632 44.6736V41.064Z" fill="white"/>
<path d="M37.4902 65.2247C40.3812 65.1774 43.1954 64.2794 45.5871 62.6413C47.9787 61.0032 49.8436 58.6962 50.9524 56.004C52.054 53.3177 52.3309 50.3601 51.7475 47.5134C51.164 44.6668 49.7469 42.0621 47.6795 40.0361C46.8211 39.2001 45.8163 38.5264 44.9139 37.7396C44.3053 37.23 43.7377 36.6725 43.2165 36.0725C42.6195 35.3388 42.269 34.4329 42.2156 33.4854C42.1621 32.538 42.4084 31.5979 42.919 30.8007C43.5141 29.886 43.8457 29.8565 44.6408 30.5499C45.6699 31.44 46.7089 32.3252 47.7819 33.1612C57.2542 40.5377 57.6737 55.4876 46.8064 62.6232C36.6269 69.3163 22.4185 63.1839 20.3602 51.1158C19.0871 43.5769 21.6674 37.4691 27.6619 32.8022C28.5425 32.1136 29.3874 31.3799 30.1934 30.6039C30.7543 30.063 31.1689 30.1909 31.603 30.722C32.7005 32.0153 32.8614 34.5234 31.7249 35.9249C30.8556 36.9703 29.8741 37.9153 28.7984 38.7428C24.0427 42.4655 22.1161 47.3734 23.2184 53.2353C24.3208 59.0972 28.0472 62.9576 33.7979 64.6248C35.015 64.9027 36.2482 65.1031 37.4902 65.2247V65.2247Z" fill="white"/>
<path d="M49.9867 52.1485C49.9948 53.8572 49.6609 55.5499 49.0049 57.1253C48.3488 58.7007 47.3841 60.1265 46.1686 61.3171C44.9531 62.5077 43.5117 63.4388 41.9309 64.0544C40.35 64.6701 38.6621 64.9578 36.9684 64.9002C30.3007 64.8018 24.8476 58.812 24.95 51.701C24.965 50.0341 25.3073 48.3866 25.9571 46.8538C26.6069 45.3209 27.5514 43.933 28.7361 42.7701C29.9207 41.6073 31.3221 40.6925 32.8593 40.0786C34.3965 39.4647 36.0391 39.1638 37.6922 39.1934C39.3453 39.2229 40.9763 39.5823 42.491 40.2508C44.0056 40.9192 45.3739 41.8835 46.517 43.088C47.66 44.2924 48.5551 45.7132 49.1507 47.2683C49.7462 48.8235 50.0303 50.4821 49.9867 52.1485ZM47.504 54.5139C47.4991 52.5103 46.9051 50.5531 45.7971 48.8899C44.689 47.2267 43.1166 45.9321 41.2788 45.1698C39.4409 44.4075 37.4202 44.2119 35.472 44.6075C33.5239 45.0032 31.7359 45.9724 30.3341 47.3926C28.9323 48.8128 27.9797 50.6202 27.5967 52.5863C27.2137 54.5524 27.4176 56.5888 28.1826 58.438C28.9475 60.2873 30.2392 61.8663 31.8942 62.9754C33.5492 64.0845 35.4933 64.6739 37.4805 64.669C40.1434 64.656 42.6928 63.5804 44.5712 61.6774C46.4495 59.7743 47.504 57.1987 47.504 54.5139V54.5139Z" fill="white"/>
<path d="M37.4707 33.8447C37.0819 33.8522 36.6956 33.78 36.3352 33.6325C35.9749 33.485 35.648 33.2653 35.3743 32.9867C35.1007 32.708 34.886 32.3763 34.7433 32.0115C34.6006 31.6467 34.5329 31.2565 34.5442 30.8646C34.5634 30.0772 34.8905 29.3293 35.4542 28.784C36.0179 28.2387 36.7725 27.9401 37.5536 27.9533C38.3298 27.9663 39.0691 28.2897 39.6087 28.8523C40.1484 29.4149 40.4444 30.1706 40.4314 30.9531C40.4185 31.7357 40.0977 32.481 39.5398 33.0251C38.9818 33.5693 38.2323 33.8676 37.4561 33.8546L37.4707 33.8447Z" fill="white"/>
<path d="M39.5291 23.6601C39.533 24.211 39.32 24.7409 38.9369 25.1337C38.5537 25.5264 38.0317 25.7499 37.4854 25.7551C36.9451 25.7066 36.4433 25.4532 36.0811 25.0461C35.719 24.639 35.5236 24.1085 35.5344 23.5618C35.5305 23.3019 35.58 23.0441 35.6795 22.8043C35.7791 22.5646 35.9267 22.3482 36.113 22.1686C36.2994 21.9891 36.5205 21.8502 36.7625 21.7608C37.0045 21.6713 37.2622 21.6332 37.5195 21.6488C37.7827 21.6468 38.0437 21.6974 38.2875 21.7976C38.5312 21.8978 38.7528 22.0457 38.9396 22.2327C39.1264 22.4196 39.2747 22.642 39.3759 22.887C39.477 23.132 39.5291 23.3948 39.5291 23.6601V23.6601Z" fill="white"/>
<path d="M39.012 17.5867C39.0146 17.9954 38.8564 18.3885 38.5721 18.6798C38.2877 18.9711 37.9005 19.1368 37.4951 19.1407C37.0906 19.1105 36.7131 18.9247 36.4408 18.6217C36.1684 18.3187 36.022 17.9218 36.0318 17.5129C36.0281 17.3209 36.0639 17.1301 36.1369 16.9527C36.2099 16.7752 36.3185 16.6149 36.456 16.4819C36.5934 16.3488 36.7567 16.2459 36.9356 16.1796C37.1144 16.1133 37.3049 16.0851 37.4951 16.0966C37.693 16.0893 37.8903 16.1225 38.075 16.1943C38.2598 16.2661 38.4282 16.375 38.57 16.5143C38.7118 16.6536 38.8241 16.8204 38.9001 17.0048C38.9761 17.1891 39.0142 17.3871 39.012 17.5867V17.5867Z" fill="white"/>
<path d="M29.6374 56.4367C29.6268 55.3824 29.8251 54.3366 30.2208 53.3606C30.6165 52.3846 31.2016 51.4981 31.9416 50.7532C32.6817 50.0083 33.5619 49.4199 34.5306 49.0225C35.4993 48.6252 36.5369 48.4269 37.5826 48.4394C38.6283 48.4518 39.661 48.6747 40.62 49.095C41.5791 49.5153 42.4453 50.1245 43.1678 50.8868C43.8902 51.6491 44.4543 52.5493 44.8271 53.5344C45.1998 54.5195 45.3736 55.5698 45.3383 56.6236C45.2944 61.0495 41.7289 64.4477 37.1879 64.4034C33.0468 64.3641 29.6032 60.7348 29.6374 56.4367ZM37.4756 52.7386C36.356 52.7434 35.2628 53.0823 34.3338 53.7124C33.4048 54.3425 32.6815 55.2356 32.2551 56.2794C31.8286 57.3232 31.7181 58.4709 31.9373 59.5779C32.1566 60.6849 32.6959 61.7017 33.4872 62.5003C34.2786 63.2988 35.2867 63.8434 36.3845 64.0654C37.4822 64.2875 38.6206 64.177 39.6563 63.7479C40.6919 63.3188 41.5784 62.5903 42.2041 61.6542C42.8299 60.7181 43.1669 59.6162 43.1727 58.4874C43.1688 56.9648 42.5675 55.5055 41.5001 54.4284C40.4327 53.3513 38.9858 52.7438 37.4756 52.7386V52.7386Z" fill="white"/>
<path d="M16.397 84.0957H13.0581L12.4233 86H10.3984L13.8389 76.7578H15.6035L19.063 86H17.0381L16.397 84.0957ZM13.5723 82.5532H15.8828L14.7212 79.0938L13.5723 82.5532ZM25.9946 82.6294C25.9946 83.7297 25.7598 84.5887 25.29 85.2065C24.8203 85.8201 24.1644 86.127 23.3223 86.127C22.5775 86.127 21.9829 85.8413 21.5386 85.27L21.4561 86H19.8057V76.25H21.6401V79.7476C22.0633 79.2524 22.6198 79.0049 23.3096 79.0049C24.1475 79.0049 24.8034 79.3138 25.2773 79.9316C25.7555 80.5452 25.9946 81.4106 25.9946 82.5278V82.6294ZM24.1602 82.4961C24.1602 81.8021 24.0501 81.2964 23.8301 80.979C23.61 80.6574 23.2821 80.4966 22.8462 80.4966C22.2622 80.4966 21.8602 80.7357 21.6401 81.2139V83.9243C21.8644 84.4067 22.2707 84.6479 22.8589 84.6479C23.4513 84.6479 23.8407 84.356 24.0269 83.772C24.1157 83.4927 24.1602 83.0674 24.1602 82.4961ZM26.8452 82.5024C26.8452 81.8211 26.9764 81.2139 27.2388 80.6807C27.5011 80.1475 27.8778 79.7349 28.3687 79.4429C28.8638 79.1509 29.4372 79.0049 30.0889 79.0049C31.0156 79.0049 31.771 79.2884 32.355 79.8555C32.9432 80.4225 33.2712 81.1927 33.3389 82.166L33.3516 82.6357C33.3516 83.6895 33.0575 84.5358 32.4692 85.1748C31.881 85.8096 31.0918 86.127 30.1016 86.127C29.1113 86.127 28.32 85.8096 27.7275 85.1748C27.1393 84.54 26.8452 83.6768 26.8452 82.585V82.5024ZM28.6797 82.6357C28.6797 83.2874 28.8024 83.7868 29.0479 84.1338C29.2933 84.4766 29.6445 84.6479 30.1016 84.6479C30.5459 84.6479 30.8929 84.4787 31.1426 84.1401C31.3923 83.7974 31.5171 83.2515 31.5171 82.5024C31.5171 81.8634 31.3923 81.3683 31.1426 81.0171C30.8929 80.6659 30.5417 80.4902 30.0889 80.4902C29.6403 80.4902 29.2933 80.6659 29.0479 81.0171C28.8024 81.3641 28.6797 81.9036 28.6797 82.6357ZM38.5947 85.3018C38.1419 85.8519 37.5156 86.127 36.7158 86.127C35.9795 86.127 35.4167 85.9154 35.0273 85.4922C34.6423 85.069 34.4455 84.4491 34.437 83.6323V79.1318H36.2715V83.5688C36.2715 84.284 36.5973 84.6416 37.249 84.6416C37.8711 84.6416 38.2985 84.4258 38.5312 83.9941V79.1318H40.3721V86H38.6455L38.5947 85.3018ZM43.9521 77.4434V79.1318H45.1265V80.4775H43.9521V83.9053C43.9521 84.1592 44.0008 84.3411 44.0981 84.4512C44.1955 84.5612 44.3817 84.6162 44.6567 84.6162C44.8599 84.6162 45.0397 84.6014 45.1963 84.5718V85.9619C44.8366 86.0719 44.4663 86.127 44.0854 86.127C42.799 86.127 42.1431 85.4774 42.1177 84.1782V80.4775H41.1147V79.1318H42.1177V77.4434H43.9521ZM53.499 85.3018C53.0462 85.8519 52.4199 86.127 51.6201 86.127C50.8838 86.127 50.321 85.9154 49.9316 85.4922C49.5465 85.069 49.3498 84.4491 49.3413 83.6323V79.1318H51.1758V83.5688C51.1758 84.284 51.5016 84.6416 52.1533 84.6416C52.7754 84.6416 53.2028 84.4258 53.4355 83.9941V79.1318H55.2764V86H53.5498L53.499 85.3018ZM60.3799 84.1021C60.3799 83.8778 60.2677 83.7021 60.0435 83.5752C59.8234 83.444 59.4679 83.3276 58.9771 83.2261C57.3436 82.8833 56.5269 82.1893 56.5269 81.144C56.5269 80.5347 56.7786 80.0269 57.2822 79.6206C57.79 79.2101 58.4523 79.0049 59.269 79.0049C60.1408 79.0049 60.8369 79.2101 61.3574 79.6206C61.8822 80.0311 62.1445 80.5643 62.1445 81.2202H60.3101C60.3101 80.9578 60.2254 80.742 60.0562 80.5728C59.8869 80.3993 59.6224 80.3125 59.2627 80.3125C58.9538 80.3125 58.7147 80.3823 58.5454 80.522C58.3761 80.6616 58.2915 80.8394 58.2915 81.0552C58.2915 81.2583 58.3867 81.4233 58.5771 81.5503C58.7718 81.673 59.0977 81.7809 59.5547 81.874C60.0117 81.9629 60.3968 82.0645 60.71 82.1787C61.679 82.5342 62.1636 83.1499 62.1636 84.0259C62.1636 84.6522 61.8949 85.16 61.3574 85.5493C60.82 85.9344 60.126 86.127 59.2754 86.127C58.6999 86.127 58.1878 86.0254 57.7393 85.8223C57.2949 85.6149 56.9458 85.3335 56.6919 84.978C56.438 84.6183 56.311 84.2311 56.311 83.8164H58.0503C58.0672 84.1423 58.1878 84.3919 58.4121 84.5654C58.6364 84.7389 58.9368 84.8257 59.3135 84.8257C59.6647 84.8257 59.9292 84.7601 60.1069 84.6289C60.2889 84.4935 60.3799 84.3179 60.3799 84.1021Z" fill="white"/>
<defs>
<linearGradient id="paint0_linear" x1="37" y1="0" x2="37" y2="99" gradientUnits="userSpaceOnUse">
<stop offset="0.59375" stop-color="#1F001A"/>
<stop offset="1" stop-opacity="0"/>
</linearGradient>
</defs>
</svg>
