<svg width="60" height="74" viewBox="0 0 60 74" fill="none" xmlns="http://www.w3.org/2000/svg">
<path d="M10.5166 65.5681H7.94821L7.45993 67.033H5.90231L8.5488 59.9236H9.90622L12.5674 67.033H11.0097L10.5166 65.5681ZM8.34372 64.3816H10.1211L9.22751 61.7205L8.34372 64.3816ZM12.9189 64.3523C12.9189 63.5287 13.1028 62.8728 13.4707 62.3845C13.8418 61.8962 14.348 61.6521 14.9892 61.6521C15.5036 61.6521 15.9284 61.8442 16.2636 62.2283V59.533H17.6797V67.033H16.4052L16.3369 66.4714C15.9853 66.9109 15.5328 67.1306 14.9795 67.1306C14.3577 67.1306 13.858 66.8865 13.4804 66.3982C13.1061 65.9067 12.9189 65.2247 12.9189 64.3523ZM14.33 64.4548C14.33 64.9496 14.4163 65.3289 14.5888 65.5925C14.7614 65.8562 15.012 65.988 15.3408 65.988C15.777 65.988 16.0846 65.8041 16.2636 65.4363V63.3513C16.0879 62.9835 15.7835 62.7996 15.3506 62.7996C14.6702 62.7996 14.33 63.3513 14.33 64.4548ZM18.5537 64.3523C18.5537 63.5287 18.7376 62.8728 19.1054 62.3845C19.4765 61.8962 19.9827 61.6521 20.624 61.6521C21.1383 61.6521 21.5631 61.8442 21.8984 62.2283V59.533H23.3144V67.033H22.04L21.9716 66.4714C21.6201 66.9109 21.1676 67.1306 20.6142 67.1306C19.9925 67.1306 19.4928 66.8865 19.1152 66.3982C18.7409 65.9067 18.5537 65.2247 18.5537 64.3523ZM19.9648 64.4548C19.9648 64.9496 20.0511 65.3289 20.2236 65.5925C20.3961 65.8562 20.6468 65.988 20.9756 65.988C21.4118 65.988 21.7194 65.8041 21.8984 65.4363V63.3513C21.7226 62.9835 21.4183 62.7996 20.9853 62.7996C20.305 62.7996 19.9648 63.3513 19.9648 64.4548ZM28.5879 60.4509V61.7498H29.4912V62.7849H28.5879V65.4216C28.5879 65.6169 28.6253 65.7569 28.7002 65.8416C28.775 65.9262 28.9183 65.9685 29.1299 65.9685C29.2861 65.9685 29.4244 65.9571 29.5449 65.9343V67.0037C29.2682 67.0883 28.9834 67.1306 28.6904 67.1306C27.7008 67.1306 27.1963 66.6309 27.1767 65.6316V62.7849H26.4052V61.7498H27.1767V60.4509H28.5879ZM33.2461 63.073C33.054 63.047 32.8847 63.0339 32.7383 63.0339C32.2044 63.0339 31.8545 63.2146 31.6884 63.5759V67.033H30.2773V61.7498H31.6103L31.6494 62.3796C31.9326 61.8946 32.3248 61.6521 32.8261 61.6521C32.9824 61.6521 33.1289 61.6733 33.2656 61.7156L33.2461 63.073ZM36.8447 67.033C36.7796 66.906 36.7324 66.7481 36.7031 66.5593C36.3613 66.9402 35.917 67.1306 35.3701 67.1306C34.8525 67.1306 34.4228 66.9809 34.081 66.6814C33.7425 66.3819 33.5732 66.0043 33.5732 65.5486C33.5732 64.9887 33.7799 64.559 34.1933 64.2595C34.61 63.96 35.2106 63.8087 35.9951 63.8054H36.6445V63.5027C36.6445 63.2585 36.581 63.0632 36.4541 62.9167C36.3304 62.7703 36.1334 62.697 35.8633 62.697C35.6256 62.697 35.4384 62.754 35.3017 62.8679C35.1683 62.9819 35.1015 63.1381 35.1015 63.3367H33.6904C33.6904 63.0307 33.7848 62.7475 33.9736 62.4871C34.1624 62.2266 34.4293 62.0232 34.7744 61.8767C35.1194 61.727 35.5068 61.6521 35.9365 61.6521C36.5875 61.6521 37.1035 61.8165 37.4843 62.1453C37.8685 62.4708 38.0605 62.9298 38.0605 63.5222V65.8123C38.0638 66.3136 38.1338 66.6928 38.2705 66.95V67.033H36.8447ZM35.6777 66.0515C35.886 66.0515 36.0781 66.0059 36.2539 65.9148C36.4297 65.8204 36.5599 65.6951 36.6445 65.5388V64.6306H36.1172C35.4108 64.6306 35.0348 64.8748 34.9892 65.363L34.9843 65.446C34.9843 65.6218 35.0462 65.7667 35.1699 65.8806C35.2936 65.9945 35.4629 66.0515 35.6777 66.0515ZM41.0439 65.3093L42.0254 61.7498H43.5L41.7177 67.033H40.3701L38.5879 61.7498H40.0625L41.0439 65.3093ZM46.4883 67.1306C45.7135 67.1306 45.082 66.893 44.5937 66.4177C44.1087 65.9425 43.8662 65.3093 43.8662 64.5183V64.3816C43.8662 63.851 43.9687 63.3774 44.1738 62.9607C44.3789 62.5408 44.6686 62.2185 45.0429 61.9939C45.4205 61.766 45.8502 61.6521 46.332 61.6521C47.0547 61.6521 47.6227 61.88 48.0361 62.3357C48.4528 62.7914 48.6611 63.4376 48.6611 64.2742V64.8503H45.2968C45.3424 65.1954 45.4791 65.4721 45.707 65.6804C45.9381 65.8888 46.2295 65.9929 46.581 65.9929C47.1246 65.9929 47.5494 65.796 47.8554 65.4021L48.5488 66.1785C48.3372 66.4779 48.0508 66.7123 47.6894 66.8816C47.3281 67.0476 46.9277 67.1306 46.4883 67.1306ZM46.3271 62.7947C46.0472 62.7947 45.8193 62.8891 45.6435 63.0779C45.471 63.2667 45.3603 63.5369 45.3115 63.8884H47.2744V63.7761C47.2679 63.4636 47.1832 63.2227 47.0205 63.0535C46.8577 62.8809 46.6266 62.7947 46.3271 62.7947ZM50.956 67.033H49.54V59.533H50.956V67.033Z" fill="white"/>
<path d="M45.7245 32.0333C41.3052 32.0333 37.7245 35.614 37.7245 40.0333C37.7245 44.4527 41.3052 48.0333 45.7245 48.0333C50.1439 48.0333 53.7245 44.4527 53.7245 40.0333C53.7245 35.614 50.1439 32.0333 45.7245 32.0333ZM50.3697 40.9366C50.3697 41.1495 50.1955 41.3236 49.9826 41.3236H47.0149V44.2914C47.0149 44.5043 46.8407 44.6785 46.6278 44.6785H44.8213C44.6084 44.6785 44.4342 44.5043 44.4342 44.2914V41.3236H41.4665C41.2536 41.3236 41.0794 41.1495 41.0794 40.9366V39.1301C41.0794 38.9172 41.2536 38.743 41.4665 38.743H44.4342V35.7753C44.4342 35.5624 44.6084 35.3882 44.8213 35.3882H46.6278C46.8407 35.3882 47.0149 35.5624 47.0149 35.7753V38.743H49.9826C50.1955 38.743 50.3697 38.9172 50.3697 39.1301V40.9366Z" fill="white"/>
<path d="M46.8862 28.3047L37.3918 30.8487L32.6913 48.2297C32.6285 48.4611 32.505 48.6726 32.3333 48.8427C32.1615 49.0128 31.9476 49.1354 31.7132 49.1982L26.272 50.6562C25.3889 50.8928 24.5289 50.2319 24.5475 49.3311L24.8604 34.2065L16.3155 36.4961L13.9889 42.1679C13.8263 42.5646 13.4837 42.8642 13.0658 42.9761L9.74374 43.8663C8.87896 44.098 8.02999 43.4683 8.01886 42.5861L8.26741 33.0432L3.28075 24.9032C2.84927 24.1336 3.26965 23.1638 4.13443 22.9321L7.4565 22.0419C7.87518 21.9297 8.32087 22.018 8.66006 22.2803L13.5109 26.0289L22.0557 23.7394L14.2227 10.7983C13.7562 10.0275 14.1703 9.02434 15.0533 8.78772L20.4946 7.32975C20.9714 7.20198 21.4792 7.33587 21.8251 7.67967L34.5872 20.3816L44.0815 17.8376C47.0181 17.0507 52.6842 18.0435 53.4588 20.9342C54.2333 23.825 49.8228 27.5178 46.8862 28.3047Z" fill="white"/>
</svg>
