<svg width="106" height="110" viewBox="0 0 106 110" fill="none" xmlns="http://www.w3.org/2000/svg">
<rect width="106" height="110" fill="url(#paint0_linear)" fill-opacity="0.8"/>
<ellipse cx="53.8492" cy="55" rx="14.223" ry="15" fill="#5F2A57"/>
<path d="M55.3614 53.6398L55.4112 49.6093C55.4173 49.1147 55.0213 48.7187 54.5265 48.7246L53.6307 48.7357C53.1361 48.7418 52.7302 49.1477 52.7239 49.6425L52.6741 53.673L48.6436 53.7227C48.149 53.7288 47.7431 54.1347 47.7368 54.6295L47.7258 55.5253C47.7197 56.0199 48.1157 56.4159 48.6105 56.41L52.641 56.3602L52.5912 60.3907C52.5851 60.8853 52.9811 61.2813 53.4759 61.2754L54.3717 61.2644C54.8663 61.2583 55.2724 60.8521 55.2785 60.3575L55.3282 56.3271L59.3587 56.2773C59.8533 56.2712 60.2594 55.8651 60.2655 55.3705L60.2766 54.4747C60.2827 53.9801 59.8867 53.5841 59.3919 53.59L55.3614 53.6398Z" fill="white"/>
<defs>
<linearGradient id="paint0_linear" x1="149.589" y1="96" x2="-2.35811" y2="36.9699" gradientUnits="userSpaceOnUse">
<stop stop-color="#511848"/>
<stop offset="0.319206" stop-color="#8E6A89" stop-opacity="0.698927"/>
<stop offset="0.577625" stop-color="#D2C3CF" stop-opacity="0.369666"/>
<stop offset="0.795549" stop-color="#EDE7EC" stop-opacity="0.148559"/>
<stop offset="1" stop-color="white" stop-opacity="0"/>
</linearGradient>
</defs>
</svg>
