<svg width="75" height="60" viewBox="0 0 75 60" fill="none" xmlns="http://www.w3.org/2000/svg">
<path d="M68.7 16.6562H63.5V11.5312C63.5 10.8266 62.915 10.25 62.2 10.25H59.6C58.885 10.25 58.3 10.8266 58.3 11.5312V16.6562H53.1C52.385 16.6562 51.8 17.2328 51.8 17.9375V20.5C51.8 21.2047 52.385 21.7812 53.1 21.7812H58.3V26.9062C58.3 27.6109 58.885 28.1875 59.6 28.1875H62.2C62.915 28.1875 63.5 27.6109 63.5 26.9062V21.7812H68.7C69.415 21.7812 70 21.2047 70 20.5V17.9375C70 17.2328 69.415 16.6562 68.7 16.6562ZM36.2 20.5C41.9444 20.5 46.6 15.9115 46.6 10.25C46.6 4.58848 41.9444 0 36.2 0C30.4556 0 25.8 4.58848 25.8 10.25C25.8 15.9115 30.4556 20.5 36.2 20.5ZM43.48 23.0625H42.1231C40.3194 23.8793 38.3125 24.3438 36.2 24.3438C34.0875 24.3438 32.0887 23.8793 30.2769 23.0625H28.92C22.8912 23.0625 18 27.8832 18 33.825V37.1562C18 39.2783 19.7469 41 21.9 41H50.5C52.6531 41 54.4 39.2783 54.4 37.1562V33.825C54.4 27.8832 49.5087 23.0625 43.48 23.0625Z" fill="white" fill-opacity="0.9"/>
<path d="M6.24023 52.5352H3.67188L3.18359 54H1.62598L4.27246 46.8906H5.62988L8.29102 54H6.7334L6.24023 52.5352ZM4.06738 51.3486H5.84473L4.95117 48.6875L4.06738 51.3486ZM8.64258 51.3193C8.64258 50.4958 8.8265 49.8398 9.19434 49.3516C9.56543 48.8633 10.0716 48.6191 10.7129 48.6191C11.2272 48.6191 11.652 48.8112 11.9873 49.1953V46.5H13.4033V54H12.1289L12.0605 53.4385C11.709 53.8779 11.2565 54.0977 10.7031 54.0977C10.0814 54.0977 9.58171 53.8535 9.2041 53.3652C8.82975 52.8737 8.64258 52.1917 8.64258 51.3193ZM10.0537 51.4219C10.0537 51.9167 10.14 52.2959 10.3125 52.5596C10.485 52.8232 10.7357 52.9551 11.0645 52.9551C11.5007 52.9551 11.8083 52.7712 11.9873 52.4033V50.3184C11.8115 49.9505 11.5072 49.7666 11.0742 49.7666C10.3939 49.7666 10.0537 50.3184 10.0537 51.4219ZM14.2773 51.3193C14.2773 50.4958 14.4613 49.8398 14.8291 49.3516C15.2002 48.8633 15.7064 48.6191 16.3477 48.6191C16.862 48.6191 17.2868 48.8112 17.6221 49.1953V46.5H19.0381V54H17.7637L17.6953 53.4385C17.3438 53.8779 16.8913 54.0977 16.3379 54.0977C15.7161 54.0977 15.2165 53.8535 14.8389 53.3652C14.4645 52.8737 14.2773 52.1917 14.2773 51.3193ZM15.6885 51.4219C15.6885 51.9167 15.7747 52.2959 15.9473 52.5596C16.1198 52.8232 16.3704 52.9551 16.6992 52.9551C17.1354 52.9551 17.443 52.7712 17.6221 52.4033V50.3184C17.4463 49.9505 17.1419 49.7666 16.709 49.7666C16.0286 49.7666 15.6885 50.3184 15.6885 51.4219ZM28.2959 51.6318C28.2406 52.3968 27.9574 52.999 27.4463 53.4385C26.9385 53.8779 26.2679 54.0977 25.4346 54.0977C24.5231 54.0977 23.8053 53.7917 23.2812 53.1797C22.7604 52.5645 22.5 51.7214 22.5 50.6504V50.2158C22.5 49.5322 22.6204 48.93 22.8613 48.4092C23.1022 47.8883 23.4456 47.4896 23.8916 47.2129C24.3408 46.9329 24.8617 46.793 25.4541 46.793C26.2744 46.793 26.9352 47.0127 27.4365 47.4521C27.9378 47.8916 28.2275 48.5085 28.3057 49.3027H26.8408C26.805 48.8438 26.6764 48.5117 26.4551 48.3066C26.237 48.0983 25.9033 47.9941 25.4541 47.9941C24.9658 47.9941 24.5996 48.1699 24.3555 48.5215C24.1146 48.8698 23.9909 49.4118 23.9844 50.1475V50.6846C23.9844 51.4528 24.0999 52.0143 24.3311 52.3691C24.5654 52.724 24.9333 52.9014 25.4346 52.9014C25.887 52.9014 26.224 52.7988 26.4453 52.5938C26.6699 52.3854 26.7985 52.0648 26.8311 51.6318H28.2959ZM28.9453 51.3096C28.9453 50.7855 29.0462 50.3184 29.248 49.9082C29.4499 49.498 29.7396 49.1807 30.1172 48.9561C30.498 48.7314 30.9391 48.6191 31.4404 48.6191C32.1533 48.6191 32.7344 48.8372 33.1836 49.2734C33.6361 49.7096 33.8883 50.3021 33.9404 51.0508L33.9502 51.4121C33.9502 52.2227 33.724 52.8737 33.2715 53.3652C32.819 53.8535 32.2119 54.0977 31.4502 54.0977C30.6885 54.0977 30.0798 53.8535 29.624 53.3652C29.1715 52.877 28.9453 52.2129 28.9453 51.373V51.3096ZM30.3564 51.4121C30.3564 51.9134 30.4508 52.2975 30.6396 52.5645C30.8285 52.8281 31.0986 52.96 31.4502 52.96C31.792 52.96 32.0589 52.8298 32.251 52.5693C32.443 52.3057 32.5391 51.8857 32.5391 51.3096C32.5391 50.818 32.443 50.4372 32.251 50.167C32.0589 49.8968 31.7887 49.7617 31.4404 49.7617C31.0954 49.7617 30.8285 49.8968 30.6396 50.167C30.4508 50.4339 30.3564 50.849 30.3564 51.4121ZM36.1182 48.7168L36.1621 49.3271C36.5397 48.8551 37.0459 48.6191 37.6807 48.6191C38.2406 48.6191 38.6572 48.7835 38.9307 49.1123C39.2041 49.4411 39.3441 49.9326 39.3506 50.5869V54H37.9395V50.6211C37.9395 50.3216 37.8743 50.1051 37.7441 49.9717C37.6139 49.835 37.3975 49.7666 37.0947 49.7666C36.6976 49.7666 36.3997 49.9359 36.2012 50.2744V54H34.79V48.7168H36.1182ZM41.7236 48.7168L41.7676 49.3271C42.1452 48.8551 42.6514 48.6191 43.2861 48.6191C43.846 48.6191 44.2627 48.7835 44.5361 49.1123C44.8096 49.4411 44.9495 49.9326 44.9561 50.5869V54H43.5449V50.6211C43.5449 50.3216 43.4798 50.1051 43.3496 49.9717C43.2194 49.835 43.0029 49.7666 42.7002 49.7666C42.3031 49.7666 42.0052 49.9359 41.8066 50.2744V54H40.3955V48.7168H41.7236ZM48.4619 54.0977C47.6872 54.0977 47.0557 53.86 46.5674 53.3848C46.0824 52.9095 45.8398 52.2764 45.8398 51.4854V51.3486C45.8398 50.818 45.9424 50.3444 46.1475 49.9277C46.3525 49.5078 46.6423 49.1855 47.0166 48.9609C47.3942 48.7331 47.8239 48.6191 48.3057 48.6191C49.0283 48.6191 49.5964 48.847 50.0098 49.3027C50.4264 49.7585 50.6348 50.4046 50.6348 51.2412V51.8174H47.2705C47.3161 52.1624 47.4528 52.4391 47.6807 52.6475C47.9118 52.8558 48.2031 52.96 48.5547 52.96C49.0983 52.96 49.5231 52.763 49.8291 52.3691L50.5225 53.1455C50.3109 53.445 50.0244 53.6794 49.6631 53.8486C49.3018 54.0146 48.9014 54.0977 48.4619 54.0977ZM48.3008 49.7617C48.0208 49.7617 47.793 49.8561 47.6172 50.0449C47.4447 50.2337 47.334 50.5039 47.2852 50.8555H49.248V50.7432C49.2415 50.4307 49.1569 50.1898 48.9941 50.0205C48.8314 49.848 48.6003 49.7617 48.3008 49.7617ZM53.6377 52.96C53.8981 52.96 54.1097 52.8883 54.2725 52.7451C54.4352 52.6019 54.5199 52.4115 54.5264 52.1738H55.8496C55.8464 52.5319 55.7487 52.8607 55.5566 53.1602C55.3646 53.4564 55.1009 53.6875 54.7656 53.8535C54.4336 54.0163 54.0658 54.0977 53.6621 54.0977C52.9069 54.0977 52.3112 53.8584 51.875 53.3799C51.4388 52.8981 51.2207 52.234 51.2207 51.3877V51.2949C51.2207 50.4811 51.4372 49.8317 51.8701 49.3467C52.3031 48.8617 52.8971 48.6191 53.6523 48.6191C54.3132 48.6191 54.8421 48.8079 55.2393 49.1855C55.6396 49.5599 55.8431 50.0596 55.8496 50.6846H54.5264C54.5199 50.4111 54.4352 50.1898 54.2725 50.0205C54.1097 49.848 53.8949 49.7617 53.6279 49.7617C53.2992 49.7617 53.0501 49.8822 52.8809 50.123C52.7148 50.3607 52.6318 50.748 52.6318 51.2852V51.4316C52.6318 51.9753 52.7148 52.3659 52.8809 52.6035C53.0469 52.8411 53.2992 52.96 53.6377 52.96ZM58.3447 47.418V48.7168H59.248V49.752H58.3447V52.3887C58.3447 52.584 58.3822 52.724 58.457 52.8086C58.5319 52.8932 58.6751 52.9355 58.8867 52.9355C59.043 52.9355 59.1813 52.9242 59.3018 52.9014V53.9707C59.0251 54.0553 58.7402 54.0977 58.4473 54.0977C57.4577 54.0977 56.9531 53.598 56.9336 52.5986V49.752H56.1621V48.7168H56.9336V47.418H58.3447ZM61.5234 54H60.1074V48.7168H61.5234V54ZM60.0244 47.3496C60.0244 47.138 60.0944 46.9639 60.2344 46.8271C60.3776 46.6904 60.5713 46.6221 60.8154 46.6221C61.0563 46.6221 61.2484 46.6904 61.3916 46.8271C61.5348 46.9639 61.6064 47.138 61.6064 47.3496C61.6064 47.5645 61.5332 47.7402 61.3867 47.877C61.2435 48.0137 61.0531 48.082 60.8154 48.082C60.5778 48.082 60.3857 48.0137 60.2393 47.877C60.096 47.7402 60.0244 47.5645 60.0244 47.3496ZM62.4707 51.3096C62.4707 50.7855 62.5716 50.3184 62.7734 49.9082C62.9753 49.498 63.265 49.1807 63.6426 48.9561C64.0234 48.7314 64.4645 48.6191 64.9658 48.6191C65.6787 48.6191 66.2598 48.8372 66.709 49.2734C67.1615 49.7096 67.4137 50.3021 67.4658 51.0508L67.4756 51.4121C67.4756 52.2227 67.2493 52.8737 66.7969 53.3652C66.3444 53.8535 65.7373 54.0977 64.9756 54.0977C64.2139 54.0977 63.6051 53.8535 63.1494 53.3652C62.6969 52.877 62.4707 52.2129 62.4707 51.373V51.3096ZM63.8818 51.4121C63.8818 51.9134 63.9762 52.2975 64.165 52.5645C64.3538 52.8281 64.624 52.96 64.9756 52.96C65.3174 52.96 65.5843 52.8298 65.7764 52.5693C65.9684 52.3057 66.0645 51.8857 66.0645 51.3096C66.0645 50.818 65.9684 50.4372 65.7764 50.167C65.5843 49.8968 65.3141 49.7617 64.9658 49.7617C64.6208 49.7617 64.3538 49.8968 64.165 50.167C63.9762 50.4339 63.8818 50.849 63.8818 51.4121ZM69.6436 48.7168L69.6875 49.3271C70.0651 48.8551 70.5713 48.6191 71.2061 48.6191C71.766 48.6191 72.1826 48.7835 72.4561 49.1123C72.7295 49.4411 72.8695 49.9326 72.876 50.5869V54H71.4648V50.6211C71.4648 50.3216 71.3997 50.1051 71.2695 49.9717C71.1393 49.835 70.9229 49.7666 70.6201 49.7666C70.223 49.7666 69.9251 49.9359 69.7266 50.2744V54H68.3154V48.7168H69.6436Z" fill="white"/>
</svg>
