<svg width="74" height="99" viewBox="0 0 74 99" fill="none" xmlns="http://www.w3.org/2000/svg">
<path d="M0 13C0 5.8203 5.8203 0 13 0H37H61C68.1797 0 74 5.8203 74 13V86C74 93.1797 68.1797 99 61 99H13C5.8203 99 0 93.1797 0 86V13Z" fill="url(#paint0_linear)" fill-opacity="0.45"/>
<path d="M36 37.375C41.9004 37.375 46.6875 32.5879 46.6875 26.6875C46.6875 20.7871 41.9004 16 36 16C30.0996 16 25.3125 20.7871 25.3125 26.6875C25.3125 32.5879 30.0996 37.375 36 37.375ZM45.5 39.75H41.4105C39.7629 40.507 37.9297 40.9375 36 40.9375C34.0703 40.9375 32.2445 40.507 30.5895 39.75H26.5C21.2527 39.75 17 44.0027 17 49.25V50.4375C17 52.4043 18.5957 54 20.5625 54H51.4375C53.4043 54 55 52.4043 55 50.4375V49.25C55 44.0027 50.7473 39.75 45.5 39.75Z" fill="white"/>
<path d="M29.9966 69.0957H26.6577L26.0229 71H23.998L27.4385 61.7578H29.2031L32.6626 71H30.6377L29.9966 69.0957ZM27.1719 67.5532H29.4824L28.3208 64.0938L27.1719 67.5532ZM39.2832 67.6294C39.2832 68.6873 39.042 69.5358 38.5596 70.1748C38.0814 70.8096 37.4339 71.127 36.6172 71.127C35.9232 71.127 35.3625 70.8857 34.9351 70.4033V73.6406H33.1006V64.1318H34.8018L34.8652 64.8047C35.3096 64.2715 35.8893 64.0049 36.6045 64.0049C37.4508 64.0049 38.1089 64.318 38.5786 64.9443C39.0483 65.5706 39.2832 66.4339 39.2832 67.5342V67.6294ZM37.4487 67.4961C37.4487 66.8571 37.3345 66.3641 37.106 66.0171C36.8817 65.6701 36.5537 65.4966 36.1221 65.4966C35.5465 65.4966 35.1509 65.7166 34.9351 66.1567V68.9688C35.1593 69.4215 35.5592 69.6479 36.1348 69.6479C37.0107 69.6479 37.4487 68.9307 37.4487 67.4961ZM46.6084 67.6294C46.6084 68.6873 46.3672 69.5358 45.8848 70.1748C45.4066 70.8096 44.7591 71.127 43.9424 71.127C43.2484 71.127 42.6877 70.8857 42.2603 70.4033V73.6406H40.4258V64.1318H42.127L42.1904 64.8047C42.6348 64.2715 43.2145 64.0049 43.9297 64.0049C44.776 64.0049 45.4341 64.318 45.9038 64.9443C46.3735 65.5706 46.6084 66.4339 46.6084 67.5342V67.6294ZM44.7739 67.4961C44.7739 66.8571 44.6597 66.3641 44.4312 66.0171C44.2069 65.6701 43.8789 65.4966 43.4473 65.4966C42.8717 65.4966 42.4761 65.7166 42.2603 66.1567V68.9688C42.4845 69.4215 42.8844 69.6479 43.46 69.6479C44.3359 69.6479 44.7739 68.9307 44.7739 67.4961ZM16.7808 83.5752C16.7808 83.2155 16.6538 82.9404 16.3999 82.75C16.146 82.5553 15.689 82.3522 15.0288 82.1406C14.3687 81.9248 13.846 81.7132 13.4609 81.5059C12.4115 80.9388 11.8867 80.175 11.8867 79.2144C11.8867 78.715 12.0264 78.2707 12.3057 77.8813C12.5892 77.4878 12.9933 77.181 13.5181 76.9609C14.047 76.7409 14.6395 76.6309 15.2954 76.6309C15.9556 76.6309 16.5438 76.7515 17.0601 76.9927C17.5763 77.2297 17.9762 77.5661 18.2598 78.002C18.5475 78.4378 18.6914 78.9329 18.6914 79.4873H16.7871C16.7871 79.0641 16.6538 78.7362 16.3872 78.5034C16.1206 78.2664 15.7461 78.1479 15.2637 78.1479C14.7982 78.1479 14.4364 78.2474 14.1782 78.4463C13.9201 78.641 13.791 78.8991 13.791 79.2207C13.791 79.5212 13.9412 79.7729 14.2417 79.9761C14.5464 80.1792 14.9928 80.3696 15.5811 80.5474C16.6644 80.8732 17.4536 81.2773 17.9487 81.7598C18.4438 82.2422 18.6914 82.8431 18.6914 83.5625C18.6914 84.3623 18.3888 84.9907 17.7837 85.4478C17.1785 85.9006 16.3639 86.127 15.3398 86.127C14.6289 86.127 13.9814 85.9979 13.3975 85.7397C12.8135 85.4774 12.367 85.1198 12.0581 84.667C11.7534 84.2142 11.6011 83.6895 11.6011 83.0928H13.5117C13.5117 84.1126 14.1211 84.6226 15.3398 84.6226C15.7926 84.6226 16.146 84.5316 16.3999 84.3496C16.6538 84.1634 16.7808 83.9053 16.7808 83.5752ZM23.0269 86.127C22.0197 86.127 21.1987 85.818 20.564 85.2002C19.9334 84.5824 19.6182 83.7593 19.6182 82.731V82.5532C19.6182 81.8634 19.7515 81.2477 20.0181 80.7061C20.2847 80.1602 20.6613 79.7412 21.1479 79.4492C21.6388 79.153 22.1974 79.0049 22.8237 79.0049C23.7632 79.0049 24.5016 79.3011 25.0391 79.8936C25.5807 80.486 25.8516 81.326 25.8516 82.4136V83.1626H21.478C21.5373 83.6112 21.715 83.9709 22.0112 84.2417C22.3117 84.5125 22.6904 84.6479 23.1475 84.6479C23.8542 84.6479 24.4064 84.3919 24.8042 83.8799L25.7056 84.8892C25.4305 85.2785 25.0581 85.5832 24.5884 85.8032C24.1187 86.019 23.5981 86.127 23.0269 86.127ZM22.8174 80.4902C22.4535 80.4902 22.1572 80.613 21.9287 80.8584C21.7044 81.1038 21.5605 81.4551 21.4971 81.9121H24.0488V81.7661C24.0404 81.3599 23.9303 81.0467 23.7188 80.8267C23.5072 80.6024 23.2067 80.4902 22.8174 80.4902ZM29.0952 77.4434V79.1318H30.2695V80.4775H29.0952V83.9053C29.0952 84.1592 29.1439 84.3411 29.2412 84.4512C29.3385 84.5612 29.5247 84.6162 29.7998 84.6162C30.0029 84.6162 30.1828 84.6014 30.3394 84.5718V85.9619C29.9797 86.0719 29.6094 86.127 29.2285 86.127C27.9421 86.127 27.2861 85.4774 27.2607 84.1782V80.4775H26.2578V79.1318H27.2607V77.4434H29.0952ZM33.4878 77.4434V79.1318H34.6621V80.4775H33.4878V83.9053C33.4878 84.1592 33.5365 84.3411 33.6338 84.4512C33.7311 84.5612 33.9173 84.6162 34.1924 84.6162C34.3955 84.6162 34.5754 84.6014 34.7319 84.5718V85.9619C34.3722 86.0719 34.002 86.127 33.6211 86.127C32.3346 86.127 31.6787 85.4774 31.6533 84.1782V80.4775H30.6504V79.1318H31.6533V77.4434H33.4878ZM37.6201 86H35.7793V79.1318H37.6201V86ZM35.6714 77.3545C35.6714 77.0794 35.7624 76.853 35.9443 76.6753C36.1305 76.4976 36.3823 76.4087 36.6997 76.4087C37.0129 76.4087 37.2625 76.4976 37.4487 76.6753C37.6349 76.853 37.728 77.0794 37.728 77.3545C37.728 77.6338 37.6328 77.8623 37.4424 78.04C37.2562 78.2178 37.0086 78.3066 36.6997 78.3066C36.3908 78.3066 36.1411 78.2178 35.9507 78.04C35.7645 77.8623 35.6714 77.6338 35.6714 77.3545ZM40.8257 79.1318L40.8828 79.9253C41.3737 79.3117 42.0317 79.0049 42.8569 79.0049C43.5848 79.0049 44.1265 79.2186 44.4819 79.646C44.8374 80.0734 45.0194 80.7124 45.0278 81.563V86H43.1934V81.6074C43.1934 81.2181 43.1087 80.9367 42.9395 80.7632C42.7702 80.5854 42.4888 80.4966 42.0952 80.4966C41.5789 80.4966 41.1917 80.7166 40.9336 81.1567V86H39.0991V79.1318H40.8257ZM46.1577 82.5151C46.1577 81.4614 46.4074 80.613 46.9067 79.9697C47.4103 79.3265 48.0874 79.0049 48.938 79.0049C49.6912 79.0049 50.2773 79.263 50.6963 79.7793L50.7725 79.1318H52.4355V85.7715C52.4355 86.3724 52.298 86.895 52.0229 87.3394C51.7521 87.7837 51.3691 88.1222 50.874 88.355C50.3789 88.5877 49.7992 88.7041 49.1348 88.7041C48.6312 88.7041 48.1403 88.6025 47.6621 88.3994C47.1839 88.2005 46.8221 87.9424 46.5767 87.625L47.3892 86.5078C47.8462 87.0199 48.4006 87.2759 49.0522 87.2759C49.5389 87.2759 49.9176 87.1447 50.1885 86.8823C50.4593 86.6242 50.5947 86.256 50.5947 85.7778V85.4097C50.1715 85.8879 49.6151 86.127 48.9253 86.127C48.1001 86.127 47.4315 85.8053 46.9194 85.1621C46.4116 84.5146 46.1577 83.6577 46.1577 82.5913V82.5151ZM47.9922 82.6484C47.9922 83.2705 48.117 83.7593 48.3667 84.1147C48.6164 84.466 48.9591 84.6416 49.395 84.6416C49.9536 84.6416 50.3535 84.4321 50.5947 84.0132V81.125C50.3493 80.7061 49.9536 80.4966 49.4077 80.4966C48.9676 80.4966 48.6206 80.6764 48.3667 81.0361C48.117 81.3958 47.9922 81.9333 47.9922 82.6484ZM57.5708 84.1021C57.5708 83.8778 57.4587 83.7021 57.2344 83.5752C57.0143 83.444 56.6589 83.3276 56.168 83.2261C54.5345 82.8833 53.7178 82.1893 53.7178 81.144C53.7178 80.5347 53.9696 80.0269 54.4731 79.6206C54.981 79.2101 55.6432 79.0049 56.46 79.0049C57.3317 79.0049 58.0278 79.2101 58.5483 79.6206C59.0731 80.0311 59.3354 80.5643 59.3354 81.2202H57.501C57.501 80.9578 57.4163 80.742 57.2471 80.5728C57.0778 80.3993 56.8133 80.3125 56.4536 80.3125C56.1447 80.3125 55.9056 80.3823 55.7363 80.522C55.5671 80.6616 55.4824 80.8394 55.4824 81.0552C55.4824 81.2583 55.5776 81.4233 55.7681 81.5503C55.9627 81.673 56.2886 81.7809 56.7456 81.874C57.2026 81.9629 57.5877 82.0645 57.9009 82.1787C58.87 82.5342 59.3545 83.1499 59.3545 84.0259C59.3545 84.6522 59.0858 85.16 58.5483 85.5493C58.0109 85.9344 57.3169 86.127 56.4663 86.127C55.8908 86.127 55.3787 86.0254 54.9302 85.8223C54.4858 85.6149 54.1367 85.3335 53.8828 84.978C53.6289 84.6183 53.502 84.2311 53.502 83.8164H55.2412C55.2581 84.1423 55.3787 84.3919 55.603 84.5654C55.8273 84.7389 56.1278 84.8257 56.5044 84.8257C56.8556 84.8257 57.1201 84.7601 57.2979 84.6289C57.4798 84.4935 57.5708 84.3179 57.5708 84.1021Z" fill="white"/>
<defs>
<linearGradient id="paint0_linear" x1="37" y1="0" x2="37" y2="99" gradientUnits="userSpaceOnUse">
<stop offset="0.59375" stop-color="#1F001A"/>
<stop offset="1" stop-opacity="0"/>
</linearGradient>
</defs>
</svg>
