<svg width="24" height="25" viewBox="0 0 24 25" fill="none" xmlns="http://www.w3.org/2000/svg">
<path d="M12.0007 25C10.1086 25 8.57373 23.6011 8.57373 21.875H15.4277C15.4277 23.6011 13.8928 25 12.0007 25ZM0.461945 17.6899C1.49694 16.6763 3.43355 15.1514 3.43355 10.1562C3.43355 6.3623 6.35212 3.3252 10.2875 2.58008V1.5625C10.2875 0.699707 11.0546 0 12.0007 0C12.9468 0 13.7139 0.699707 13.7139 1.5625V2.58008C17.6493 3.3252 20.5678 6.3623 20.5678 10.1562C20.5678 15.1514 22.5044 16.6763 23.5394 17.6899C23.8609 18.0049 24.0034 18.3813 24.0007 18.75C23.9948 19.5508 23.3053 20.3125 22.2811 20.3125H1.72034C0.696051 20.3125 0.00605202 19.5508 0.000694275 18.75C-0.00198364 18.3813 0.140516 18.0044 0.461945 17.6899Z" fill="white"/>
</svg>
