<svg width="48" height="65" viewBox="0 0 48 65" fill="none" xmlns="http://www.w3.org/2000/svg">
<path d="M14.8203 56.6318C14.765 57.3968 14.4818 57.999 13.9707 58.4385C13.4629 58.8779 12.7923 59.0977 11.959 59.0977C11.0475 59.0977 10.3298 58.7917 9.80566 58.1797C9.28483 57.5645 9.02441 56.7214 9.02441 55.6504V55.2158C9.02441 54.5322 9.14486 53.93 9.38574 53.4092C9.62663 52.8883 9.97005 52.4896 10.416 52.2129C10.8652 51.9329 11.3861 51.793 11.9785 51.793C12.7988 51.793 13.4596 52.0127 13.9609 52.4521C14.4622 52.8916 14.752 53.5085 14.8301 54.3027H13.3652C13.3294 53.8438 13.2008 53.5117 12.9795 53.3066C12.7614 53.0983 12.4277 52.9941 11.9785 52.9941C11.4902 52.9941 11.124 53.1699 10.8799 53.5215C10.639 53.8698 10.5153 54.4118 10.5088 55.1475V55.6846C10.5088 56.4528 10.6243 57.0143 10.8555 57.3691C11.0898 57.724 11.4577 57.9014 11.959 57.9014C12.4115 57.9014 12.7484 57.7988 12.9697 57.5938C13.1943 57.3854 13.3229 57.0648 13.3555 56.6318H14.8203ZM18.751 59C18.6859 58.873 18.6387 58.7152 18.6094 58.5264C18.2676 58.9072 17.8232 59.0977 17.2764 59.0977C16.7588 59.0977 16.3291 58.9479 15.9873 58.6484C15.6488 58.349 15.4795 57.9714 15.4795 57.5156C15.4795 56.9557 15.6862 56.526 16.0996 56.2266C16.5163 55.9271 17.1169 55.7757 17.9014 55.7725H18.5508V55.4697C18.5508 55.2256 18.4873 55.0303 18.3604 54.8838C18.2367 54.7373 18.0397 54.6641 17.7695 54.6641C17.5319 54.6641 17.3447 54.721 17.208 54.835C17.0745 54.9489 17.0078 55.1051 17.0078 55.3037H15.5967C15.5967 54.9977 15.6911 54.7145 15.8799 54.4541C16.0687 54.1937 16.3356 53.9902 16.6807 53.8438C17.0257 53.694 17.4131 53.6191 17.8428 53.6191C18.4938 53.6191 19.0098 53.7835 19.3906 54.1123C19.7747 54.4378 19.9668 54.8968 19.9668 55.4893V57.7793C19.9701 58.2806 20.04 58.6598 20.1768 58.917V59H18.751ZM17.584 58.0186C17.7923 58.0186 17.9844 57.973 18.1602 57.8818C18.3359 57.7874 18.4661 57.6621 18.5508 57.5059V56.5977H18.0234C17.3171 56.5977 16.9411 56.8418 16.8955 57.3301L16.8906 57.4131C16.8906 57.5889 16.9525 57.7337 17.0762 57.8477C17.1999 57.9616 17.3691 58.0186 17.584 58.0186ZM22.3496 53.7168L22.3936 54.3271C22.7712 53.8551 23.2773 53.6191 23.9121 53.6191C24.472 53.6191 24.8887 53.7835 25.1621 54.1123C25.4355 54.4411 25.5755 54.9326 25.582 55.5869V59H24.1709V55.6211C24.1709 55.3216 24.1058 55.1051 23.9756 54.9717C23.8454 54.835 23.6289 54.7666 23.3262 54.7666C22.929 54.7666 22.6312 54.9359 22.4326 55.2744V59H21.0215V53.7168H22.3496ZM28.8535 57.96C29.1139 57.96 29.3255 57.8883 29.4883 57.7451C29.651 57.6019 29.7357 57.4115 29.7422 57.1738H31.0654C31.0622 57.5319 30.9645 57.8607 30.7725 58.1602C30.5804 58.4564 30.3167 58.6875 29.9814 58.8535C29.6494 59.0163 29.2816 59.0977 28.8779 59.0977C28.1227 59.0977 27.527 58.8584 27.0908 58.3799C26.6546 57.8981 26.4365 57.234 26.4365 56.3877V56.2949C26.4365 55.4811 26.653 54.8317 27.0859 54.3467C27.5189 53.8617 28.113 53.6191 28.8682 53.6191C29.529 53.6191 30.0579 53.8079 30.4551 54.1855C30.8555 54.5599 31.0589 55.0596 31.0654 55.6846H29.7422C29.7357 55.4111 29.651 55.1898 29.4883 55.0205C29.3255 54.848 29.1107 54.7617 28.8438 54.7617C28.515 54.7617 28.266 54.8822 28.0967 55.123C27.9307 55.3607 27.8477 55.748 27.8477 56.2852V56.4316C27.8477 56.9753 27.9307 57.3659 28.0967 57.6035C28.2627 57.8411 28.515 57.96 28.8535 57.96ZM34.3027 59.0977C33.528 59.0977 32.8965 58.86 32.4082 58.3848C31.9232 57.9095 31.6807 57.2764 31.6807 56.4854V56.3486C31.6807 55.818 31.7832 55.3444 31.9883 54.9277C32.1934 54.5078 32.4831 54.1855 32.8574 53.9609C33.235 53.7331 33.6647 53.6191 34.1465 53.6191C34.8691 53.6191 35.4372 53.847 35.8506 54.3027C36.2673 54.7585 36.4756 55.4046 36.4756 56.2412V56.8174H33.1113C33.1569 57.1624 33.2936 57.4391 33.5215 57.6475C33.7526 57.8558 34.0439 57.96 34.3955 57.96C34.9391 57.96 35.3639 57.763 35.6699 57.3691L36.3633 58.1455C36.1517 58.445 35.8652 58.6794 35.5039 58.8486C35.1426 59.0146 34.7422 59.0977 34.3027 59.0977ZM34.1416 54.7617C33.8617 54.7617 33.6338 54.8561 33.458 55.0449C33.2855 55.2337 33.1748 55.5039 33.126 55.8555H35.0889V55.7432C35.0824 55.4307 34.9977 55.1898 34.835 55.0205C34.6722 54.848 34.4411 54.7617 34.1416 54.7617ZM38.7705 59H37.3545V51.5H38.7705V59Z" fill="white"/>
<path d="M31.2714 20L42.9272 8.62841C44.3576 7.23295 44.3576 4.97045 42.9272 3.57386L40.3368 1.04659C38.9064 -0.348864 36.5874 -0.348864 35.1559 1.04659L23.5 12.4182L11.8441 1.04659C10.4138 -0.348864 8.09472 -0.348864 6.66321 1.04659L4.07276 3.57386C2.64241 4.96932 2.64241 7.23182 4.07276 8.62841L15.7286 20L4.07276 31.3716C2.64241 32.767 2.64241 35.0295 4.07276 36.4261L6.66321 38.9534C8.09355 40.3489 10.4138 40.3489 11.8441 38.9534L23.5 27.5818L35.1559 38.9534C36.5862 40.3489 38.9064 40.3489 40.3368 38.9534L42.9272 36.4261C44.3576 35.0307 44.3576 32.7682 42.9272 31.3716L31.2714 20Z" fill="white"/>
</svg>
