<svg width="29" height="21" viewBox="0 0 29 21" fill="none" xmlns="http://www.w3.org/2000/svg">
<path d="M10.5 11.8125C13.7607 11.8125 16.4062 9.16699 16.4062 5.90625C16.4062 2.64551 13.7607 0 10.5 0C7.23926 0 4.59375 2.64551 4.59375 5.90625C4.59375 9.16699 7.23926 11.8125 10.5 11.8125ZM15.75 13.125H13.49C12.5795 13.5434 11.5664 13.7812 10.5 13.7812C9.43359 13.7812 8.42461 13.5434 7.50996 13.125H5.25C2.3502 13.125 0 15.4752 0 18.375V19.0312C0 20.1182 0.881836 21 1.96875 21H19.0312C20.1182 21 21 20.1182 21 19.0312V18.375C21 15.4752 18.6498 13.125 15.75 13.125Z" fill="white"/>
<path d="M23.2518 3.73678L23.7472 3.17758C23.957 2.94081 24.2963 2.94081 24.5039 3.17758L28.8427 8.07179C29.0525 8.30856 29.0525 8.69144 28.8427 8.92569L24.5039 13.8224C24.2941 14.0592 23.9548 14.0592 23.7472 13.8224L23.2518 13.2632C23.0397 13.0239 23.0442 12.6335 23.2607 12.3992L25.9501 9.50756H19.5357C19.2388 9.50756 19 9.23804 19 8.90302V8.09698C19 7.76196 19.2388 7.49244 19.5357 7.49244H25.9501L23.2607 4.60076C23.042 4.3665 23.0375 3.97607 23.2518 3.73678Z" fill="white"/>
</svg>
