<svg width="75" height="102" viewBox="0 0 75 102" fill="none" xmlns="http://www.w3.org/2000/svg">
<path d="M0 16C0 8.8203 5.8203 3 13 3H37H61C68.1797 3 74 8.8203 74 16V89C74 96.1797 68.1797 102 61 102H13C5.8203 102 0 96.1797 0 89V16Z" fill="url(#paint0_linear)" fill-opacity="0.45"/>
<path d="M8.37207 78.9214C8.30013 79.9159 7.93197 80.6987 7.26758 81.27C6.60742 81.8413 5.73568 82.127 4.65234 82.127C3.46745 82.127 2.53434 81.7292 1.85303 80.9336C1.17594 80.1338 0.837402 79.0378 0.837402 77.6455V77.0806C0.837402 76.1919 0.993978 75.409 1.30713 74.7319C1.62028 74.0549 2.06673 73.5365 2.64648 73.1768C3.23047 72.8128 3.90755 72.6309 4.67773 72.6309C5.74414 72.6309 6.60319 72.9165 7.25488 73.4878C7.90658 74.0591 8.2832 74.861 8.38477 75.8936H6.48047C6.43392 75.2969 6.26676 74.8652 5.979 74.5986C5.69548 74.3278 5.26172 74.1924 4.67773 74.1924C4.04297 74.1924 3.56689 74.4209 3.24951 74.8779C2.93636 75.3307 2.77555 76.0353 2.76709 76.9917V77.6899C2.76709 78.6886 2.91732 79.4186 3.21777 79.8799C3.52246 80.3411 4.00065 80.5718 4.65234 80.5718C5.24056 80.5718 5.67855 80.4385 5.96631 80.1719C6.2583 79.901 6.42546 79.4842 6.46777 78.9214H8.37207ZM9.21631 78.5024C9.21631 77.8211 9.34749 77.2139 9.60986 76.6807C9.87223 76.1475 10.2489 75.7349 10.7397 75.4429C11.2349 75.1509 11.8083 75.0049 12.46 75.0049C13.3867 75.0049 14.1421 75.2884 14.7261 75.8555C15.3143 76.4225 15.6423 77.1927 15.71 78.166L15.7227 78.6357C15.7227 79.6895 15.4285 80.5358 14.8403 81.1748C14.2521 81.8096 13.4629 82.127 12.4727 82.127C11.4824 82.127 10.6911 81.8096 10.0986 81.1748C9.51042 80.54 9.21631 79.6768 9.21631 78.585V78.5024ZM11.0508 78.6357C11.0508 79.2874 11.1735 79.7868 11.4189 80.1338C11.6644 80.4766 12.0156 80.6479 12.4727 80.6479C12.917 80.6479 13.264 80.4787 13.5137 80.1401C13.7633 79.7974 13.8882 79.2515 13.8882 78.5024C13.8882 77.8634 13.7633 77.3683 13.5137 77.0171C13.264 76.6659 12.9128 76.4902 12.46 76.4902C12.0114 76.4902 11.6644 76.6659 11.4189 77.0171C11.1735 77.3641 11.0508 77.9036 11.0508 78.6357ZM18.541 75.1318L18.5981 75.9253C19.089 75.3117 19.7471 75.0049 20.5723 75.0049C21.3001 75.0049 21.8418 75.2186 22.1973 75.646C22.5527 76.0734 22.7347 76.7124 22.7432 77.563V82H20.9087V77.6074C20.9087 77.2181 20.8241 76.9367 20.6548 76.7632C20.4855 76.5854 20.2041 76.4966 19.8105 76.4966C19.2943 76.4966 18.9071 76.7166 18.6489 77.1567V82H16.8145V75.1318H18.541ZM25.8281 75.1318L25.8853 75.9253C26.3761 75.3117 27.0342 75.0049 27.8594 75.0049C28.5872 75.0049 29.1289 75.2186 29.4844 75.646C29.8398 76.0734 30.0218 76.7124 30.0303 77.563V82H28.1958V77.6074C28.1958 77.2181 28.1112 76.9367 27.9419 76.7632C27.7726 76.5854 27.4912 76.4966 27.0977 76.4966C26.5814 76.4966 26.1942 76.7166 25.936 77.1567V82H24.1016V75.1318H25.8281ZM34.5879 82.127C33.5807 82.127 32.7598 81.818 32.125 81.2002C31.4945 80.5824 31.1792 79.7593 31.1792 78.731V78.5532C31.1792 77.8634 31.3125 77.2477 31.5791 76.7061C31.8457 76.1602 32.2223 75.7412 32.709 75.4492C33.1999 75.153 33.7585 75.0049 34.3848 75.0049C35.3242 75.0049 36.0627 75.3011 36.6001 75.8936C37.1418 76.486 37.4126 77.326 37.4126 78.4136V79.1626H33.0391C33.0983 79.6112 33.276 79.9709 33.5723 80.2417C33.8727 80.5125 34.2515 80.6479 34.7085 80.6479C35.4152 80.6479 35.9674 80.3919 36.3652 79.8799L37.2666 80.8892C36.9915 81.2785 36.6191 81.5832 36.1494 81.8032C35.6797 82.019 35.1592 82.127 34.5879 82.127ZM34.3784 76.4902C34.0145 76.4902 33.7183 76.613 33.4897 76.8584C33.2655 77.1038 33.1216 77.4551 33.0581 77.9121H35.6099V77.7661C35.6014 77.3599 35.4914 77.0467 35.2798 76.8267C35.0682 76.6024 34.7677 76.4902 34.3784 76.4902ZM41.3164 80.6479C41.6549 80.6479 41.93 80.5549 42.1416 80.3687C42.3532 80.1825 42.4632 79.9349 42.4717 79.626H44.1919C44.1877 80.0915 44.0607 80.5189 43.811 80.9082C43.5614 81.2933 43.2186 81.5938 42.7827 81.8096C42.3511 82.0212 41.8729 82.127 41.3481 82.127C40.3664 82.127 39.592 81.8159 39.0249 81.1938C38.4578 80.5675 38.1743 79.7043 38.1743 78.604V78.4834C38.1743 77.4255 38.4557 76.5812 39.0186 75.9507C39.5814 75.3201 40.3537 75.0049 41.3354 75.0049C42.1945 75.0049 42.8822 75.2503 43.3984 75.7412C43.9189 76.2279 44.1834 76.8774 44.1919 77.6899H42.4717C42.4632 77.3345 42.3532 77.0467 42.1416 76.8267C41.93 76.6024 41.6507 76.4902 41.3037 76.4902C40.8763 76.4902 40.5526 76.6468 40.3325 76.96C40.1167 77.2689 40.0088 77.7725 40.0088 78.4707V78.6611C40.0088 79.3678 40.1167 79.8757 40.3325 80.1846C40.5483 80.4935 40.8763 80.6479 41.3164 80.6479ZM47.4355 73.4434V75.1318H48.6099V76.4775H47.4355V79.9053C47.4355 80.1592 47.4842 80.3411 47.5815 80.4512C47.6789 80.5612 47.8651 80.6162 48.1401 80.6162C48.3433 80.6162 48.5231 80.6014 48.6797 80.5718V81.9619C48.32 82.0719 47.9497 82.127 47.5688 82.127C46.2824 82.127 45.6265 81.4774 45.6011 80.1782V76.4775H44.5981V75.1318H45.6011V73.4434H47.4355ZM51.5679 82H49.7271V75.1318H51.5679V82ZM49.6191 73.3545C49.6191 73.0794 49.7101 72.853 49.8921 72.6753C50.0783 72.4976 50.3301 72.4087 50.6475 72.4087C50.9606 72.4087 51.2103 72.4976 51.3965 72.6753C51.5827 72.853 51.6758 73.0794 51.6758 73.3545C51.6758 73.6338 51.5806 73.8623 51.3901 74.04C51.2039 74.2178 50.9564 74.3066 50.6475 74.3066C50.3385 74.3066 50.0889 74.2178 49.8984 74.04C49.7122 73.8623 49.6191 73.6338 49.6191 73.3545ZM52.7993 78.5024C52.7993 77.8211 52.9305 77.2139 53.1929 76.6807C53.4552 76.1475 53.8319 75.7349 54.3228 75.4429C54.8179 75.1509 55.3913 75.0049 56.043 75.0049C56.9697 75.0049 57.7251 75.2884 58.3091 75.8555C58.8973 76.4225 59.2253 77.1927 59.293 78.166L59.3057 78.6357C59.3057 79.6895 59.0116 80.5358 58.4233 81.1748C57.8351 81.8096 57.0459 82.127 56.0557 82.127C55.0654 82.127 54.2741 81.8096 53.6816 81.1748C53.0934 80.54 52.7993 79.6768 52.7993 78.585V78.5024ZM54.6338 78.6357C54.6338 79.2874 54.7565 79.7868 55.002 80.1338C55.2474 80.4766 55.5986 80.6479 56.0557 80.6479C56.5 80.6479 56.847 80.4787 57.0967 80.1401C57.3464 79.7974 57.4712 79.2515 57.4712 78.5024C57.4712 77.8634 57.3464 77.3683 57.0967 77.0171C56.847 76.6659 56.4958 76.4902 56.043 76.4902C55.5944 76.4902 55.2474 76.6659 55.002 77.0171C54.7565 77.3641 54.6338 77.9036 54.6338 78.6357ZM62.124 75.1318L62.1812 75.9253C62.672 75.3117 63.3301 75.0049 64.1553 75.0049C64.8831 75.0049 65.4248 75.2186 65.7803 75.646C66.1357 76.0734 66.3177 76.7124 66.3262 77.563V82H64.4917V77.6074C64.4917 77.2181 64.4071 76.9367 64.2378 76.7632C64.0685 76.5854 63.7871 76.4966 63.3936 76.4966C62.8773 76.4966 62.4901 76.7166 62.2319 77.1567V82H60.3975V75.1318H62.124ZM71.4424 80.1021C71.4424 79.8778 71.3302 79.7021 71.106 79.5752C70.8859 79.444 70.5304 79.3276 70.0396 79.2261C68.4061 78.8833 67.5894 78.1893 67.5894 77.144C67.5894 76.5347 67.8411 76.0269 68.3447 75.6206C68.8525 75.2101 69.5148 75.0049 70.3315 75.0049C71.2033 75.0049 71.8994 75.2101 72.4199 75.6206C72.9447 76.0311 73.207 76.5643 73.207 77.2202H71.3726C71.3726 76.9578 71.2879 76.742 71.1187 76.5728C70.9494 76.3993 70.6849 76.3125 70.3252 76.3125C70.0163 76.3125 69.7772 76.3823 69.6079 76.522C69.4386 76.6616 69.354 76.8394 69.354 77.0552C69.354 77.2583 69.4492 77.4233 69.6396 77.5503C69.8343 77.673 70.1602 77.7809 70.6172 77.874C71.0742 77.9629 71.4593 78.0645 71.7725 78.1787C72.7415 78.5342 73.2261 79.1499 73.2261 80.0259C73.2261 80.6522 72.9574 81.16 72.4199 81.5493C71.8825 81.9344 71.1885 82.127 70.3379 82.127C69.7624 82.127 69.2503 82.0254 68.8018 81.8223C68.3574 81.6149 68.0083 81.3335 67.7544 80.978C67.5005 80.6183 67.3735 80.2311 67.3735 79.8164H69.1128C69.1297 80.1423 69.2503 80.3919 69.4746 80.5654C69.6989 80.7389 69.9993 80.8257 70.376 80.8257C70.7272 80.8257 70.9917 80.7601 71.1694 80.6289C71.3514 80.4935 71.4424 80.3179 71.4424 80.1021Z" fill="white"/>
<path d="M28.8 36.5C33.2491 36.5 36.85 32.8795 36.85 28.4062C36.85 23.933 33.2491 20.3125 28.8 20.3125C24.3509 20.3125 20.75 23.933 20.75 28.4062C20.75 32.8795 24.3509 36.5 28.8 36.5ZM34.32 38.8125H33.7234C32.2284 39.5352 30.5681 39.9688 28.8 39.9688C27.0319 39.9688 25.3787 39.5352 23.8766 38.8125H23.28C18.7087 38.8125 15 42.5414 15 47.1375V49.2188C15 51.1338 16.5453 52.6875 18.45 52.6875H39.15C41.0547 52.6875 42.6 51.1338 42.6 49.2188V47.1375C42.6 42.5414 38.8912 38.8125 34.32 38.8125ZM49.5 36.5C53.3094 36.5 56.4 33.3926 56.4 29.5625C56.4 25.7324 53.3094 22.625 49.5 22.625C45.6906 22.625 42.6 25.7324 42.6 29.5625C42.6 33.3926 45.6906 36.5 49.5 36.5ZM52.95 38.8125H52.6769C51.6778 39.1594 50.6213 39.3906 49.5 39.3906C48.3787 39.3906 47.3222 39.1594 46.3231 38.8125H46.05C44.5837 38.8125 43.2325 39.2389 42.0466 39.9254C43.8003 41.826 44.9 44.348 44.9 47.1375V49.9125C44.9 50.0715 44.8641 50.2232 44.8569 50.375H57.55C59.4547 50.375 61 48.8213 61 46.9062C61 42.433 57.3991 38.8125 52.95 38.8125Z" fill="white"/>
<path d="M70.7363 14H63.9141V12.6465L67.1338 9.21484C67.5758 8.73177 67.9017 8.31022 68.1113 7.9502C68.3255 7.59017 68.4326 7.24837 68.4326 6.9248C68.4326 6.48275 68.321 6.13639 68.0977 5.88574C67.8743 5.63053 67.5553 5.50293 67.1406 5.50293C66.694 5.50293 66.3408 5.65788 66.0811 5.96777C65.8258 6.27311 65.6982 6.67643 65.6982 7.17773H63.7158C63.7158 6.57161 63.8594 6.0179 64.1465 5.5166C64.4382 5.0153 64.8483 4.62337 65.377 4.34082C65.9056 4.05371 66.5049 3.91016 67.1748 3.91016C68.2002 3.91016 68.9954 4.15625 69.5605 4.64844C70.1302 5.14062 70.415 5.83561 70.415 6.7334C70.415 7.22559 70.2874 7.72689 70.0322 8.2373C69.777 8.74772 69.3395 9.34245 68.7197 10.0215L66.457 12.4072H70.7363V14Z" fill="white"/>
<rect x="59.5" y="0.5" width="15" height="17" rx="4.5" stroke="white"/>
<defs>
<linearGradient id="paint0_linear" x1="37" y1="3" x2="37" y2="102" gradientUnits="userSpaceOnUse">
<stop offset="0.59375" stop-color="#1F001A"/>
<stop offset="1" stop-opacity="0"/>
</linearGradient>
</defs>
</svg>
