<svg width="46" height="33" viewBox="0 0 46 33" fill="none" xmlns="http://www.w3.org/2000/svg">
<path d="M13.8 16.5C18.2491 16.5 21.85 12.8795 21.85 8.40625C21.85 3.93301 18.2491 0.3125 13.8 0.3125C9.35094 0.3125 5.75 3.93301 5.75 8.40625C5.75 12.8795 9.35094 16.5 13.8 16.5ZM19.32 18.8125H18.7234C17.2284 19.5352 15.5681 19.9688 13.8 19.9688C12.0319 19.9688 10.3787 19.5352 8.87656 18.8125H8.28C3.70875 18.8125 0 22.5414 0 27.1375V29.2188C0 31.1338 1.54531 32.6875 3.45 32.6875H24.15C26.0547 32.6875 27.6 31.1338 27.6 29.2188V27.1375C27.6 22.5414 23.8912 18.8125 19.32 18.8125ZM34.5 16.5C38.3094 16.5 41.4 13.3926 41.4 9.5625C41.4 5.73242 38.3094 2.625 34.5 2.625C30.6906 2.625 27.6 5.73242 27.6 9.5625C27.6 13.3926 30.6906 16.5 34.5 16.5ZM37.95 18.8125H37.6769C36.6778 19.1594 35.6213 19.3906 34.5 19.3906C33.3787 19.3906 32.3222 19.1594 31.3231 18.8125H31.05C29.5837 18.8125 28.2325 19.2389 27.0466 19.9254C28.8003 21.826 29.9 24.348 29.9 27.1375V29.9125C29.9 30.0715 29.8641 30.2232 29.8569 30.375H42.55C44.4547 30.375 46 28.8213 46 26.9062C46 22.433 42.3991 18.8125 37.95 18.8125Z" fill="white"/>
</svg>
