<svg width="29" height="23" viewBox="0 0 29 23" fill="none" xmlns="http://www.w3.org/2000/svg">
<path d="M28.275 9.34375H19.575C19.1763 9.34375 18.85 9.66719 18.85 10.0625V11.5C18.85 11.8953 19.1763 12.2188 19.575 12.2188H28.275C28.6738 12.2188 29 11.8953 29 11.5V10.0625C29 9.66719 28.6738 9.34375 28.275 9.34375ZM10.15 11.5C13.3536 11.5 15.95 8.92598 15.95 5.75C15.95 2.57402 13.3536 0 10.15 0C6.94641 0 4.35 2.57402 4.35 5.75C4.35 8.92598 6.94641 11.5 10.15 11.5ZM14.21 12.9375H13.4533C12.4473 13.3957 11.3281 13.6562 10.15 13.6562C8.97188 13.6562 7.85719 13.3957 6.84672 12.9375H6.09C2.72781 12.9375 0 15.6418 0 18.975V20.8438C0 22.0342 0.974219 23 2.175 23H18.125C19.3258 23 20.3 22.0342 20.3 20.8438V18.975C20.3 15.6418 17.5722 12.9375 14.21 12.9375Z" fill="white"/>
</svg>
