<svg width="91" height="67" viewBox="0 0 91 67" fill="none" xmlns="http://www.w3.org/2000/svg">
<path d="M45.2 20.5C50.9444 20.5 55.6 15.9115 55.6 10.25C55.6 4.58848 50.9444 0 45.2 0C39.4556 0 34.8 4.58848 34.8 10.25C34.8 15.9115 39.4556 20.5 45.2 20.5ZM52.48 23.0625H51.1231C49.3194 23.8793 47.3125 24.3438 45.2 24.3438C43.0875 24.3438 41.0888 23.8793 39.2769 23.0625H37.92C31.8912 23.0625 27 27.8832 27 33.825V37.1562C27 39.2783 28.7469 41 30.9 41H59.5C61.6531 41 63.4 39.2783 63.4 37.1562V33.825C63.4 27.8832 58.5087 23.0625 52.48 23.0625Z" fill="white" fill-opacity="0.9"/>
<path d="M6.07031 51.6318C6.01497 52.3968 5.73177 52.999 5.2207 53.4385C4.71289 53.8779 4.04232 54.0977 3.20898 54.0977C2.29753 54.0977 1.57975 53.7917 1.05566 53.1797C0.534831 52.5645 0.274414 51.7214 0.274414 50.6504V50.2158C0.274414 49.5322 0.394857 48.93 0.635742 48.4092C0.876628 47.8883 1.22005 47.4896 1.66602 47.2129C2.11523 46.9329 2.63607 46.793 3.22852 46.793C4.04883 46.793 4.70964 47.0127 5.21094 47.4521C5.71224 47.8916 6.00195 48.5085 6.08008 49.3027H4.61523C4.57943 48.8438 4.45085 48.5117 4.22949 48.3066C4.01139 48.0983 3.67773 47.9941 3.22852 47.9941C2.74023 47.9941 2.37402 48.1699 2.12988 48.5215C1.889 48.8698 1.7653 49.4118 1.75879 50.1475V50.6846C1.75879 51.4528 1.87435 52.0143 2.10547 52.3691C2.33984 52.724 2.70768 52.9014 3.20898 52.9014C3.66146 52.9014 3.99837 52.7988 4.21973 52.5938C4.44434 52.3854 4.57292 52.0648 4.60547 51.6318H6.07031ZM6.71973 51.3096C6.71973 50.7855 6.82064 50.3184 7.02246 49.9082C7.22428 49.498 7.514 49.1807 7.8916 48.9561C8.27246 48.7314 8.71354 48.6191 9.21484 48.6191C9.92773 48.6191 10.5088 48.8372 10.958 49.2734C11.4105 49.7096 11.6628 50.3021 11.7148 51.0508L11.7246 51.4121C11.7246 52.2227 11.4984 52.8737 11.0459 53.3652C10.5934 53.8535 9.98633 54.0977 9.22461 54.0977C8.46289 54.0977 7.85417 53.8535 7.39844 53.3652C6.94596 52.877 6.71973 52.2129 6.71973 51.373V51.3096ZM8.13086 51.4121C8.13086 51.9134 8.22526 52.2975 8.41406 52.5645C8.60286 52.8281 8.87305 52.96 9.22461 52.96C9.56641 52.96 9.83333 52.8298 10.0254 52.5693C10.2174 52.3057 10.3135 51.8857 10.3135 51.3096C10.3135 50.818 10.2174 50.4372 10.0254 50.167C9.83333 49.8968 9.56315 49.7617 9.21484 49.7617C8.86979 49.7617 8.60286 49.8968 8.41406 50.167C8.22526 50.4339 8.13086 50.849 8.13086 51.4121ZM13.8926 48.7168L13.9365 49.3271C14.3141 48.8551 14.8203 48.6191 15.4551 48.6191C16.015 48.6191 16.4316 48.7835 16.7051 49.1123C16.9785 49.4411 17.1185 49.9326 17.125 50.5869V54H15.7139V50.6211C15.7139 50.3216 15.6488 50.1051 15.5186 49.9717C15.3883 49.835 15.1719 49.7666 14.8691 49.7666C14.472 49.7666 14.1742 49.9359 13.9756 50.2744V54H12.5645V48.7168H13.8926ZM19.498 48.7168L19.542 49.3271C19.9196 48.8551 20.4258 48.6191 21.0605 48.6191C21.6204 48.6191 22.0371 48.7835 22.3105 49.1123C22.584 49.4411 22.724 49.9326 22.7305 50.5869V54H21.3193V50.6211C21.3193 50.3216 21.2542 50.1051 21.124 49.9717C20.9938 49.835 20.7773 49.7666 20.4746 49.7666C20.0775 49.7666 19.7796 49.9359 19.5811 50.2744V54H18.1699V48.7168H19.498ZM26.2363 54.0977C25.4616 54.0977 24.8301 53.86 24.3418 53.3848C23.8568 52.9095 23.6143 52.2764 23.6143 51.4854V51.3486C23.6143 50.818 23.7168 50.3444 23.9219 49.9277C24.127 49.5078 24.4167 49.1855 24.791 48.9609C25.1686 48.7331 25.5983 48.6191 26.0801 48.6191C26.8027 48.6191 27.3708 48.847 27.7842 49.3027C28.2008 49.7585 28.4092 50.4046 28.4092 51.2412V51.8174H25.0449C25.0905 52.1624 25.2272 52.4391 25.4551 52.6475C25.6862 52.8558 25.9775 52.96 26.3291 52.96C26.8727 52.96 27.2975 52.763 27.6035 52.3691L28.2969 53.1455C28.0853 53.445 27.7988 53.6794 27.4375 53.8486C27.0762 54.0146 26.6758 54.0977 26.2363 54.0977ZM26.0752 49.7617C25.7952 49.7617 25.5674 49.8561 25.3916 50.0449C25.2191 50.2337 25.1084 50.5039 25.0596 50.8555H27.0225V50.7432C27.016 50.4307 26.9313 50.1898 26.7686 50.0205C26.6058 49.848 26.3747 49.7617 26.0752 49.7617ZM31.4121 52.96C31.6725 52.96 31.8841 52.8883 32.0469 52.7451C32.2096 52.6019 32.2943 52.4115 32.3008 52.1738H33.624C33.6208 52.5319 33.5231 52.8607 33.3311 53.1602C33.139 53.4564 32.8753 53.6875 32.54 53.8535C32.208 54.0163 31.8402 54.0977 31.4365 54.0977C30.6813 54.0977 30.0856 53.8584 29.6494 53.3799C29.2132 52.8981 28.9951 52.234 28.9951 51.3877V51.2949C28.9951 50.4811 29.2116 49.8317 29.6445 49.3467C30.0775 48.8617 30.6715 48.6191 31.4268 48.6191C32.0876 48.6191 32.6165 48.8079 33.0137 49.1855C33.4141 49.5599 33.6175 50.0596 33.624 50.6846H32.3008C32.2943 50.4111 32.2096 50.1898 32.0469 50.0205C31.8841 49.848 31.6693 49.7617 31.4023 49.7617C31.0736 49.7617 30.8245 49.8822 30.6553 50.123C30.4893 50.3607 30.4062 50.748 30.4062 51.2852V51.4316C30.4062 51.9753 30.4893 52.3659 30.6553 52.6035C30.8213 52.8411 31.0736 52.96 31.4121 52.96ZM36.1191 47.418V48.7168H37.0225V49.752H36.1191V52.3887C36.1191 52.584 36.1566 52.724 36.2314 52.8086C36.3063 52.8932 36.4495 52.9355 36.6611 52.9355C36.8174 52.9355 36.9557 52.9242 37.0762 52.9014V53.9707C36.7995 54.0553 36.5146 54.0977 36.2217 54.0977C35.2321 54.0977 34.7275 53.598 34.708 52.5986V49.752H33.9365V48.7168H34.708V47.418H36.1191ZM39.2979 54H37.8818V48.7168H39.2979V54ZM37.7988 47.3496C37.7988 47.138 37.8688 46.9639 38.0088 46.8271C38.152 46.6904 38.3457 46.6221 38.5898 46.6221C38.8307 46.6221 39.0228 46.6904 39.166 46.8271C39.3092 46.9639 39.3809 47.138 39.3809 47.3496C39.3809 47.5645 39.3076 47.7402 39.1611 47.877C39.0179 48.0137 38.8275 48.082 38.5898 48.082C38.3522 48.082 38.1602 48.0137 38.0137 47.877C37.8704 47.7402 37.7988 47.5645 37.7988 47.3496ZM40.2451 51.3096C40.2451 50.7855 40.346 50.3184 40.5479 49.9082C40.7497 49.498 41.0394 49.1807 41.417 48.9561C41.7979 48.7314 42.2389 48.6191 42.7402 48.6191C43.4531 48.6191 44.0342 48.8372 44.4834 49.2734C44.9359 49.7096 45.1882 50.3021 45.2402 51.0508L45.25 51.4121C45.25 52.2227 45.0238 52.8737 44.5713 53.3652C44.1188 53.8535 43.5117 54.0977 42.75 54.0977C41.9883 54.0977 41.3796 53.8535 40.9238 53.3652C40.4714 52.877 40.2451 52.2129 40.2451 51.373V51.3096ZM41.6562 51.4121C41.6562 51.9134 41.7507 52.2975 41.9395 52.5645C42.1283 52.8281 42.3984 52.96 42.75 52.96C43.0918 52.96 43.3587 52.8298 43.5508 52.5693C43.7428 52.3057 43.8389 51.8857 43.8389 51.3096C43.8389 50.818 43.7428 50.4372 43.5508 50.167C43.3587 49.8968 43.0885 49.7617 42.7402 49.7617C42.3952 49.7617 42.1283 49.8968 41.9395 50.167C41.7507 50.4339 41.6562 50.849 41.6562 51.4121ZM47.418 48.7168L47.4619 49.3271C47.8395 48.8551 48.3457 48.6191 48.9805 48.6191C49.5404 48.6191 49.957 48.7835 50.2305 49.1123C50.5039 49.4411 50.6439 49.9326 50.6504 50.5869V54H49.2393V50.6211C49.2393 50.3216 49.1742 50.1051 49.0439 49.9717C48.9137 49.835 48.6973 49.7666 48.3945 49.7666C47.9974 49.7666 47.6995 49.9359 47.501 50.2744V54H46.0898V48.7168H47.418ZM56.9395 51.3975H55.7725V54H54.3076V46.8906H56.9492C57.7891 46.8906 58.4368 47.0778 58.8926 47.4521C59.3483 47.8265 59.5762 48.3555 59.5762 49.0391C59.5762 49.5241 59.4704 49.9294 59.2588 50.2549C59.0505 50.5771 58.7331 50.8343 58.3066 51.0264L59.8447 53.9316V54H58.2725L56.9395 51.3975ZM55.7725 50.2109H56.9541C57.3219 50.2109 57.6068 50.1182 57.8086 49.9326C58.0104 49.7438 58.1113 49.485 58.1113 49.1562C58.1113 48.821 58.0153 48.5573 57.8232 48.3652C57.6344 48.1732 57.3431 48.0771 56.9492 48.0771H55.7725V50.2109ZM63.0332 54.0977C62.2585 54.0977 61.627 53.86 61.1387 53.3848C60.6536 52.9095 60.4111 52.2764 60.4111 51.4854V51.3486C60.4111 50.818 60.5137 50.3444 60.7188 49.9277C60.9238 49.5078 61.2135 49.1855 61.5879 48.9609C61.9655 48.7331 62.3952 48.6191 62.877 48.6191C63.5996 48.6191 64.1676 48.847 64.5811 49.3027C64.9977 49.7585 65.2061 50.4046 65.2061 51.2412V51.8174H61.8418C61.8874 52.1624 62.0241 52.4391 62.252 52.6475C62.4831 52.8558 62.7744 52.96 63.126 52.96C63.6696 52.96 64.0944 52.763 64.4004 52.3691L65.0938 53.1455C64.8822 53.445 64.5957 53.6794 64.2344 53.8486C63.873 54.0146 63.4727 54.0977 63.0332 54.0977ZM62.8721 49.7617C62.5921 49.7617 62.3643 49.8561 62.1885 50.0449C62.016 50.2337 61.9053 50.5039 61.8564 50.8555H63.8193V50.7432C63.8128 50.4307 63.7282 50.1898 63.5654 50.0205C63.4027 49.848 63.1715 49.7617 62.8721 49.7617ZM65.792 51.3096C65.792 50.4795 65.9759 49.8236 66.3438 49.3418C66.7148 48.86 67.2227 48.6191 67.8672 48.6191C68.4336 48.6191 68.8844 48.8356 69.2197 49.2686L69.3125 48.7168H70.5527V56.0312H69.1367V53.5459C68.8112 53.9137 68.3848 54.0977 67.8574 54.0977C67.2292 54.0977 66.7279 53.8535 66.3535 53.3652C65.9792 52.877 65.792 52.1917 65.792 51.3096ZM67.2031 51.4121C67.2031 51.9167 67.291 52.3008 67.4668 52.5645C67.6458 52.8281 67.8965 52.96 68.2188 52.96C68.6517 52.96 68.9577 52.7874 69.1367 52.4424V50.2598C68.9609 49.9277 68.6582 49.7617 68.2285 49.7617C67.903 49.7617 67.6507 49.8936 67.4717 50.1572C67.2926 50.4209 67.2031 50.8392 67.2031 51.4121ZM74.8301 53.4629C74.4818 53.8861 74 54.0977 73.3848 54.0977C72.8184 54.0977 72.3854 53.9349 72.0859 53.6094C71.7897 53.2839 71.6383 52.807 71.6318 52.1787V48.7168H73.043V52.1299C73.043 52.68 73.2936 52.9551 73.7949 52.9551C74.2734 52.9551 74.6022 52.7891 74.7812 52.457V48.7168H76.1973V54H74.8691L74.8301 53.4629ZM79.6934 54.0977C78.9186 54.0977 78.2871 53.86 77.7988 53.3848C77.3138 52.9095 77.0713 52.2764 77.0713 51.4854V51.3486C77.0713 50.818 77.1738 50.3444 77.3789 49.9277C77.584 49.5078 77.8737 49.1855 78.248 48.9609C78.6257 48.7331 79.0553 48.6191 79.5371 48.6191C80.2598 48.6191 80.8278 48.847 81.2412 49.3027C81.6579 49.7585 81.8662 50.4046 81.8662 51.2412V51.8174H78.502C78.5475 52.1624 78.6842 52.4391 78.9121 52.6475C79.1432 52.8558 79.4346 52.96 79.7861 52.96C80.3298 52.96 80.7546 52.763 81.0605 52.3691L81.7539 53.1455C81.5423 53.445 81.2559 53.6794 80.8945 53.8486C80.5332 54.0146 80.1328 54.0977 79.6934 54.0977ZM79.5322 49.7617C79.2523 49.7617 79.0244 49.8561 78.8486 50.0449C78.6761 50.2337 78.5654 50.5039 78.5166 50.8555H80.4795V50.7432C80.473 50.4307 80.3883 50.1898 80.2256 50.0205C80.0628 49.848 79.8317 49.7617 79.5322 49.7617ZM85.5332 52.54C85.5332 52.3675 85.4469 52.2324 85.2744 52.1348C85.1051 52.0339 84.8317 51.9443 84.4541 51.8662C83.1976 51.6025 82.5693 51.0687 82.5693 50.2646C82.5693 49.7959 82.763 49.4053 83.1504 49.0928C83.541 48.777 84.0505 48.6191 84.6787 48.6191C85.3493 48.6191 85.8848 48.777 86.2852 49.0928C86.6888 49.4085 86.8906 49.8187 86.8906 50.3232H85.4795C85.4795 50.1214 85.4144 49.9554 85.2842 49.8252C85.154 49.6917 84.9505 49.625 84.6738 49.625C84.4362 49.625 84.2523 49.6787 84.1221 49.7861C83.9919 49.8936 83.9268 50.0303 83.9268 50.1963C83.9268 50.3525 84 50.4795 84.1465 50.5771C84.2962 50.6715 84.5469 50.7546 84.8984 50.8262C85.25 50.8945 85.5462 50.9727 85.7871 51.0605C86.5326 51.334 86.9053 51.8076 86.9053 52.4814C86.9053 52.9632 86.6986 53.3538 86.2852 53.6533C85.8717 53.9495 85.3379 54.0977 84.6836 54.0977C84.2409 54.0977 83.847 54.0195 83.502 53.8633C83.1602 53.7038 82.8916 53.4873 82.6963 53.2139C82.501 52.9372 82.4033 52.6393 82.4033 52.3203H83.7412C83.7542 52.571 83.847 52.763 84.0195 52.8965C84.1921 53.0299 84.4232 53.0967 84.7129 53.0967C84.9831 53.0967 85.1865 53.0462 85.3232 52.9453C85.4632 52.8411 85.5332 52.7061 85.5332 52.54ZM89.5078 47.418V48.7168H90.4111V49.752H89.5078V52.3887C89.5078 52.584 89.5452 52.724 89.6201 52.8086C89.695 52.8932 89.8382 52.9355 90.0498 52.9355C90.2061 52.9355 90.3444 52.9242 90.4648 52.9014V53.9707C90.1882 54.0553 89.9033 54.0977 89.6104 54.0977C88.6208 54.0977 88.1162 53.598 88.0967 52.5986V49.752H87.3252V48.7168H88.0967V47.418H89.5078ZM40.5479 64.1348C40.5479 63.8581 40.4502 63.6465 40.2549 63.5C40.0596 63.3503 39.708 63.194 39.2002 63.0312C38.6924 62.8652 38.2904 62.7025 37.9941 62.543C37.1868 62.1068 36.7832 61.5192 36.7832 60.7803C36.7832 60.3962 36.8906 60.0544 37.1055 59.7549C37.3236 59.4521 37.6344 59.2161 38.0381 59.0469C38.445 58.8776 38.9007 58.793 39.4053 58.793C39.9131 58.793 40.3656 58.8857 40.7627 59.0713C41.1598 59.2536 41.4674 59.5124 41.6855 59.8477C41.9069 60.1829 42.0176 60.5638 42.0176 60.9902H40.5527C40.5527 60.6647 40.4502 60.4124 40.2451 60.2334C40.04 60.0511 39.752 59.96 39.3809 59.96C39.0228 59.96 38.7445 60.0365 38.5459 60.1895C38.3473 60.3392 38.248 60.5378 38.248 60.7852C38.248 61.0163 38.3636 61.21 38.5947 61.3662C38.8291 61.5225 39.1725 61.6689 39.625 61.8057C40.4583 62.0563 41.0654 62.3672 41.4463 62.7383C41.8271 63.1094 42.0176 63.5716 42.0176 64.125C42.0176 64.7402 41.7848 65.2236 41.3193 65.5752C40.8538 65.9235 40.2272 66.0977 39.4395 66.0977C38.8926 66.0977 38.3945 65.9984 37.9453 65.7998C37.4961 65.598 37.1527 65.3229 36.915 64.9746C36.6807 64.6263 36.5635 64.2227 36.5635 63.7637H38.0332C38.0332 64.5482 38.502 64.9404 39.4395 64.9404C39.7878 64.9404 40.0596 64.8704 40.2549 64.7305C40.4502 64.5872 40.5479 64.3887 40.5479 64.1348ZM45.3525 66.0977C44.5778 66.0977 43.9463 65.86 43.458 65.3848C42.973 64.9095 42.7305 64.2764 42.7305 63.4854V63.3486C42.7305 62.818 42.833 62.3444 43.0381 61.9277C43.2432 61.5078 43.5329 61.1855 43.9072 60.9609C44.2848 60.7331 44.7145 60.6191 45.1963 60.6191C45.9189 60.6191 46.487 60.847 46.9004 61.3027C47.3171 61.7585 47.5254 62.4046 47.5254 63.2412V63.8174H44.1611C44.2067 64.1624 44.3434 64.4391 44.5713 64.6475C44.8024 64.8558 45.0938 64.96 45.4453 64.96C45.9889 64.96 46.4137 64.763 46.7197 64.3691L47.4131 65.1455C47.2015 65.445 46.915 65.6794 46.5537 65.8486C46.1924 66.0146 45.792 66.0977 45.3525 66.0977ZM45.1914 61.7617C44.9115 61.7617 44.6836 61.8561 44.5078 62.0449C44.3353 62.2337 44.2246 62.5039 44.1758 62.8555H46.1387V62.7432C46.1322 62.4307 46.0475 62.1898 45.8848 62.0205C45.722 61.848 45.4909 61.7617 45.1914 61.7617ZM49.6299 60.7168L49.6738 61.3271C50.0514 60.8551 50.5576 60.6191 51.1924 60.6191C51.7523 60.6191 52.1689 60.7835 52.4424 61.1123C52.7158 61.4411 52.8558 61.9326 52.8623 62.5869V66H51.4512V62.6211C51.4512 62.3216 51.3861 62.1051 51.2559 61.9717C51.1257 61.835 50.9092 61.7666 50.6064 61.7666C50.2093 61.7666 49.9115 61.9359 49.7129 62.2744V66H48.3018V60.7168H49.6299ZM55.626 59.418V60.7168H56.5293V61.752H55.626V64.3887C55.626 64.584 55.6634 64.724 55.7383 64.8086C55.8132 64.8932 55.9564 64.9355 56.168 64.9355C56.3242 64.9355 56.4626 64.9242 56.583 64.9014V65.9707C56.3063 66.0553 56.0215 66.0977 55.7285 66.0977C54.7389 66.0977 54.2344 65.598 54.2148 64.5986V61.752H53.4434V60.7168H54.2148V59.418H55.626Z" fill="white"/>
<path d="M66.8028 8.20563L67.5956 7.29059C67.9313 6.90314 68.4741 6.90314 68.8062 7.29059L75.7482 15.2993C76.0839 15.6867 76.0839 16.3133 75.7482 16.6966L68.8062 24.7094C68.4705 25.0969 67.9277 25.0969 67.5956 24.7094L66.8028 23.7944C66.4636 23.4028 66.4707 22.7639 66.8171 22.3806L71.1202 17.6487H60.857C60.3821 17.6487 60 17.2077 60 16.6595V15.3405C60 14.7923 60.3821 14.3513 60.857 14.3513H71.1202L66.8171 9.61942C66.4671 9.23609 66.46 8.59721 66.8028 8.20563Z" fill="white"/>
</svg>
