<svg width="74" height="99" viewBox="0 0 74 99" fill="none" xmlns="http://www.w3.org/2000/svg">
<path d="M0 13C0 5.8203 5.8203 0 13 0H37H61C68.1797 0 74 5.8203 74 13V86C74 93.1797 68.1797 99 61 99H13C5.8203 99 0 93.1797 0 86V13Z" fill="url(#paint0_linear)" fill-opacity="0.45"/>
<path d="M8.37207 75.9214C8.30013 76.9159 7.93197 77.6987 7.26758 78.27C6.60742 78.8413 5.73568 79.127 4.65234 79.127C3.46745 79.127 2.53434 78.7292 1.85303 77.9336C1.17594 77.1338 0.837402 76.0378 0.837402 74.6455V74.0806C0.837402 73.1919 0.993978 72.409 1.30713 71.7319C1.62028 71.0549 2.06673 70.5365 2.64648 70.1768C3.23047 69.8128 3.90755 69.6309 4.67773 69.6309C5.74414 69.6309 6.60319 69.9165 7.25488 70.4878C7.90658 71.0591 8.2832 71.861 8.38477 72.8936H6.48047C6.43392 72.2969 6.26676 71.8652 5.979 71.5986C5.69548 71.3278 5.26172 71.1924 4.67773 71.1924C4.04297 71.1924 3.56689 71.4209 3.24951 71.8779C2.93636 72.3307 2.77555 73.0353 2.76709 73.9917V74.6899C2.76709 75.6886 2.91732 76.4186 3.21777 76.8799C3.52246 77.3411 4.00065 77.5718 4.65234 77.5718C5.24056 77.5718 5.67855 77.4385 5.96631 77.1719C6.2583 76.901 6.42546 76.4842 6.46777 75.9214H8.37207ZM9.21631 75.5024C9.21631 74.8211 9.34749 74.2139 9.60986 73.6807C9.87223 73.1475 10.2489 72.7349 10.7397 72.4429C11.2349 72.1509 11.8083 72.0049 12.46 72.0049C13.3867 72.0049 14.1421 72.2884 14.7261 72.8555C15.3143 73.4225 15.6423 74.1927 15.71 75.166L15.7227 75.6357C15.7227 76.6895 15.4285 77.5358 14.8403 78.1748C14.2521 78.8096 13.4629 79.127 12.4727 79.127C11.4824 79.127 10.6911 78.8096 10.0986 78.1748C9.51042 77.54 9.21631 76.6768 9.21631 75.585V75.5024ZM11.0508 75.6357C11.0508 76.2874 11.1735 76.7868 11.4189 77.1338C11.6644 77.4766 12.0156 77.6479 12.4727 77.6479C12.917 77.6479 13.264 77.4787 13.5137 77.1401C13.7633 76.7974 13.8882 76.2515 13.8882 75.5024C13.8882 74.8634 13.7633 74.3683 13.5137 74.0171C13.264 73.6659 12.9128 73.4902 12.46 73.4902C12.0114 73.4902 11.6644 73.6659 11.4189 74.0171C11.1735 74.3641 11.0508 74.9036 11.0508 75.6357ZM18.541 72.1318L18.5981 72.9253C19.089 72.3117 19.7471 72.0049 20.5723 72.0049C21.3001 72.0049 21.8418 72.2186 22.1973 72.646C22.5527 73.0734 22.7347 73.7124 22.7432 74.563V79H20.9087V74.6074C20.9087 74.2181 20.8241 73.9367 20.6548 73.7632C20.4855 73.5854 20.2041 73.4966 19.8105 73.4966C19.2943 73.4966 18.9071 73.7166 18.6489 74.1567V79H16.8145V72.1318H18.541ZM25.8281 72.1318L25.8853 72.9253C26.3761 72.3117 27.0342 72.0049 27.8594 72.0049C28.5872 72.0049 29.1289 72.2186 29.4844 72.646C29.8398 73.0734 30.0218 73.7124 30.0303 74.563V79H28.1958V74.6074C28.1958 74.2181 28.1112 73.9367 27.9419 73.7632C27.7726 73.5854 27.4912 73.4966 27.0977 73.4966C26.5814 73.4966 26.1942 73.7166 25.936 74.1567V79H24.1016V72.1318H25.8281ZM34.5879 79.127C33.5807 79.127 32.7598 78.818 32.125 78.2002C31.4945 77.5824 31.1792 76.7593 31.1792 75.731V75.5532C31.1792 74.8634 31.3125 74.2477 31.5791 73.7061C31.8457 73.1602 32.2223 72.7412 32.709 72.4492C33.1999 72.153 33.7585 72.0049 34.3848 72.0049C35.3242 72.0049 36.0627 72.3011 36.6001 72.8936C37.1418 73.486 37.4126 74.326 37.4126 75.4136V76.1626H33.0391C33.0983 76.6112 33.276 76.9709 33.5723 77.2417C33.8727 77.5125 34.2515 77.6479 34.7085 77.6479C35.4152 77.6479 35.9674 77.3919 36.3652 76.8799L37.2666 77.8892C36.9915 78.2785 36.6191 78.5832 36.1494 78.8032C35.6797 79.019 35.1592 79.127 34.5879 79.127ZM34.3784 73.4902C34.0145 73.4902 33.7183 73.613 33.4897 73.8584C33.2655 74.1038 33.1216 74.4551 33.0581 74.9121H35.6099V74.7661C35.6014 74.3599 35.4914 74.0467 35.2798 73.8267C35.0682 73.6024 34.7677 73.4902 34.3784 73.4902ZM41.3164 77.6479C41.6549 77.6479 41.93 77.5549 42.1416 77.3687C42.3532 77.1825 42.4632 76.9349 42.4717 76.626H44.1919C44.1877 77.0915 44.0607 77.5189 43.811 77.9082C43.5614 78.2933 43.2186 78.5938 42.7827 78.8096C42.3511 79.0212 41.8729 79.127 41.3481 79.127C40.3664 79.127 39.592 78.8159 39.0249 78.1938C38.4578 77.5675 38.1743 76.7043 38.1743 75.604V75.4834C38.1743 74.4255 38.4557 73.5812 39.0186 72.9507C39.5814 72.3201 40.3537 72.0049 41.3354 72.0049C42.1945 72.0049 42.8822 72.2503 43.3984 72.7412C43.9189 73.2279 44.1834 73.8774 44.1919 74.6899H42.4717C42.4632 74.3345 42.3532 74.0467 42.1416 73.8267C41.93 73.6024 41.6507 73.4902 41.3037 73.4902C40.8763 73.4902 40.5526 73.6468 40.3325 73.96C40.1167 74.2689 40.0088 74.7725 40.0088 75.4707V75.6611C40.0088 76.3678 40.1167 76.8757 40.3325 77.1846C40.5483 77.4935 40.8763 77.6479 41.3164 77.6479ZM47.4355 70.4434V72.1318H48.6099V73.4775H47.4355V76.9053C47.4355 77.1592 47.4842 77.3411 47.5815 77.4512C47.6789 77.5612 47.8651 77.6162 48.1401 77.6162C48.3433 77.6162 48.5231 77.6014 48.6797 77.5718V78.9619C48.32 79.0719 47.9497 79.127 47.5688 79.127C46.2824 79.127 45.6265 78.4774 45.6011 77.1782V73.4775H44.5981V72.1318H45.6011V70.4434H47.4355ZM51.5679 79H49.7271V72.1318H51.5679V79ZM49.6191 70.3545C49.6191 70.0794 49.7101 69.853 49.8921 69.6753C50.0783 69.4976 50.3301 69.4087 50.6475 69.4087C50.9606 69.4087 51.2103 69.4976 51.3965 69.6753C51.5827 69.853 51.6758 70.0794 51.6758 70.3545C51.6758 70.6338 51.5806 70.8623 51.3901 71.04C51.2039 71.2178 50.9564 71.3066 50.6475 71.3066C50.3385 71.3066 50.0889 71.2178 49.8984 71.04C49.7122 70.8623 49.6191 70.6338 49.6191 70.3545ZM52.7993 75.5024C52.7993 74.8211 52.9305 74.2139 53.1929 73.6807C53.4552 73.1475 53.8319 72.7349 54.3228 72.4429C54.8179 72.1509 55.3913 72.0049 56.043 72.0049C56.9697 72.0049 57.7251 72.2884 58.3091 72.8555C58.8973 73.4225 59.2253 74.1927 59.293 75.166L59.3057 75.6357C59.3057 76.6895 59.0116 77.5358 58.4233 78.1748C57.8351 78.8096 57.0459 79.127 56.0557 79.127C55.0654 79.127 54.2741 78.8096 53.6816 78.1748C53.0934 77.54 52.7993 76.6768 52.7993 75.585V75.5024ZM54.6338 75.6357C54.6338 76.2874 54.7565 76.7868 55.002 77.1338C55.2474 77.4766 55.5986 77.6479 56.0557 77.6479C56.5 77.6479 56.847 77.4787 57.0967 77.1401C57.3464 76.7974 57.4712 76.2515 57.4712 75.5024C57.4712 74.8634 57.3464 74.3683 57.0967 74.0171C56.847 73.6659 56.4958 73.4902 56.043 73.4902C55.5944 73.4902 55.2474 73.6659 55.002 74.0171C54.7565 74.3641 54.6338 74.9036 54.6338 75.6357ZM62.124 72.1318L62.1812 72.9253C62.672 72.3117 63.3301 72.0049 64.1553 72.0049C64.8831 72.0049 65.4248 72.2186 65.7803 72.646C66.1357 73.0734 66.3177 73.7124 66.3262 74.563V79H64.4917V74.6074C64.4917 74.2181 64.4071 73.9367 64.2378 73.7632C64.0685 73.5854 63.7871 73.4966 63.3936 73.4966C62.8773 73.4966 62.4901 73.7166 62.2319 74.1567V79H60.3975V72.1318H62.124ZM71.4424 77.1021C71.4424 76.8778 71.3302 76.7021 71.106 76.5752C70.8859 76.444 70.5304 76.3276 70.0396 76.2261C68.4061 75.8833 67.5894 75.1893 67.5894 74.144C67.5894 73.5347 67.8411 73.0269 68.3447 72.6206C68.8525 72.2101 69.5148 72.0049 70.3315 72.0049C71.2033 72.0049 71.8994 72.2101 72.4199 72.6206C72.9447 73.0311 73.207 73.5643 73.207 74.2202H71.3726C71.3726 73.9578 71.2879 73.742 71.1187 73.5728C70.9494 73.3993 70.6849 73.3125 70.3252 73.3125C70.0163 73.3125 69.7772 73.3823 69.6079 73.522C69.4386 73.6616 69.354 73.8394 69.354 74.0552C69.354 74.2583 69.4492 74.4233 69.6396 74.5503C69.8343 74.673 70.1602 74.7809 70.6172 74.874C71.0742 74.9629 71.4593 75.0645 71.7725 75.1787C72.7415 75.5342 73.2261 76.1499 73.2261 77.0259C73.2261 77.6522 72.9574 78.16 72.4199 78.5493C71.8825 78.9344 71.1885 79.127 70.3379 79.127C69.7624 79.127 69.2503 79.0254 68.8018 78.8223C68.3574 78.6149 68.0083 78.3335 67.7544 77.978C67.5005 77.6183 67.3735 77.2311 67.3735 76.8164H69.1128C69.1297 77.1423 69.2503 77.3919 69.4746 77.5654C69.6989 77.7389 69.9993 77.8257 70.376 77.8257C70.7272 77.8257 70.9917 77.7601 71.1694 77.6289C71.3514 77.4935 71.4424 77.3179 71.4424 77.1021Z" fill="white"/>
<path d="M28.8 33.5C33.2491 33.5 36.85 29.8795 36.85 25.4062C36.85 20.933 33.2491 17.3125 28.8 17.3125C24.3509 17.3125 20.75 20.933 20.75 25.4062C20.75 29.8795 24.3509 33.5 28.8 33.5ZM34.32 35.8125H33.7234C32.2284 36.5352 30.5681 36.9688 28.8 36.9688C27.0319 36.9688 25.3787 36.5352 23.8766 35.8125H23.28C18.7087 35.8125 15 39.5414 15 44.1375V46.2188C15 48.1338 16.5453 49.6875 18.45 49.6875H39.15C41.0547 49.6875 42.6 48.1338 42.6 46.2188V44.1375C42.6 39.5414 38.8912 35.8125 34.32 35.8125ZM49.5 33.5C53.3094 33.5 56.4 30.3926 56.4 26.5625C56.4 22.7324 53.3094 19.625 49.5 19.625C45.6906 19.625 42.6 22.7324 42.6 26.5625C42.6 30.3926 45.6906 33.5 49.5 33.5ZM52.95 35.8125H52.6769C51.6778 36.1594 50.6213 36.3906 49.5 36.3906C48.3787 36.3906 47.3222 36.1594 46.3231 35.8125H46.05C44.5837 35.8125 43.2325 36.2389 42.0466 36.9254C43.8003 38.826 44.9 41.348 44.9 44.1375V46.9125C44.9 47.0715 44.8641 47.2232 44.8569 47.375H57.55C59.4547 47.375 61 45.8213 61 43.9062C61 39.433 57.3991 35.8125 52.95 35.8125Z" fill="white"/>
<defs>
<linearGradient id="paint0_linear" x1="37" y1="0" x2="37" y2="99" gradientUnits="userSpaceOnUse">
<stop offset="0.59375" stop-color="#1F001A"/>
<stop offset="1" stop-opacity="0"/>
</linearGradient>
</defs>
</svg>
