<svg width="74" height="99" viewBox="0 0 74 99" fill="none" xmlns="http://www.w3.org/2000/svg">
<path d="M0 13C0 5.8203 5.8203 0 13 0H37H61C68.1797 0 74 5.8203 74 13V86C74 93.1797 68.1797 99 61 99H13C5.8203 99 0 93.1797 0 86V13Z" fill="url(#paint0_linear)" fill-opacity="0.45"/>
<path d="M14.1406 82.9214C14.0687 83.9159 13.7005 84.6987 13.0361 85.27C12.376 85.8413 11.5042 86.127 10.4209 86.127C9.236 86.127 8.3029 85.7292 7.62158 84.9336C6.9445 84.1338 6.60596 83.0378 6.60596 81.6455V81.0806C6.60596 80.1919 6.76253 79.409 7.07568 78.7319C7.38883 78.0549 7.83529 77.5365 8.41504 77.1768C8.99902 76.8128 9.67611 76.6309 10.4463 76.6309C11.5127 76.6309 12.3717 76.9165 13.0234 77.4878C13.6751 78.0591 14.0518 78.861 14.1533 79.8936H12.249C12.2025 79.2969 12.0353 78.8652 11.7476 78.5986C11.464 78.3278 11.0303 78.1924 10.4463 78.1924C9.81152 78.1924 9.33545 78.4209 9.01807 78.8779C8.70492 79.3307 8.54411 80.0353 8.53564 80.9917V81.6899C8.53564 82.6886 8.68587 83.4186 8.98633 83.8799C9.29102 84.3411 9.76921 84.5718 10.4209 84.5718C11.0091 84.5718 11.4471 84.4385 11.7349 84.1719C12.0269 83.901 12.194 83.4842 12.2363 82.9214H14.1406ZM14.9849 82.5024C14.9849 81.8211 15.116 81.2139 15.3784 80.6807C15.6408 80.1475 16.0174 79.7349 16.5083 79.4429C17.0034 79.1509 17.5768 79.0049 18.2285 79.0049C19.1553 79.0049 19.9106 79.2884 20.4946 79.8555C21.0828 80.4225 21.4108 81.1927 21.4785 82.166L21.4912 82.6357C21.4912 83.6895 21.1971 84.5358 20.6089 85.1748C20.0207 85.8096 19.2314 86.127 18.2412 86.127C17.251 86.127 16.4596 85.8096 15.8672 85.1748C15.279 84.54 14.9849 83.6768 14.9849 82.585V82.5024ZM16.8193 82.6357C16.8193 83.2874 16.9421 83.7868 17.1875 84.1338C17.4329 84.4766 17.7842 84.6479 18.2412 84.6479C18.6855 84.6479 19.0326 84.4787 19.2822 84.1401C19.5319 83.7974 19.6567 83.2515 19.6567 82.5024C19.6567 81.8634 19.5319 81.3683 19.2822 81.0171C19.0326 80.6659 18.6813 80.4902 18.2285 80.4902C17.7799 80.4902 17.4329 80.6659 17.1875 81.0171C16.9421 81.3641 16.8193 81.9036 16.8193 82.6357ZM24.3096 79.1318L24.3667 79.9253C24.8576 79.3117 25.5156 79.0049 26.3408 79.0049C27.0687 79.0049 27.6104 79.2186 27.9658 79.646C28.3213 80.0734 28.5033 80.7124 28.5117 81.563V86H26.6772V81.6074C26.6772 81.2181 26.5926 80.9367 26.4233 80.7632C26.2541 80.5854 25.9727 80.4966 25.5791 80.4966C25.0628 80.4966 24.6756 80.7166 24.4175 81.1567V86H22.583V79.1318H24.3096ZM32.1045 77.4434V79.1318H33.2788V80.4775H32.1045V83.9053C32.1045 84.1592 32.1532 84.3411 32.2505 84.4512C32.3478 84.5612 32.534 84.6162 32.8091 84.6162C33.0122 84.6162 33.1921 84.6014 33.3486 84.5718V85.9619C32.9889 86.0719 32.6187 86.127 32.2378 86.127C30.9513 86.127 30.2954 85.4774 30.27 84.1782V80.4775H29.2671V79.1318H30.27V77.4434H32.1045ZM38.2808 86C38.1961 85.835 38.1348 85.6297 38.0967 85.3843C37.6523 85.8794 37.0747 86.127 36.3638 86.127C35.6909 86.127 35.1323 85.9323 34.688 85.543C34.2479 85.1536 34.0278 84.6628 34.0278 84.0703C34.0278 83.3424 34.2965 82.7839 34.834 82.3945C35.3757 82.0052 36.1564 81.8084 37.1763 81.8042H38.0205V81.4106C38.0205 81.0933 37.938 80.8394 37.7729 80.6489C37.6121 80.4585 37.3561 80.3633 37.0049 80.3633C36.696 80.3633 36.4526 80.4373 36.2749 80.5854C36.1014 80.7336 36.0146 80.9367 36.0146 81.1948H34.1802C34.1802 80.797 34.3029 80.4289 34.5483 80.0903C34.7938 79.7518 35.1408 79.4873 35.5894 79.2969C36.0379 79.1022 36.5415 79.0049 37.1001 79.0049C37.9465 79.0049 38.6172 79.2186 39.1123 79.646C39.6117 80.0692 39.8613 80.6659 39.8613 81.436V84.4131C39.8656 85.0648 39.9565 85.5578 40.1343 85.8921V86H38.2808ZM36.7637 84.7241C37.0345 84.7241 37.2842 84.6649 37.5127 84.5464C37.7412 84.4237 37.9105 84.2607 38.0205 84.0576V82.877H37.335C36.4167 82.877 35.9279 83.1943 35.8687 83.8291L35.8623 83.937C35.8623 84.1655 35.9427 84.3538 36.1035 84.502C36.2643 84.6501 36.4844 84.7241 36.7637 84.7241ZM44.127 84.6479C44.4655 84.6479 44.7406 84.5549 44.9521 84.3687C45.1637 84.1825 45.2738 83.9349 45.2822 83.626H47.0024C46.9982 84.0915 46.8713 84.5189 46.6216 84.9082C46.3719 85.2933 46.0291 85.5938 45.5933 85.8096C45.1616 86.0212 44.6834 86.127 44.1587 86.127C43.1769 86.127 42.4025 85.8159 41.8354 85.1938C41.2684 84.5675 40.9849 83.7043 40.9849 82.604V82.4834C40.9849 81.4255 41.2663 80.5812 41.8291 79.9507C42.3919 79.3201 43.1642 79.0049 44.146 79.0049C45.005 79.0049 45.6927 79.2503 46.209 79.7412C46.7295 80.2279 46.994 80.8774 47.0024 81.6899H45.2822C45.2738 81.3345 45.1637 81.0467 44.9521 80.8267C44.7406 80.6024 44.4613 80.4902 44.1143 80.4902C43.6868 80.4902 43.3631 80.6468 43.1431 80.96C42.9272 81.2689 42.8193 81.7725 42.8193 82.4707V82.6611C42.8193 83.3678 42.9272 83.8757 43.1431 84.1846C43.3589 84.4935 43.6868 84.6479 44.127 84.6479ZM50.2461 77.4434V79.1318H51.4204V80.4775H50.2461V83.9053C50.2461 84.1592 50.2948 84.3411 50.3921 84.4512C50.4894 84.5612 50.6756 84.6162 50.9507 84.6162C51.1538 84.6162 51.3337 84.6014 51.4902 84.5718V85.9619C51.1305 86.0719 50.7603 86.127 50.3794 86.127C49.0929 86.127 48.437 85.4774 48.4116 84.1782V80.4775H47.4087V79.1318H48.4116V77.4434H50.2461ZM59.793 85.3018C59.3402 85.8519 58.7139 86.127 57.9141 86.127C57.1777 86.127 56.6149 85.9154 56.2256 85.4922C55.8405 85.069 55.6437 84.4491 55.6353 83.6323V79.1318H57.4697V83.5688C57.4697 84.284 57.7956 84.6416 58.4473 84.6416C59.0693 84.6416 59.4967 84.4258 59.7295 83.9941V79.1318H61.5703V86H59.8438L59.793 85.3018ZM66.6738 84.1021C66.6738 83.8778 66.5617 83.7021 66.3374 83.5752C66.1174 83.444 65.7619 83.3276 65.271 83.2261C63.6375 82.8833 62.8208 82.1893 62.8208 81.144C62.8208 80.5347 63.0726 80.0269 63.5762 79.6206C64.084 79.2101 64.7463 79.0049 65.563 79.0049C66.4347 79.0049 67.1309 79.2101 67.6514 79.6206C68.1761 80.0311 68.4385 80.5643 68.4385 81.2202H66.604C66.604 80.9578 66.5194 80.742 66.3501 80.5728C66.1808 80.3993 65.9163 80.3125 65.5566 80.3125C65.2477 80.3125 65.0086 80.3823 64.8394 80.522C64.6701 80.6616 64.5854 80.8394 64.5854 81.0552C64.5854 81.2583 64.6807 81.4233 64.8711 81.5503C65.0658 81.673 65.3916 81.7809 65.8486 81.874C66.3057 81.9629 66.6908 82.0645 67.0039 82.1787C67.973 82.5342 68.4575 83.1499 68.4575 84.0259C68.4575 84.6522 68.1888 85.16 67.6514 85.5493C67.1139 85.9344 66.4199 86.127 65.5693 86.127C64.9938 86.127 64.4818 86.0254 64.0332 85.8223C63.5889 85.6149 63.2397 85.3335 62.9858 84.978C62.7319 84.6183 62.605 84.2311 62.605 83.8164H64.3442C64.3612 84.1423 64.4818 84.3919 64.7061 84.5654C64.9303 84.7389 65.2308 84.8257 65.6074 84.8257C65.9587 84.8257 66.2231 84.7601 66.4009 84.6289C66.5828 84.4935 66.6738 84.3179 66.6738 84.1021Z" fill="white"/>
<g clip-path="url(#clip0)">
<path d="M49.9328 19.4153L15.9641 39.3631C13.1551 41.0177 13.4587 45.1908 16.4872 46.4056L25.8936 50.2117L25.9482 57.1349C25.9782 60.941 30.8467 62.4695 33.0704 59.4249L36.625 54.5487L45.8339 58.2661C46.3194 58.4591 46.8288 58.5535 47.3374 58.5495C48.01 58.5442 48.6731 58.3667 49.2692 58.0257C50.3145 57.4268 51.0281 56.3711 51.2074 55.1802L55.8295 23.3803C56.304 20.087 52.7582 17.7606 49.9328 19.4153V19.4153ZM29.8856 57.1039L29.8438 51.8048L32.8558 53.0198L29.8856 57.1039ZM47.3063 54.6121L34.6493 49.5028L46.0188 32.8177C46.8865 31.5393 45.2179 30.0759 44.0611 31.094L26.8312 46.3487L17.9596 42.7599L51.9284 22.804L47.3063 54.6121Z" fill="white"/>
</g>
<defs>
<linearGradient id="paint0_linear" x1="37" y1="0" x2="37" y2="99" gradientUnits="userSpaceOnUse">
<stop offset="0.59375" stop-color="#1F001A"/>
<stop offset="1" stop-opacity="0"/>
</linearGradient>
<clipPath id="clip0">
<rect x="14" y="19" width="42" height="42" fill="white"/>
</clipPath>
</defs>
</svg>
