<svg width="17" height="23" viewBox="0 0 17 23" fill="none" xmlns="http://www.w3.org/2000/svg">
<path d="M5.73828 6.28125C5.52734 6.53385 5.22917 6.73047 4.84375 6.87109C4.45833 7.00911 4.03125 7.07812 3.5625 7.07812C3.07031 7.07812 2.63802 6.97135 2.26562 6.75781C1.89583 6.54167 1.60938 6.22917 1.40625 5.82031C1.20573 5.41146 1.10286 4.93099 1.09766 4.37891V3.99219C1.09766 3.42448 1.19271 2.93359 1.38281 2.51953C1.57552 2.10286 1.85156 1.78516 2.21094 1.56641C2.57292 1.34505 2.99609 1.23438 3.48047 1.23438C4.15495 1.23438 4.68229 1.39583 5.0625 1.71875C5.44271 2.03906 5.66797 2.50651 5.73828 3.12109H4.59766C4.54557 2.79557 4.42969 2.55729 4.25 2.40625C4.07292 2.25521 3.82812 2.17969 3.51562 2.17969C3.11719 2.17969 2.8138 2.32943 2.60547 2.62891C2.39714 2.92839 2.29167 3.3737 2.28906 3.96484V4.32812C2.28906 4.92448 2.40234 5.375 2.62891 5.67969C2.85547 5.98438 3.1875 6.13672 3.625 6.13672C4.0651 6.13672 4.37891 6.04297 4.56641 5.85547V4.875H3.5V4.01172H5.73828V6.28125ZM7.86328 4.99609V7H6.69141V1.3125H8.91016C9.33724 1.3125 9.71224 1.39062 10.0352 1.54688C10.3607 1.70312 10.6107 1.92578 10.7852 2.21484C10.9596 2.5013 11.0469 2.82812 11.0469 3.19531C11.0469 3.7526 10.8555 4.19271 10.4727 4.51562C10.0924 4.83594 9.5651 4.99609 8.89062 4.99609H7.86328ZM7.86328 4.04688H8.91016C9.22005 4.04688 9.45573 3.97396 9.61719 3.82812C9.78125 3.68229 9.86328 3.47396 9.86328 3.20312C9.86328 2.92448 9.78125 2.69922 9.61719 2.52734C9.45312 2.35547 9.22656 2.26693 8.9375 2.26172H7.86328V4.04688ZM14.8047 5.50781C14.8047 5.28646 14.7266 5.11719 14.5703 5C14.4141 4.88021 14.1328 4.75521 13.7266 4.625C13.3203 4.49219 12.9987 4.36198 12.7617 4.23438C12.1159 3.88542 11.793 3.41536 11.793 2.82422C11.793 2.51693 11.8789 2.24349 12.0508 2.00391C12.2253 1.76172 12.474 1.57292 12.7969 1.4375C13.1224 1.30208 13.487 1.23438 13.8906 1.23438C14.2969 1.23438 14.6589 1.30859 14.9766 1.45703C15.2943 1.60286 15.5404 1.8099 15.7148 2.07812C15.8919 2.34635 15.9805 2.65104 15.9805 2.99219H14.8086C14.8086 2.73177 14.7266 2.52995 14.5625 2.38672C14.3984 2.24089 14.168 2.16797 13.8711 2.16797C13.5846 2.16797 13.362 2.22917 13.2031 2.35156C13.0443 2.47135 12.9648 2.63021 12.9648 2.82812C12.9648 3.01302 13.0573 3.16797 13.2422 3.29297C13.4297 3.41797 13.7044 3.53516 14.0664 3.64453C14.7331 3.84505 15.2188 4.09375 15.5234 4.39062C15.8281 4.6875 15.9805 5.05729 15.9805 5.5C15.9805 5.99219 15.7943 6.37891 15.4219 6.66016C15.0495 6.9388 14.5482 7.07812 13.918 7.07812C13.4805 7.07812 13.082 6.9987 12.7227 6.83984C12.3633 6.67839 12.0885 6.45833 11.8984 6.17969C11.7109 5.90104 11.6172 5.57812 11.6172 5.21094H12.793C12.793 5.83854 13.168 6.15234 13.918 6.15234C14.1966 6.15234 14.4141 6.09635 14.5703 5.98438C14.7266 5.86979 14.8047 5.71094 14.8047 5.50781Z" fill="white"/>
<path d="M8.48615 22.7175C4.70234 16.9579 4 16.3668 4 14.25C4 11.3505 6.23857 9 9 9C11.7614 9 14 11.3505 14 14.25C14 16.3668 13.2977 16.9579 9.51385 22.7175C9.26555 23.0942 8.73443 23.0941 8.48615 22.7175ZM9 16.4375C10.1506 16.4375 11.0833 15.4581 11.0833 14.25C11.0833 13.0419 10.1506 12.0625 9 12.0625C7.8494 12.0625 6.91667 13.0419 6.91667 14.25C6.91667 15.4581 7.8494 16.4375 9 16.4375Z" fill="white"/>
</svg>
