<svg width="74" height="99" viewBox="0 0 74 99" fill="none" xmlns="http://www.w3.org/2000/svg">
<path d="M0 13C0 5.8203 5.8203 0 13 0H37H61C68.1797 0 74 5.8203 74 13V86C74 93.1797 68.1797 99 61 99H13C5.8203 99 0 93.1797 0 86V13Z" fill="url(#paint0_linear)" fill-opacity="0.45"/>
<g clip-path="url(#clip0)">
<path d="M34.5612 52.2333C23.9666 36.6 22 34.9955 22 29.25C22 21.3799 28.268 15 36 15C43.732 15 50 21.3799 50 29.25C50 34.9955 48.0334 36.6 37.4388 52.2333C36.7435 53.2556 35.2564 53.2555 34.5612 52.2333ZM36 35.1875C39.2217 35.1875 41.8333 32.5292 41.8333 29.25C41.8333 25.9708 39.2217 23.3125 36 23.3125C32.7783 23.3125 30.1667 25.9708 30.1667 29.25C30.1667 32.5292 32.7783 35.1875 36 35.1875Z" fill="white"/>
</g>
<path d="M11.7964 68.4702H15.8398V70H9.89209V60.7578H11.7964V68.4702ZM16.5317 66.5024C16.5317 65.8211 16.6629 65.2139 16.9253 64.6807C17.1877 64.1475 17.5643 63.7349 18.0552 63.4429C18.5503 63.1509 19.1237 63.0049 19.7754 63.0049C20.7021 63.0049 21.4575 63.2884 22.0415 63.8555C22.6297 64.4225 22.9577 65.1927 23.0254 66.166L23.0381 66.6357C23.0381 67.6895 22.744 68.5358 22.1558 69.1748C21.5675 69.8096 20.7783 70.127 19.7881 70.127C18.7979 70.127 18.0065 69.8096 17.4141 69.1748C16.8258 68.54 16.5317 67.6768 16.5317 66.585V66.5024ZM18.3662 66.6357C18.3662 67.2874 18.4889 67.7868 18.7344 68.1338C18.9798 68.4766 19.3311 68.6479 19.7881 68.6479C20.2324 68.6479 20.5794 68.4787 20.8291 68.1401C21.0788 67.7974 21.2036 67.2515 21.2036 66.5024C21.2036 65.8634 21.0788 65.3683 20.8291 65.0171C20.5794 64.6659 20.2282 64.4902 19.7754 64.4902C19.3268 64.4902 18.9798 64.6659 18.7344 65.0171C18.4889 65.3641 18.3662 65.9036 18.3662 66.6357ZM27.0244 68.6479C27.363 68.6479 27.638 68.5549 27.8496 68.3687C28.0612 68.1825 28.1712 67.9349 28.1797 67.626H29.8999C29.8957 68.0915 29.7687 68.5189 29.519 68.9082C29.2694 69.2933 28.9266 69.5938 28.4907 69.8096C28.0591 70.0212 27.5809 70.127 27.0562 70.127C26.0744 70.127 25.3 69.8159 24.7329 69.1938C24.1659 68.5675 23.8823 67.7043 23.8823 66.604V66.4834C23.8823 65.4255 24.1637 64.5812 24.7266 63.9507C25.2894 63.3201 26.0617 63.0049 27.0435 63.0049C27.9025 63.0049 28.5902 63.2503 29.1064 63.7412C29.627 64.2279 29.8914 64.8774 29.8999 65.6899H28.1797C28.1712 65.3345 28.0612 65.0467 27.8496 64.8267C27.638 64.6024 27.3587 64.4902 27.0117 64.4902C26.5843 64.4902 26.2606 64.6468 26.0405 64.96C25.8247 65.2689 25.7168 65.7725 25.7168 66.4707V66.6611C25.7168 67.3678 25.8247 67.8757 26.0405 68.1846C26.2563 68.4935 26.5843 68.6479 27.0244 68.6479ZM34.9272 70C34.8426 69.835 34.7812 69.6297 34.7432 69.3843C34.2988 69.8794 33.7212 70.127 33.0103 70.127C32.3374 70.127 31.7788 69.9323 31.3345 69.543C30.8944 69.1536 30.6743 68.6628 30.6743 68.0703C30.6743 67.3424 30.943 66.7839 31.4805 66.3945C32.0221 66.0052 32.8029 65.8084 33.8228 65.8042H34.667V65.4106C34.667 65.0933 34.5845 64.8394 34.4194 64.6489C34.2586 64.4585 34.0026 64.3633 33.6514 64.3633C33.3424 64.3633 33.0991 64.4373 32.9214 64.5854C32.7479 64.7336 32.6611 64.9367 32.6611 65.1948H30.8267C30.8267 64.797 30.9494 64.4289 31.1948 64.0903C31.4403 63.7518 31.7873 63.4873 32.2358 63.2969C32.6844 63.1022 33.188 63.0049 33.7466 63.0049C34.5929 63.0049 35.2637 63.2186 35.7588 63.646C36.2581 64.0692 36.5078 64.6659 36.5078 65.436V68.4131C36.512 69.0648 36.603 69.5578 36.7808 69.8921V70H34.9272ZM33.4102 68.7241C33.681 68.7241 33.9307 68.6649 34.1592 68.5464C34.3877 68.4237 34.557 68.2607 34.667 68.0576V66.877H33.9814C33.0632 66.877 32.5744 67.1943 32.5151 67.8291L32.5088 67.937C32.5088 68.1655 32.5892 68.3538 32.75 68.502C32.9108 68.6501 33.1309 68.7241 33.4102 68.7241ZM40.1133 61.4434V63.1318H41.2876V64.4775H40.1133V67.9053C40.1133 68.1592 40.1619 68.3411 40.2593 68.4512C40.3566 68.5612 40.5428 68.6162 40.8179 68.6162C41.021 68.6162 41.2008 68.6014 41.3574 68.5718V69.9619C40.9977 70.0719 40.6274 70.127 40.2466 70.127C38.9601 70.127 38.3042 69.4774 38.2788 68.1782V64.4775H37.2759V63.1318H38.2788V61.4434H40.1133ZM44.2456 70H42.4048V63.1318H44.2456V70ZM42.2969 61.3545C42.2969 61.0794 42.3879 60.853 42.5698 60.6753C42.756 60.4976 43.0078 60.4087 43.3252 60.4087C43.6383 60.4087 43.888 60.4976 44.0742 60.6753C44.2604 60.853 44.3535 61.0794 44.3535 61.3545C44.3535 61.6338 44.2583 61.8623 44.0679 62.04C43.8817 62.2178 43.6341 62.3066 43.3252 62.3066C43.0163 62.3066 42.7666 62.2178 42.5762 62.04C42.39 61.8623 42.2969 61.6338 42.2969 61.3545ZM45.4771 66.5024C45.4771 65.8211 45.6082 65.2139 45.8706 64.6807C46.133 64.1475 46.5096 63.7349 47.0005 63.4429C47.4956 63.1509 48.069 63.0049 48.7207 63.0049C49.6475 63.0049 50.4028 63.2884 50.9868 63.8555C51.575 64.4225 51.903 65.1927 51.9707 66.166L51.9834 66.6357C51.9834 67.6895 51.6893 68.5358 51.1011 69.1748C50.5129 69.8096 49.7236 70.127 48.7334 70.127C47.7432 70.127 46.9518 69.8096 46.3594 69.1748C45.7712 68.54 45.4771 67.6768 45.4771 66.585V66.5024ZM47.3115 66.6357C47.3115 67.2874 47.4342 67.7868 47.6797 68.1338C47.9251 68.4766 48.2764 68.6479 48.7334 68.6479C49.1777 68.6479 49.5247 68.4787 49.7744 68.1401C50.0241 67.7974 50.1489 67.2515 50.1489 66.5024C50.1489 65.8634 50.0241 65.3683 49.7744 65.0171C49.5247 64.6659 49.1735 64.4902 48.7207 64.4902C48.2721 64.4902 47.9251 64.6659 47.6797 65.0171C47.4342 65.3641 47.3115 65.9036 47.3115 66.6357ZM54.8018 63.1318L54.8589 63.9253C55.3498 63.3117 56.0078 63.0049 56.833 63.0049C57.5609 63.0049 58.1025 63.2186 58.458 63.646C58.8135 64.0734 58.9954 64.7124 59.0039 65.563V70H57.1694V65.6074C57.1694 65.2181 57.0848 64.9367 56.9155 64.7632C56.7463 64.5854 56.4648 64.4966 56.0713 64.4966C55.555 64.4966 55.1678 64.7166 54.9097 65.1567V70H53.0752V63.1318H54.8018ZM17.2808 82.5752C17.2808 82.2155 17.1538 81.9404 16.8999 81.75C16.646 81.5553 16.189 81.3522 15.5288 81.1406C14.8687 80.9248 14.346 80.7132 13.9609 80.5059C12.9115 79.9388 12.3867 79.175 12.3867 78.2144C12.3867 77.715 12.5264 77.2707 12.8057 76.8813C13.0892 76.4878 13.4933 76.181 14.0181 75.9609C14.547 75.7409 15.1395 75.6309 15.7954 75.6309C16.4556 75.6309 17.0438 75.7515 17.5601 75.9927C18.0763 76.2297 18.4762 76.5661 18.7598 77.002C19.0475 77.4378 19.1914 77.9329 19.1914 78.4873H17.2871C17.2871 78.0641 17.1538 77.7362 16.8872 77.5034C16.6206 77.2664 16.2461 77.1479 15.7637 77.1479C15.2982 77.1479 14.9364 77.2474 14.6782 77.4463C14.4201 77.641 14.291 77.8991 14.291 78.2207C14.291 78.5212 14.4412 78.7729 14.7417 78.9761C15.0464 79.1792 15.4928 79.3696 16.0811 79.5474C17.1644 79.8732 17.9536 80.2773 18.4487 80.7598C18.9438 81.2422 19.1914 81.8431 19.1914 82.5625C19.1914 83.3623 18.8888 83.9907 18.2837 84.4478C17.6785 84.9006 16.8639 85.127 15.8398 85.127C15.1289 85.127 14.4814 84.9979 13.8975 84.7397C13.3135 84.4774 12.867 84.1198 12.5581 83.667C12.2534 83.2142 12.1011 82.6895 12.1011 82.0928H14.0117C14.0117 83.1126 14.6211 83.6226 15.8398 83.6226C16.2926 83.6226 16.646 83.5316 16.8999 83.3496C17.1538 83.1634 17.2808 82.9053 17.2808 82.5752ZM23.5269 85.127C22.5197 85.127 21.6987 84.818 21.064 84.2002C20.4334 83.5824 20.1182 82.7593 20.1182 81.731V81.5532C20.1182 80.8634 20.2515 80.2477 20.5181 79.7061C20.7847 79.1602 21.1613 78.7412 21.6479 78.4492C22.1388 78.153 22.6974 78.0049 23.3237 78.0049C24.2632 78.0049 25.0016 78.3011 25.5391 78.8936C26.0807 79.486 26.3516 80.326 26.3516 81.4136V82.1626H21.978C22.0373 82.6112 22.215 82.9709 22.5112 83.2417C22.8117 83.5125 23.1904 83.6479 23.6475 83.6479C24.3542 83.6479 24.9064 83.3919 25.3042 82.8799L26.2056 83.8892C25.9305 84.2785 25.5581 84.5832 25.0884 84.8032C24.6187 85.019 24.0981 85.127 23.5269 85.127ZM23.3174 79.4902C22.9535 79.4902 22.6572 79.613 22.4287 79.8584C22.2044 80.1038 22.0605 80.4551 21.9971 80.9121H24.5488V80.7661C24.5404 80.3599 24.4303 80.0467 24.2188 79.8267C24.0072 79.6024 23.7067 79.4902 23.3174 79.4902ZM29.5952 76.4434V78.1318H30.7695V79.4775H29.5952V82.9053C29.5952 83.1592 29.6439 83.3411 29.7412 83.4512C29.8385 83.5612 30.0247 83.6162 30.2998 83.6162C30.5029 83.6162 30.6828 83.6014 30.8394 83.5718V84.9619C30.4797 85.0719 30.1094 85.127 29.7285 85.127C28.4421 85.127 27.7861 84.4774 27.7607 83.1782V79.4775H26.7578V78.1318H27.7607V76.4434H29.5952ZM33.9878 76.4434V78.1318H35.1621V79.4775H33.9878V82.9053C33.9878 83.1592 34.0365 83.3411 34.1338 83.4512C34.2311 83.5612 34.4173 83.6162 34.6924 83.6162C34.8955 83.6162 35.0754 83.6014 35.2319 83.5718V84.9619C34.8722 85.0719 34.502 85.127 34.1211 85.127C32.8346 85.127 32.1787 84.4774 32.1533 83.1782V79.4775H31.1504V78.1318H32.1533V76.4434H33.9878ZM38.1201 85H36.2793V78.1318H38.1201V85ZM36.1714 76.3545C36.1714 76.0794 36.2624 75.853 36.4443 75.6753C36.6305 75.4976 36.8823 75.4087 37.1997 75.4087C37.5129 75.4087 37.7625 75.4976 37.9487 75.6753C38.1349 75.853 38.228 76.0794 38.228 76.3545C38.228 76.6338 38.1328 76.8623 37.9424 77.04C37.7562 77.2178 37.5086 77.3066 37.1997 77.3066C36.8908 77.3066 36.6411 77.2178 36.4507 77.04C36.2645 76.8623 36.1714 76.6338 36.1714 76.3545ZM41.3257 78.1318L41.3828 78.9253C41.8737 78.3117 42.5317 78.0049 43.3569 78.0049C44.0848 78.0049 44.6265 78.2186 44.9819 78.646C45.3374 79.0734 45.5194 79.7124 45.5278 80.563V85H43.6934V80.6074C43.6934 80.2181 43.6087 79.9367 43.4395 79.7632C43.2702 79.5854 42.9888 79.4966 42.5952 79.4966C42.0789 79.4966 41.6917 79.7166 41.4336 80.1567V85H39.5991V78.1318H41.3257ZM46.6577 81.5151C46.6577 80.4614 46.9074 79.613 47.4067 78.9697C47.9103 78.3265 48.5874 78.0049 49.438 78.0049C50.1912 78.0049 50.7773 78.263 51.1963 78.7793L51.2725 78.1318H52.9355V84.7715C52.9355 85.3724 52.798 85.895 52.5229 86.3394C52.2521 86.7837 51.8691 87.1222 51.374 87.355C50.8789 87.5877 50.2992 87.7041 49.6348 87.7041C49.1312 87.7041 48.6403 87.6025 48.1621 87.3994C47.6839 87.2005 47.3221 86.9424 47.0767 86.625L47.8892 85.5078C48.3462 86.0199 48.9006 86.2759 49.5522 86.2759C50.0389 86.2759 50.4176 86.1447 50.6885 85.8823C50.9593 85.6242 51.0947 85.256 51.0947 84.7778V84.4097C50.6715 84.8879 50.1151 85.127 49.4253 85.127C48.6001 85.127 47.9315 84.8053 47.4194 84.1621C46.9116 83.5146 46.6577 82.6577 46.6577 81.5913V81.5151ZM48.4922 81.6484C48.4922 82.2705 48.617 82.7593 48.8667 83.1147C49.1164 83.466 49.4591 83.6416 49.895 83.6416C50.4536 83.6416 50.8535 83.4321 51.0947 83.0132V80.125C50.8493 79.7061 50.4536 79.4966 49.9077 79.4966C49.4676 79.4966 49.1206 79.6764 48.8667 80.0361C48.617 80.3958 48.4922 80.9333 48.4922 81.6484ZM58.0708 83.1021C58.0708 82.8778 57.9587 82.7021 57.7344 82.5752C57.5143 82.444 57.1589 82.3276 56.668 82.2261C55.0345 81.8833 54.2178 81.1893 54.2178 80.144C54.2178 79.5347 54.4696 79.0269 54.9731 78.6206C55.481 78.2101 56.1432 78.0049 56.96 78.0049C57.8317 78.0049 58.5278 78.2101 59.0483 78.6206C59.5731 79.0311 59.8354 79.5643 59.8354 80.2202H58.001C58.001 79.9578 57.9163 79.742 57.7471 79.5728C57.5778 79.3993 57.3133 79.3125 56.9536 79.3125C56.6447 79.3125 56.4056 79.3823 56.2363 79.522C56.0671 79.6616 55.9824 79.8394 55.9824 80.0552C55.9824 80.2583 56.0776 80.4233 56.2681 80.5503C56.4627 80.673 56.7886 80.7809 57.2456 80.874C57.7026 80.9629 58.0877 81.0645 58.4009 81.1787C59.37 81.5342 59.8545 82.1499 59.8545 83.0259C59.8545 83.6522 59.5858 84.16 59.0483 84.5493C58.5109 84.9344 57.8169 85.127 56.9663 85.127C56.3908 85.127 55.8787 85.0254 55.4302 84.8223C54.9858 84.6149 54.6367 84.3335 54.3828 83.978C54.1289 83.6183 54.002 83.2311 54.002 82.8164H55.7412C55.7581 83.1423 55.8787 83.3919 56.103 83.5654C56.3273 83.7389 56.6278 83.8257 57.0044 83.8257C57.3556 83.8257 57.6201 83.7601 57.7979 83.6289C57.9798 83.4935 58.0708 83.3179 58.0708 83.1021Z" fill="white"/>
<defs>
<linearGradient id="paint0_linear" x1="37" y1="0" x2="37" y2="99" gradientUnits="userSpaceOnUse">
<stop offset="0.59375" stop-color="#1F001A"/>
<stop offset="1" stop-opacity="0"/>
</linearGradient>
<clipPath id="clip0">
<rect x="22" y="15" width="28" height="38" fill="white"/>
</clipPath>
</defs>
</svg>
