<svg width="74" height="99" viewBox="0 0 74 99" fill="none" xmlns="http://www.w3.org/2000/svg">
<path d="M0 13C0 5.8203 5.8203 0 13 0H37H61C68.1797 0 74 5.8203 74 13V86C74 93.1797 68.1797 99 61 99H13C5.8203 99 0 93.1797 0 86V13Z" fill="url(#paint0_linear)" fill-opacity="0.45"/>
<path d="M16.8779 85.4702H20.9214V87H14.9736V77.7578H16.8779V85.4702ZM21.6133 83.5024C21.6133 82.8211 21.7445 82.2139 22.0068 81.6807C22.2692 81.1475 22.6458 80.7349 23.1367 80.4429C23.6318 80.1509 24.2052 80.0049 24.8569 80.0049C25.7837 80.0049 26.5391 80.2884 27.123 80.8555C27.7113 81.4225 28.0392 82.1927 28.1069 83.166L28.1196 83.6357C28.1196 84.6895 27.8255 85.5358 27.2373 86.1748C26.6491 86.8096 25.8599 87.127 24.8696 87.127C23.8794 87.127 23.0881 86.8096 22.4956 86.1748C21.9074 85.54 21.6133 84.6768 21.6133 83.585V83.5024ZM23.4478 83.6357C23.4478 84.2874 23.5705 84.7868 23.8159 85.1338C24.0614 85.4766 24.4126 85.6479 24.8696 85.6479C25.314 85.6479 25.661 85.4787 25.9106 85.1401C26.1603 84.7974 26.2852 84.2515 26.2852 83.5024C26.2852 82.8634 26.1603 82.3683 25.9106 82.0171C25.661 81.6659 25.3097 81.4902 24.8569 81.4902C24.4084 81.4902 24.0614 81.6659 23.8159 82.0171C23.5705 82.3641 23.4478 82.9036 23.4478 83.6357ZM28.9829 83.5151C28.9829 82.4614 29.2326 81.613 29.7319 80.9697C30.2355 80.3265 30.9126 80.0049 31.7632 80.0049C32.5164 80.0049 33.1025 80.263 33.5215 80.7793L33.5977 80.1318H35.2607V86.7715C35.2607 87.3724 35.1232 87.895 34.8481 88.3394C34.5773 88.7837 34.1943 89.1222 33.6992 89.355C33.2041 89.5877 32.6243 89.7041 31.96 89.7041C31.4564 89.7041 30.9655 89.6025 30.4873 89.3994C30.0091 89.2005 29.6473 88.9424 29.4019 88.625L30.2144 87.5078C30.6714 88.0199 31.2257 88.2759 31.8774 88.2759C32.3641 88.2759 32.7428 88.1447 33.0137 87.8823C33.2845 87.6242 33.4199 87.256 33.4199 86.7778V86.4097C32.9967 86.8879 32.4403 87.127 31.7505 87.127C30.9253 87.127 30.2567 86.8053 29.7446 86.1621C29.2368 85.5146 28.9829 84.6577 28.9829 83.5913V83.5151ZM30.8174 83.6484C30.8174 84.2705 30.9422 84.7593 31.1919 85.1147C31.4416 85.466 31.7843 85.6416 32.2202 85.6416C32.7788 85.6416 33.1787 85.4321 33.4199 85.0132V82.125C33.1745 81.7061 32.7788 81.4966 32.2329 81.4966C31.7928 81.4966 31.4458 81.6764 31.1919 82.0361C30.9422 82.3958 30.8174 82.9333 30.8174 83.6484ZM47.626 82.5884C47.626 83.4982 47.4652 84.2959 47.1436 84.9814C46.8219 85.667 46.3607 86.196 45.7598 86.5684C45.1631 86.9408 44.4775 87.127 43.7031 87.127C42.9372 87.127 42.2537 86.9429 41.6528 86.5747C41.0519 86.2065 40.5864 85.6818 40.2563 85.0005C39.9263 84.3149 39.7591 83.5278 39.7549 82.6392V82.1821C39.7549 81.2723 39.9178 80.4725 40.2437 79.7827C40.5737 79.0887 41.0371 78.5576 41.6338 78.1895C42.2347 77.8171 42.9202 77.6309 43.6904 77.6309C44.4606 77.6309 45.144 77.8171 45.7407 78.1895C46.3416 78.5576 46.805 79.0887 47.1309 79.7827C47.4609 80.4725 47.626 81.2702 47.626 82.1758V82.5884ZM45.6963 82.1694C45.6963 81.2004 45.5228 80.464 45.1758 79.9604C44.8288 79.4569 44.3337 79.2051 43.6904 79.2051C43.0514 79.2051 42.5584 79.4548 42.2114 79.9541C41.8644 80.4492 41.6888 81.1771 41.6846 82.1377V82.5884C41.6846 83.5321 41.8581 84.2642 42.2051 84.7847C42.5521 85.3052 43.0514 85.5654 43.7031 85.5654C44.3421 85.5654 44.833 85.3158 45.1758 84.8164C45.5186 84.3128 45.6921 83.5807 45.6963 82.6201V82.1694ZM53.0024 86.3018C52.5496 86.8519 51.9233 87.127 51.1235 87.127C50.3872 87.127 49.8244 86.9154 49.4351 86.4922C49.05 86.069 48.8532 85.4491 48.8447 84.6323V80.1318H50.6792V84.5688C50.6792 85.284 51.005 85.6416 51.6567 85.6416C52.2788 85.6416 52.7062 85.4258 52.939 84.9941V80.1318H54.7798V87H53.0532L53.0024 86.3018ZM58.3599 78.4434V80.1318H59.5342V81.4775H58.3599V84.9053C58.3599 85.1592 58.4085 85.3411 58.5059 85.4512C58.6032 85.5612 58.7894 85.6162 59.0645 85.6162C59.2676 85.6162 59.4474 85.6014 59.604 85.5718V86.9619C59.2443 87.0719 58.874 87.127 58.4932 87.127C57.2067 87.127 56.5508 86.4774 56.5254 85.1782V81.4775H55.5225V80.1318H56.5254V78.4434H58.3599Z" fill="white"/>
<path d="M60.6524 38.7793L45.5586 53.873C44.2109 55.2207 41.875 54.2773 41.875 52.3457V43.7207H29.6563C28.4613 43.7207 27.5 42.7593 27.5 41.5644V32.9394C27.5 31.7445 28.4613 30.7832 29.6563 30.7832H41.875V22.1582C41.875 20.2355 44.202 19.2832 45.5586 20.6308L60.6524 35.7246C61.4879 36.5691 61.4879 37.9347 60.6524 38.7793ZM33.25 53.4238V49.83C33.25 49.2371 32.7648 48.7519 32.1719 48.7519H24.625C23.0348 48.7519 21.75 47.4671 21.75 45.8769V28.6269C21.75 27.0367 23.0348 25.7519 24.625 25.7519H32.1719C32.7648 25.7519 33.25 25.2668 33.25 24.6738V21.08C33.25 20.4871 32.7648 20.0019 32.1719 20.0019H24.625C19.8633 20.0019 16 23.8652 16 28.6269V45.8769C16 50.6386 19.8633 54.5019 24.625 54.5019H32.1719C32.7648 54.5019 33.25 54.0167 33.25 53.4238Z" fill="white"/>
<defs>
<linearGradient id="paint0_linear" x1="37" y1="0" x2="37" y2="99" gradientUnits="userSpaceOnUse">
<stop offset="0.59375" stop-color="#1F001A"/>
<stop offset="1" stop-opacity="0"/>
</linearGradient>
</defs>
</svg>
