<svg width="17" height="15" viewBox="0 0 17 15" fill="none" xmlns="http://www.w3.org/2000/svg">
<path d="M16.3929 2.7551H0.607143C0.271811 2.7551 0 2.48101 0 2.14286V0.612245C0 0.274094 0.271811 0 0.607143 0H16.3929C16.7282 0 17 0.274094 17 0.612245V2.14286C17 2.48101 16.7282 2.7551 16.3929 2.7551ZM16.3929 8.87755H0.607143C0.271811 8.87755 0 8.60346 0 8.26531V6.73469C0 6.39654 0.271811 6.12245 0.607143 6.12245H16.3929C16.7282 6.12245 17 6.39654 17 6.73469V8.26531C17 8.60346 16.7282 8.87755 16.3929 8.87755ZM16.3929 15H0.607143C0.271811 15 0 14.7259 0 14.3878V12.8571C0 12.519 0.271811 12.2449 0.607143 12.2449H16.3929C16.7282 12.2449 17 12.519 17 12.8571V14.3878C17 14.7259 16.7282 15 16.3929 15Z" fill="white"/>
</svg>
