<svg width="74" height="99" viewBox="0 0 74 99" fill="none" xmlns="http://www.w3.org/2000/svg">
<path d="M0 13C0 5.8203 5.8203 0 13 0H37H61C68.1797 0 74 5.8203 74 13V86C74 93.1797 68.1797 99 61 99H13C5.8203 99 0 93.1797 0 86V13Z" fill="url(#paint0_linear)" fill-opacity="0.45"/>
<path d="M10.3525 67.7578L12.7266 74.4609L15.0879 67.7578H17.5889V77H15.6782V74.4736L15.8687 70.1128L13.374 77H12.0664L9.57812 70.1191L9.76855 74.4736V77H7.86426V67.7578H10.3525ZM22.2925 77.127C21.2853 77.127 20.4644 76.818 19.8296 76.2002C19.1991 75.5824 18.8838 74.7593 18.8838 73.731V73.5532C18.8838 72.8634 19.0171 72.2477 19.2837 71.7061C19.5503 71.1602 19.9269 70.7412 20.4136 70.4492C20.9045 70.153 21.4631 70.0049 22.0894 70.0049C23.0288 70.0049 23.7673 70.3011 24.3047 70.8936C24.8464 71.486 25.1172 72.326 25.1172 73.4136V74.1626H20.7437C20.8029 74.6112 20.9806 74.9709 21.2769 75.2417C21.5773 75.5125 21.9561 75.6479 22.4131 75.6479C23.1198 75.6479 23.672 75.3919 24.0698 74.8799L24.9712 75.8892C24.6961 76.2785 24.3237 76.5832 23.854 76.8032C23.3843 77.019 22.8638 77.127 22.2925 77.127ZM22.083 71.4902C21.7191 71.4902 21.4229 71.613 21.1943 71.8584C20.9701 72.1038 20.8262 72.4551 20.7627 72.9121H23.3145V72.7661C23.306 72.3599 23.196 72.0467 22.9844 71.8267C22.7728 71.6024 22.4723 71.4902 22.083 71.4902ZM29.8843 75.1021C29.8843 74.8778 29.7721 74.7021 29.5479 74.5752C29.3278 74.444 28.9723 74.3276 28.4814 74.2261C26.848 73.8833 26.0312 73.1893 26.0312 72.144C26.0312 71.5347 26.283 71.0269 26.7866 70.6206C27.2944 70.2101 27.9567 70.0049 28.7734 70.0049C29.6452 70.0049 30.3413 70.2101 30.8618 70.6206C31.3866 71.0311 31.6489 71.5643 31.6489 72.2202H29.8145C29.8145 71.9578 29.7298 71.742 29.5605 71.5728C29.3913 71.3993 29.1268 71.3125 28.7671 71.3125C28.4582 71.3125 28.2191 71.3823 28.0498 71.522C27.8805 71.6616 27.7959 71.8394 27.7959 72.0552C27.7959 72.2583 27.8911 72.4233 28.0815 72.5503C28.2762 72.673 28.6021 72.7809 29.0591 72.874C29.5161 72.9629 29.9012 73.0645 30.2144 73.1787C31.1834 73.5342 31.668 74.1499 31.668 75.0259C31.668 75.6522 31.3993 76.16 30.8618 76.5493C30.3244 76.9344 29.6304 77.127 28.7798 77.127C28.2043 77.127 27.6922 77.0254 27.2437 76.8223C26.7993 76.6149 26.4502 76.3335 26.1963 75.978C25.9424 75.6183 25.8154 75.2311 25.8154 74.8164H27.5547C27.5716 75.1423 27.6922 75.3919 27.9165 75.5654C28.1408 75.7389 28.4412 75.8257 28.8179 75.8257C29.1691 75.8257 29.4336 75.7601 29.6113 75.6289C29.7933 75.4935 29.8843 75.3179 29.8843 75.1021ZM36.5747 75.1021C36.5747 74.8778 36.4626 74.7021 36.2383 74.5752C36.0182 74.444 35.6628 74.3276 35.1719 74.2261C33.5384 73.8833 32.7217 73.1893 32.7217 72.144C32.7217 71.5347 32.9735 71.0269 33.4771 70.6206C33.9849 70.2101 34.6471 70.0049 35.4639 70.0049C36.3356 70.0049 37.0317 70.2101 37.5522 70.6206C38.077 71.0311 38.3394 71.5643 38.3394 72.2202H36.5049C36.5049 71.9578 36.4202 71.742 36.251 71.5728C36.0817 71.3993 35.8172 71.3125 35.4575 71.3125C35.1486 71.3125 34.9095 71.3823 34.7402 71.522C34.571 71.6616 34.4863 71.8394 34.4863 72.0552C34.4863 72.2583 34.5815 72.4233 34.772 72.5503C34.9666 72.673 35.2925 72.7809 35.7495 72.874C36.2065 72.9629 36.5916 73.0645 36.9048 73.1787C37.8739 73.5342 38.3584 74.1499 38.3584 75.0259C38.3584 75.6522 38.0897 76.16 37.5522 76.5493C37.0148 76.9344 36.3208 77.127 35.4702 77.127C34.8947 77.127 34.3826 77.0254 33.9341 76.8223C33.4897 76.6149 33.1406 76.3335 32.8867 75.978C32.6328 75.6183 32.5059 75.2311 32.5059 74.8164H34.2451C34.262 75.1423 34.3826 75.3919 34.6069 75.5654C34.8312 75.7389 35.1317 75.8257 35.5083 75.8257C35.8595 75.8257 36.124 75.7601 36.3018 75.6289C36.4837 75.4935 36.5747 75.3179 36.5747 75.1021ZM43.5254 77C43.4408 76.835 43.3794 76.6297 43.3413 76.3843C42.897 76.8794 42.3193 77.127 41.6084 77.127C40.9355 77.127 40.377 76.9323 39.9326 76.543C39.4925 76.1536 39.2725 75.6628 39.2725 75.0703C39.2725 74.3424 39.5412 73.7839 40.0786 73.3945C40.6203 73.0052 41.401 72.8084 42.4209 72.8042H43.2651V72.4106C43.2651 72.0933 43.1826 71.8394 43.0176 71.6489C42.8568 71.4585 42.6007 71.3633 42.2495 71.3633C41.9406 71.3633 41.6973 71.4373 41.5195 71.5854C41.346 71.7336 41.2593 71.9367 41.2593 72.1948H39.4248C39.4248 71.797 39.5475 71.4289 39.793 71.0903C40.0384 70.7518 40.3854 70.4873 40.834 70.2969C41.2826 70.1022 41.7861 70.0049 42.3447 70.0049C43.1911 70.0049 43.8618 70.2186 44.3569 70.646C44.8563 71.0692 45.106 71.6659 45.106 72.436V75.4131C45.1102 76.0648 45.2012 76.5578 45.3789 76.8921V77H43.5254ZM42.0083 75.7241C42.2791 75.7241 42.5288 75.6649 42.7573 75.5464C42.9858 75.4237 43.1551 75.2607 43.2651 75.0576V73.877H42.5796C41.6613 73.877 41.1725 74.1943 41.1133 74.8291L41.1069 74.937C41.1069 75.1655 41.1873 75.3538 41.3481 75.502C41.509 75.6501 41.729 75.7241 42.0083 75.7241ZM46.2485 73.5151C46.2485 72.4614 46.4982 71.613 46.9976 70.9697C47.5011 70.3265 48.1782 70.0049 49.0288 70.0049C49.7821 70.0049 50.3682 70.263 50.7871 70.7793L50.8633 70.1318H52.5264V76.7715C52.5264 77.3724 52.3888 77.895 52.1138 78.3394C51.8429 78.7837 51.46 79.1222 50.9648 79.355C50.4697 79.5877 49.89 79.7041 49.2256 79.7041C48.722 79.7041 48.2311 79.6025 47.7529 79.3994C47.2747 79.2005 46.9129 78.9424 46.6675 78.625L47.48 77.5078C47.937 78.0199 48.4914 78.2759 49.1431 78.2759C49.6297 78.2759 50.0085 78.1447 50.2793 77.8823C50.5501 77.6242 50.6855 77.256 50.6855 76.7778V76.4097C50.2624 76.8879 49.7059 77.127 49.0161 77.127C48.1909 77.127 47.5223 76.8053 47.0103 76.1621C46.5024 75.5146 46.2485 74.6577 46.2485 73.5913V73.5151ZM48.083 73.6484C48.083 74.2705 48.2078 74.7593 48.4575 75.1147C48.7072 75.466 49.05 75.6416 49.4858 75.6416C50.0444 75.6416 50.4443 75.4321 50.6855 75.0132V72.125C50.4401 71.7061 50.0444 71.4966 49.4985 71.4966C49.0584 71.4966 48.7114 71.6764 48.4575 72.0361C48.2078 72.3958 48.083 72.9333 48.083 73.6484ZM57.103 77.127C56.0959 77.127 55.2749 76.818 54.6401 76.2002C54.0096 75.5824 53.6943 74.7593 53.6943 73.731V73.5532C53.6943 72.8634 53.8276 72.2477 54.0942 71.7061C54.3608 71.1602 54.7375 70.7412 55.2241 70.4492C55.715 70.153 56.2736 70.0049 56.8999 70.0049C57.8394 70.0049 58.5778 70.3011 59.1152 70.8936C59.6569 71.486 59.9277 72.326 59.9277 73.4136V74.1626H55.5542C55.6134 74.6112 55.7912 74.9709 56.0874 75.2417C56.3879 75.5125 56.7666 75.6479 57.2236 75.6479C57.9303 75.6479 58.4826 75.3919 58.8804 74.8799L59.7817 75.8892C59.5067 76.2785 59.1343 76.5832 58.6646 76.8032C58.1948 77.019 57.6743 77.127 57.103 77.127ZM56.8936 71.4902C56.5296 71.4902 56.2334 71.613 56.0049 71.8584C55.7806 72.1038 55.6367 72.4551 55.5732 72.9121H58.125V72.7661C58.1165 72.3599 58.0065 72.0467 57.7949 71.8267C57.5833 71.6024 57.2829 71.4902 56.8936 71.4902ZM64.6948 75.1021C64.6948 74.8778 64.5827 74.7021 64.3584 74.5752C64.1383 74.444 63.7829 74.3276 63.292 74.2261C61.6585 73.8833 60.8418 73.1893 60.8418 72.144C60.8418 71.5347 61.0936 71.0269 61.5972 70.6206C62.105 70.2101 62.7673 70.0049 63.584 70.0049C64.4557 70.0049 65.1519 70.2101 65.6724 70.6206C66.1971 71.0311 66.4595 71.5643 66.4595 72.2202H64.625C64.625 71.9578 64.5404 71.742 64.3711 71.5728C64.2018 71.3993 63.9373 71.3125 63.5776 71.3125C63.2687 71.3125 63.0296 71.3823 62.8604 71.522C62.6911 71.6616 62.6064 71.8394 62.6064 72.0552C62.6064 72.2583 62.7017 72.4233 62.8921 72.5503C63.0868 72.673 63.4126 72.7809 63.8696 72.874C64.3267 72.9629 64.7118 73.0645 65.0249 73.1787C65.994 73.5342 66.4785 74.1499 66.4785 75.0259C66.4785 75.6522 66.2098 76.16 65.6724 76.5493C65.1349 76.9344 64.4409 77.127 63.5903 77.127C63.0148 77.127 62.5028 77.0254 62.0542 76.8223C61.6099 76.6149 61.2607 76.3335 61.0068 75.978C60.7529 75.6183 60.626 75.2311 60.626 74.8164H62.3652C62.3822 75.1423 62.5028 75.3919 62.7271 75.5654C62.9513 75.7389 63.2518 75.8257 63.6284 75.8257C63.9797 75.8257 64.2441 75.7601 64.4219 75.6289C64.6038 75.4935 64.6948 75.3179 64.6948 75.1021Z" fill="white"/>
<path d="M51.0362 18.5263H18.9638C16.92 18.5263 15.2632 20.1463 15.2632 22.1447V43.8553C15.2632 45.8537 16.92 47.4737 18.9638 47.4737H51.0362C53.0801 47.4737 54.7369 45.8537 54.7369 43.8553V22.1447C54.7369 20.1463 53.0801 18.5263 51.0362 18.5263ZM51.0362 22.1447V25.2208C49.3075 26.5972 46.5516 28.7375 40.66 33.2484C39.3616 34.247 36.7896 36.6461 35 36.6181C33.2108 36.6464 30.638 34.2466 29.3401 33.2484C23.4493 28.7382 20.6927 26.5974 18.9638 25.2208V22.1447H51.0362ZM18.9638 43.8553V29.8639C20.7304 31.2397 23.2357 33.1704 27.0543 36.094C28.7394 37.391 31.6904 40.2542 35 40.2368C38.2934 40.2542 41.207 37.4326 42.9451 36.0946C46.7636 33.171 49.2695 31.2399 51.0362 29.864V43.8553H18.9638Z" fill="white"/>
<defs>
<linearGradient id="paint0_linear" x1="37" y1="0" x2="37" y2="99" gradientUnits="userSpaceOnUse">
<stop offset="0.59375" stop-color="#1F001A"/>
<stop offset="1" stop-opacity="0"/>
</linearGradient>
</defs>
</svg>
