<svg width="74" height="99" viewBox="0 0 74 99" fill="none" xmlns="http://www.w3.org/2000/svg">
<path d="M0 13C0 5.8203 5.8203 0 13 0H37H61C68.1797 0 74 5.8203 74 13V86C74 93.1797 68.1797 99 61 99H13C5.8203 99 0 93.1797 0 86V13Z" fill="url(#paint0_linear)" fill-opacity="0.45"/>
<path d="M36 37.375C41.9004 37.375 46.6875 32.5879 46.6875 26.6875C46.6875 20.7871 41.9004 16 36 16C30.0996 16 25.3125 20.7871 25.3125 26.6875C25.3125 32.5879 30.0996 37.375 36 37.375ZM45.5 39.75H41.4105C39.7629 40.507 37.9297 40.9375 36 40.9375C34.0703 40.9375 32.2445 40.507 30.5895 39.75H26.5C21.2527 39.75 17 44.0027 17 49.25V50.4375C17 52.4043 18.5957 54 20.5625 54H51.4375C53.4043 54 55 52.4043 55 50.4375V49.25C55 44.0027 50.7473 39.75 45.5 39.75Z" fill="white"/>
<path d="M31.3569 63.7578L33.731 70.4609L36.0923 63.7578H38.5933V73H36.6826V70.4736L36.873 66.1128L34.3784 73H33.0708L30.5825 66.1191L30.7729 70.4736V73H28.8687V63.7578H31.3569ZM42.7002 70.4038L43.9697 66.1318H45.9375L43.1763 74.0664L43.0239 74.4282C42.6134 75.3254 41.9364 75.7739 40.9927 75.7739C40.7261 75.7739 40.4552 75.7337 40.1802 75.6533V74.2632L40.4595 74.2695C40.8065 74.2695 41.0646 74.2166 41.2339 74.1108C41.4074 74.005 41.5428 73.8294 41.6401 73.584L41.856 73.019L39.4502 66.1318H41.4243L42.7002 70.4038ZM20.4009 84.7437V88H18.4966V78.7578H22.1021C22.7961 78.7578 23.4054 78.8848 23.9302 79.1387C24.4591 79.3926 24.8654 79.7544 25.1489 80.2241C25.4325 80.6896 25.5742 81.2207 25.5742 81.8174C25.5742 82.723 25.2632 83.4382 24.6411 83.9629C24.0233 84.4834 23.1663 84.7437 22.0703 84.7437H20.4009ZM20.4009 83.2012H22.1021C22.6056 83.2012 22.9886 83.0827 23.251 82.8457C23.5176 82.6087 23.6509 82.2702 23.6509 81.8301C23.6509 81.3773 23.5176 81.0112 23.251 80.7319C22.9844 80.4526 22.6162 80.3088 22.1465 80.3003H20.4009V83.2012ZM30.627 82.8521C30.3773 82.8182 30.1572 82.8013 29.9668 82.8013C29.2728 82.8013 28.8179 83.0361 28.6021 83.5059V88H26.7676V81.1318H28.5005L28.5513 81.9507C28.9194 81.3201 29.4294 81.0049 30.0811 81.0049C30.2842 81.0049 30.4746 81.0324 30.6523 81.0874L30.627 82.8521ZM31.0015 84.5024C31.0015 83.8211 31.1326 83.2139 31.395 82.6807C31.6574 82.1475 32.034 81.7349 32.5249 81.4429C33.02 81.1509 33.5934 81.0049 34.2451 81.0049C35.1719 81.0049 35.9272 81.2884 36.5112 81.8555C37.0994 82.4225 37.4274 83.1927 37.4951 84.166L37.5078 84.6357C37.5078 85.6895 37.2137 86.5358 36.6255 87.1748C36.0373 87.8096 35.248 88.127 34.2578 88.127C33.2676 88.127 32.4762 87.8096 31.8838 87.1748C31.2956 86.54 31.0015 85.6768 31.0015 84.585V84.5024ZM32.8359 84.6357C32.8359 85.2874 32.9587 85.7868 33.2041 86.1338C33.4495 86.4766 33.8008 86.6479 34.2578 86.6479C34.7021 86.6479 35.0492 86.4787 35.2988 86.1401C35.5485 85.7974 35.6733 85.2515 35.6733 84.5024C35.6733 83.8634 35.5485 83.3683 35.2988 83.0171C35.0492 82.6659 34.6979 82.4902 34.2451 82.4902C33.7965 82.4902 33.4495 82.6659 33.2041 83.0171C32.9587 83.3641 32.8359 83.9036 32.8359 84.6357ZM39.082 88V82.4775H38.0601V81.1318H39.082V80.8145C39.0905 79.9512 39.355 79.2868 39.8755 78.8213C40.4002 78.3516 41.1387 78.1167 42.0908 78.1167C42.6621 78.1167 43.3561 78.2415 44.1729 78.4912L43.9062 80.0083C43.4915 79.8856 43.1699 79.8073 42.9414 79.7734C42.7129 79.7354 42.4674 79.7163 42.2051 79.7163C41.3503 79.7163 40.9229 80.0951 40.9229 80.8525V81.1318H42.2749V82.4775H40.9229V88H39.082ZM45.0298 88H43.189V81.1318H45.0298V88ZM48.4829 88H46.6421V78.25H48.4829V88ZM53.1611 88.127C52.154 88.127 51.333 87.818 50.6982 87.2002C50.0677 86.5824 49.7524 85.7593 49.7524 84.731V84.5532C49.7524 83.8634 49.8857 83.2477 50.1523 82.7061C50.4189 82.1602 50.7956 81.7412 51.2822 81.4492C51.7731 81.153 52.3317 81.0049 52.958 81.0049C53.8975 81.0049 54.6359 81.3011 55.1733 81.8936C55.715 82.486 55.9858 83.326 55.9858 84.4136V85.1626H51.6123C51.6715 85.6112 51.8493 85.9709 52.1455 86.2417C52.446 86.5125 52.8247 86.6479 53.2817 86.6479C53.9884 86.6479 54.5407 86.3919 54.9385 85.8799L55.8398 86.8892C55.5648 87.2785 55.1924 87.5832 54.7227 87.8032C54.2529 88.019 53.7324 88.127 53.1611 88.127ZM52.9517 82.4902C52.5877 82.4902 52.2915 82.613 52.063 82.8584C51.8387 83.1038 51.6948 83.4551 51.6313 83.9121H54.1831V83.7661C54.1746 83.3599 54.0646 83.0467 53.853 82.8267C53.6414 82.6024 53.341 82.4902 52.9517 82.4902Z" fill="url(#paint1_linear)"/>
<defs>
<linearGradient id="paint0_linear" x1="37" y1="0" x2="37" y2="99" gradientUnits="userSpaceOnUse">
<stop offset="0.59375" stop-color="#1F001A"/>
<stop offset="1" stop-opacity="0"/>
</linearGradient>
<linearGradient id="paint1_linear" x1="37" y1="61" x2="37" y2="91" gradientUnits="userSpaceOnUse">
<stop stop-color="white"/>
<stop offset="1" stop-color="white"/>
</linearGradient>
</defs>
</svg>
