<svg width="38" height="56" viewBox="0 0 38 56" fill="none" xmlns="http://www.w3.org/2000/svg">
<path d="M26.2027 19L37.0057 29.803C38.3314 31.1287 38.3314 33.2781 37.0057 34.6048L34.6048 37.0057C33.2791 38.3314 31.1298 38.3314 29.803 37.0057L19 26.2027L8.19699 37.0057C6.87131 38.3314 4.72193 38.3314 3.39517 37.0057L0.994261 34.6048C-0.33142 33.2791 -0.33142 31.1298 0.994261 29.803L11.7973 19L0.994261 8.19699C-0.33142 6.87131 -0.33142 4.72193 0.994261 3.39517L3.39517 0.99426C4.72085 -0.331422 6.87131 -0.331422 8.19699 0.99426L19 11.7973L29.803 0.99426C31.1287 -0.331422 33.2791 -0.331422 34.6048 0.99426L37.0057 3.39517C38.3314 4.72085 38.3314 6.87023 37.0057 8.19699L26.2027 19Z" fill="white"/>
<path d="M4.54883 50.3975H3.38184V53H1.91699V45.8906H4.55859C5.39844 45.8906 6.04622 46.0778 6.50195 46.4521C6.95768 46.8265 7.18555 47.3555 7.18555 48.0391C7.18555 48.5241 7.07975 48.9294 6.86816 49.2549C6.65983 49.5771 6.34245 49.8343 5.91602 50.0264L7.4541 52.9316V53H5.88184L4.54883 50.3975ZM3.38184 49.2109H4.56348C4.93132 49.2109 5.21615 49.1182 5.41797 48.9326C5.61979 48.7438 5.7207 48.485 5.7207 48.1562C5.7207 47.821 5.62467 47.5573 5.43262 47.3652C5.24382 47.1732 4.95247 47.0771 4.55859 47.0771H3.38184V49.2109ZM10.6426 53.0977C9.86784 53.0977 9.23633 52.86 8.74805 52.3848C8.26302 51.9095 8.02051 51.2764 8.02051 50.4854V50.3486C8.02051 49.818 8.12305 49.3444 8.32812 48.9277C8.5332 48.5078 8.82292 48.1855 9.19727 47.9609C9.57487 47.7331 10.0046 47.6191 10.4863 47.6191C11.209 47.6191 11.777 47.847 12.1904 48.3027C12.6071 48.7585 12.8154 49.4046 12.8154 50.2412V50.8174H9.45117C9.49674 51.1624 9.63346 51.4391 9.86133 51.6475C10.0924 51.8558 10.3838 51.96 10.7354 51.96C11.279 51.96 11.7038 51.763 12.0098 51.3691L12.7031 52.1455C12.4915 52.445 12.2051 52.6794 11.8438 52.8486C11.4824 53.0146 11.082 53.0977 10.6426 53.0977ZM10.4814 48.7617C10.2015 48.7617 9.97363 48.8561 9.79785 49.0449C9.62533 49.2337 9.51465 49.5039 9.46582 49.8555H11.4287V49.7432C11.4222 49.4307 11.3376 49.1898 11.1748 49.0205C11.012 48.848 10.7809 48.7617 10.4814 48.7617ZM14.9443 47.7168L14.9883 48.3076C15.3626 47.8486 15.8688 47.6191 16.5068 47.6191C17.1872 47.6191 17.6543 47.8877 17.9082 48.4248C18.2793 47.8877 18.8083 47.6191 19.4951 47.6191C20.068 47.6191 20.4945 47.7868 20.7744 48.1221C21.0544 48.4541 21.1943 48.9554 21.1943 49.626V53H19.7783V49.6309C19.7783 49.3314 19.7197 49.1133 19.6025 48.9766C19.4854 48.8366 19.2786 48.7666 18.9824 48.7666C18.5592 48.7666 18.2663 48.9684 18.1035 49.3721L18.1084 53H16.6973V49.6357C16.6973 49.3298 16.637 49.1084 16.5166 48.9717C16.3962 48.835 16.1911 48.7666 15.9014 48.7666C15.501 48.7666 15.2113 48.9326 15.0322 49.2646V53H13.6211V47.7168H14.9443ZM22.0635 50.3096C22.0635 49.7855 22.1644 49.3184 22.3662 48.9082C22.568 48.498 22.8577 48.1807 23.2354 47.9561C23.6162 47.7314 24.0573 47.6191 24.5586 47.6191C25.2715 47.6191 25.8525 47.8372 26.3018 48.2734C26.7542 48.7096 27.0065 49.3021 27.0586 50.0508L27.0684 50.4121C27.0684 51.2227 26.8421 51.8737 26.3896 52.3652C25.9372 52.8535 25.3301 53.0977 24.5684 53.0977C23.8066 53.0977 23.1979 52.8535 22.7422 52.3652C22.2897 51.877 22.0635 51.2129 22.0635 50.373V50.3096ZM23.4746 50.4121C23.4746 50.9134 23.569 51.2975 23.7578 51.5645C23.9466 51.8281 24.2168 51.96 24.5684 51.96C24.9102 51.96 25.1771 51.8298 25.3691 51.5693C25.5612 51.3057 25.6572 50.8857 25.6572 50.3096C25.6572 49.818 25.5612 49.4372 25.3691 49.167C25.1771 48.8968 24.9069 48.7617 24.5586 48.7617C24.2135 48.7617 23.9466 48.8968 23.7578 49.167C23.569 49.4339 23.4746 49.849 23.4746 50.4121ZM29.8369 51.2764L30.8184 47.7168H32.293L30.5107 53H29.1631L27.3809 47.7168H28.8555L29.8369 51.2764ZM35.2812 53.0977C34.5065 53.0977 33.875 52.86 33.3867 52.3848C32.9017 51.9095 32.6592 51.2764 32.6592 50.4854V50.3486C32.6592 49.818 32.7617 49.3444 32.9668 48.9277C33.1719 48.5078 33.4616 48.1855 33.8359 47.9609C34.2135 47.7331 34.6432 47.6191 35.125 47.6191C35.8477 47.6191 36.4157 47.847 36.8291 48.3027C37.2458 48.7585 37.4541 49.4046 37.4541 50.2412V50.8174H34.0898C34.1354 51.1624 34.2721 51.4391 34.5 51.6475C34.7311 51.8558 35.0225 51.96 35.374 51.96C35.9176 51.96 36.3424 51.763 36.6484 51.3691L37.3418 52.1455C37.1302 52.445 36.8438 52.6794 36.4824 52.8486C36.1211 53.0146 35.7207 53.0977 35.2812 53.0977ZM35.1201 48.7617C34.8402 48.7617 34.6123 48.8561 34.4365 49.0449C34.264 49.2337 34.1533 49.5039 34.1045 49.8555H36.0674V49.7432C36.0609 49.4307 35.9762 49.1898 35.8135 49.0205C35.6507 48.848 35.4196 48.7617 35.1201 48.7617Z" fill="white"/>
</svg>
