<svg width="21" height="22" viewBox="0 0 21 22" fill="none" xmlns="http://www.w3.org/2000/svg">
<path d="M20.4932 18.1783L16.616 14.3294C16.441 14.1557 16.2054 14.0608 15.9595 14.0637L15.3331 14.0711C16.3775 12.68 16.9874 10.9385 16.9652 9.05206C16.9125 4.56453 13.292 0.970466 8.87645 1.02237C4.46094 1.07427 0.925917 4.75243 0.978663 9.23996C1.03141 13.7275 4.65191 17.3216 9.06742 17.2697C10.9236 17.2478 12.6223 16.5873 13.9662 15.4934L13.9736 16.13C13.9766 16.3799 14.0755 16.6171 14.2505 16.7908L18.1276 20.6396C18.4932 21.0025 19.0773 20.9956 19.4304 20.6243L20.5049 19.5062C20.8618 19.1349 20.8549 18.5412 20.4932 18.1783ZM9.0307 14.1452C6.31375 14.1771 4.0855 11.969 4.053 9.20383C4.02054 6.44257 6.19239 4.17882 8.91318 4.14684C11.6301 4.11491 13.8584 6.32303 13.8909 9.08819C13.9233 11.8495 11.7515 14.1132 9.0307 14.1452Z" fill="white"/>
</svg>
