<svg width="74" height="100" viewBox="0 0 74 100" fill="none" xmlns="http://www.w3.org/2000/svg">
<path d="M0 13C0 5.8203 5.8203 0 13 0H37H61C68.1797 0 74 5.8203 74 13V86C74 93.1797 68.1797 99 61 99H13C5.8203 99 0 93.1797 0 86V13Z" fill="url(#paint0_linear)" fill-opacity="0.45"/>
<path d="M14.1489 76.3003H11.3179V84H9.41357V76.3003H6.62061V74.7578H14.1489V76.3003ZM17.71 84.127C16.7028 84.127 15.8818 83.818 15.2471 83.2002C14.6165 82.5824 14.3013 81.7593 14.3013 80.731V80.5532C14.3013 79.8634 14.4346 79.2477 14.7012 78.7061C14.9678 78.1602 15.3444 77.7412 15.8311 77.4492C16.3219 77.153 16.8805 77.0049 17.5068 77.0049C18.4463 77.0049 19.1847 77.3011 19.7222 77.8936C20.2638 78.486 20.5347 79.326 20.5347 80.4136V81.1626H16.1611C16.2204 81.6112 16.3981 81.9709 16.6943 82.2417C16.9948 82.5125 17.3735 82.6479 17.8306 82.6479C18.5373 82.6479 19.0895 82.3919 19.4873 81.8799L20.3887 82.8892C20.1136 83.2785 19.7412 83.5832 19.2715 83.8032C18.8018 84.019 18.2812 84.127 17.71 84.127ZM17.5005 78.4902C17.1366 78.4902 16.8403 78.613 16.6118 78.8584C16.3875 79.1038 16.2437 79.4551 16.1802 79.9121H18.7319V79.7661C18.7235 79.3599 18.6134 79.0467 18.4019 78.8267C18.1903 78.6024 17.8898 78.4902 17.5005 78.4902ZM25.4414 78.8521C25.1917 78.8182 24.9717 78.8013 24.7812 78.8013C24.0872 78.8013 23.6323 79.0361 23.4165 79.5059V84H21.582V77.1318H23.3149L23.3657 77.9507C23.7339 77.3201 24.2438 77.0049 24.8955 77.0049C25.0986 77.0049 25.2891 77.0324 25.4668 77.0874L25.4414 78.8521ZM28.0503 77.1318L28.1074 77.8999C28.5941 77.3032 29.2521 77.0049 30.0815 77.0049C30.966 77.0049 31.5732 77.354 31.9033 78.0522C32.3857 77.354 33.0734 77.0049 33.9663 77.0049C34.7111 77.0049 35.2655 77.2228 35.6294 77.6587C35.9933 78.0903 36.1753 78.742 36.1753 79.6138V84H34.3345V79.6201C34.3345 79.2308 34.2583 78.9473 34.106 78.7695C33.9536 78.5876 33.6849 78.4966 33.2998 78.4966C32.7497 78.4966 32.3688 78.759 32.1572 79.2837L32.1636 84H30.3291V79.6265C30.3291 79.2287 30.2508 78.9409 30.0942 78.7632C29.9377 78.5854 29.6711 78.4966 29.2944 78.4966C28.7739 78.4966 28.3973 78.7124 28.1646 79.144V84H26.3301V77.1318H28.0503ZM41.3105 82.1021C41.3105 81.8778 41.1984 81.7021 40.9741 81.5752C40.7541 81.444 40.3986 81.3276 39.9077 81.2261C38.2743 80.8833 37.4575 80.1893 37.4575 79.144C37.4575 78.5347 37.7093 78.0269 38.2129 77.6206C38.7207 77.2101 39.383 77.0049 40.1997 77.0049C41.0715 77.0049 41.7676 77.2101 42.2881 77.6206C42.8128 78.0311 43.0752 78.5643 43.0752 79.2202H41.2407C41.2407 78.9578 41.1561 78.742 40.9868 78.5728C40.8175 78.3993 40.5531 78.3125 40.1934 78.3125C39.8844 78.3125 39.6453 78.3823 39.4761 78.522C39.3068 78.6616 39.2222 78.8394 39.2222 79.0552C39.2222 79.2583 39.3174 79.4233 39.5078 79.5503C39.7025 79.673 40.0283 79.7809 40.4854 79.874C40.9424 79.9629 41.3275 80.0645 41.6406 80.1787C42.6097 80.5342 43.0942 81.1499 43.0942 82.0259C43.0942 82.6522 42.8255 83.16 42.2881 83.5493C41.7507 83.9344 41.0566 84.127 40.2061 84.127C39.6305 84.127 39.1185 84.0254 38.6699 83.8223C38.2256 83.6149 37.8765 83.3335 37.6226 82.978C37.3687 82.6183 37.2417 82.2311 37.2417 81.8164H38.981C38.9979 82.1423 39.1185 82.3919 39.3428 82.5654C39.5671 82.7389 39.8675 82.8257 40.2441 82.8257C40.5954 82.8257 40.8599 82.7601 41.0376 82.6289C41.2196 82.4935 41.3105 82.3179 41.3105 82.1021ZM51.4985 84C51.4139 83.835 51.3525 83.6297 51.3145 83.3843C50.8701 83.8794 50.2925 84.127 49.5815 84.127C48.9087 84.127 48.3501 83.9323 47.9058 83.543C47.4657 83.1536 47.2456 82.6628 47.2456 82.0703C47.2456 81.3424 47.5143 80.7839 48.0518 80.3945C48.5934 80.0052 49.3742 79.8084 50.394 79.8042H51.2383V79.4106C51.2383 79.0933 51.1558 78.8394 50.9907 78.6489C50.8299 78.4585 50.5739 78.3633 50.2227 78.3633C49.9137 78.3633 49.6704 78.4373 49.4927 78.5854C49.3192 78.7336 49.2324 78.9367 49.2324 79.1948H47.3979C47.3979 78.797 47.5207 78.4289 47.7661 78.0903C48.0116 77.7518 48.3586 77.4873 48.8071 77.2969C49.2557 77.1022 49.7593 77.0049 50.3179 77.0049C51.1642 77.0049 51.835 77.2186 52.3301 77.646C52.8294 78.0692 53.0791 78.6659 53.0791 79.436V82.4131C53.0833 83.0648 53.1743 83.5578 53.3521 83.8921V84H51.4985ZM49.9814 82.7241C50.2523 82.7241 50.502 82.6649 50.7305 82.5464C50.959 82.4237 51.1283 82.2607 51.2383 82.0576V80.877H50.5527C49.6344 80.877 49.1457 81.1943 49.0864 81.8291L49.0801 81.937C49.0801 82.1655 49.1605 82.3538 49.3213 82.502C49.4821 82.6501 49.7021 82.7241 49.9814 82.7241ZM56.1768 77.1318L56.2339 77.9253C56.7248 77.3117 57.3828 77.0049 58.208 77.0049C58.9359 77.0049 59.4775 77.2186 59.833 77.646C60.1885 78.0734 60.3704 78.7124 60.3789 79.563V84H58.5444V79.6074C58.5444 79.2181 58.4598 78.9367 58.2905 78.7632C58.1213 78.5854 57.8398 78.4966 57.4463 78.4966C56.93 78.4966 56.5428 78.7166 56.2847 79.1567V84H54.4502V77.1318H56.1768ZM61.4897 80.5151C61.4897 79.4445 61.7288 78.5918 62.207 77.957C62.6895 77.3223 63.3475 77.0049 64.1812 77.0049C64.8498 77.0049 65.402 77.2546 65.8379 77.7539V74.25H67.6787V84H66.022L65.9331 83.27C65.4761 83.8413 64.8879 84.127 64.1685 84.127C63.3602 84.127 62.7106 83.8096 62.2197 83.1748C61.7331 82.5358 61.4897 81.6493 61.4897 80.5151ZM63.3242 80.6484C63.3242 81.2917 63.4364 81.7847 63.6606 82.1274C63.8849 82.4702 64.2108 82.6416 64.6382 82.6416C65.2052 82.6416 65.6051 82.4025 65.8379 81.9243V79.2139C65.6094 78.7357 65.2137 78.4966 64.6509 78.4966C63.7664 78.4966 63.3242 79.2139 63.3242 80.6484ZM15.5327 95.9214C15.4608 96.9159 15.0926 97.6987 14.4282 98.27C13.7681 98.8413 12.8963 99.127 11.813 99.127C10.6281 99.127 9.69499 98.7292 9.01367 97.9336C8.33659 97.1338 7.99805 96.0378 7.99805 94.6455V94.0806C7.99805 93.1919 8.15462 92.409 8.46777 91.7319C8.78092 91.0549 9.22738 90.5365 9.80713 90.1768C10.3911 89.8128 11.0682 89.6309 11.8384 89.6309C12.9048 89.6309 13.7638 89.9165 14.4155 90.4878C15.0672 91.0591 15.4438 91.861 15.5454 92.8936H13.6411C13.5946 92.2969 13.4274 91.8652 13.1396 91.5986C12.8561 91.3278 12.4224 91.1924 11.8384 91.1924C11.2036 91.1924 10.7275 91.4209 10.4102 91.8779C10.097 92.3307 9.9362 93.0353 9.92773 93.9917V94.6899C9.92773 95.6886 10.078 96.4186 10.3784 96.8799C10.6831 97.3411 11.1613 97.5718 11.813 97.5718C12.4012 97.5718 12.8392 97.4385 13.127 97.1719C13.4189 96.901 13.5861 96.4842 13.6284 95.9214H15.5327ZM16.377 95.5024C16.377 94.8211 16.5081 94.2139 16.7705 93.6807C17.0329 93.1475 17.4095 92.7349 17.9004 92.4429C18.3955 92.1509 18.9689 92.0049 19.6206 92.0049C20.5474 92.0049 21.3027 92.2884 21.8867 92.8555C22.4749 93.4225 22.8029 94.1927 22.8706 95.166L22.8833 95.6357C22.8833 96.6895 22.5892 97.5358 22.001 98.1748C21.4128 98.8096 20.6235 99.127 19.6333 99.127C18.6431 99.127 17.8517 98.8096 17.2593 98.1748C16.6711 97.54 16.377 96.6768 16.377 95.585V95.5024ZM18.2114 95.6357C18.2114 96.2874 18.3341 96.7868 18.5796 97.1338C18.825 97.4766 19.1763 97.6479 19.6333 97.6479C20.0776 97.6479 20.4246 97.4787 20.6743 97.1401C20.924 96.7974 21.0488 96.2515 21.0488 95.5024C21.0488 94.8634 20.924 94.3683 20.6743 94.0171C20.4246 93.6659 20.0734 93.4902 19.6206 93.4902C19.172 93.4902 18.825 93.6659 18.5796 94.0171C18.3341 94.3641 18.2114 94.9036 18.2114 95.6357ZM25.7017 92.1318L25.7588 92.9253C26.2497 92.3117 26.9077 92.0049 27.7329 92.0049C28.4608 92.0049 29.0024 92.2186 29.3579 92.646C29.7134 93.0734 29.8953 93.7124 29.9038 94.563V99H28.0693V94.6074C28.0693 94.2181 27.9847 93.9367 27.8154 93.7632C27.6462 93.5854 27.3647 93.4966 26.9712 93.4966C26.4549 93.4966 26.0677 93.7166 25.8096 94.1567V99H23.9751V92.1318H25.7017ZM31.0146 95.5151C31.0146 94.4445 31.2537 93.5918 31.7319 92.957C32.2144 92.3223 32.8724 92.0049 33.7061 92.0049C34.3747 92.0049 34.9269 92.2546 35.3628 92.7539V89.25H37.2036V99H35.5469L35.458 98.27C35.001 98.8413 34.4128 99.127 33.6934 99.127C32.8851 99.127 32.2355 98.8096 31.7446 98.1748C31.258 97.5358 31.0146 96.6493 31.0146 95.5151ZM32.8491 95.6484C32.8491 96.2917 32.9613 96.7847 33.1855 97.1274C33.4098 97.4702 33.7357 97.6416 34.1631 97.6416C34.7301 97.6416 35.13 97.4025 35.3628 96.9243V94.2139C35.1343 93.7357 34.7386 93.4966 34.1758 93.4966C33.2913 93.4966 32.8491 94.2139 32.8491 95.6484ZM40.5615 99H38.7207V92.1318H40.5615V99ZM38.6128 90.3545C38.6128 90.0794 38.7038 89.853 38.8857 89.6753C39.0719 89.4976 39.3237 89.4087 39.6411 89.4087C39.9543 89.4087 40.2039 89.4976 40.3901 89.6753C40.5763 89.853 40.6694 90.0794 40.6694 90.3545C40.6694 90.6338 40.5742 90.8623 40.3838 91.04C40.1976 91.2178 39.95 91.3066 39.6411 91.3066C39.3322 91.3066 39.0825 91.2178 38.8921 91.04C38.7059 90.8623 38.6128 90.6338 38.6128 90.3545ZM44.2749 90.4434V92.1318H45.4492V93.4775H44.2749V96.9053C44.2749 97.1592 44.3236 97.3411 44.4209 97.4512C44.5182 97.5612 44.7044 97.6162 44.9795 97.6162C45.1826 97.6162 45.3625 97.6014 45.519 97.5718V98.9619C45.1593 99.0719 44.7891 99.127 44.4082 99.127C43.1217 99.127 42.4658 98.4774 42.4404 97.1782V93.4775H41.4375V92.1318H42.4404V90.4434H44.2749ZM48.4072 99H46.5664V92.1318H48.4072V99ZM46.4585 90.3545C46.4585 90.0794 46.5495 89.853 46.7314 89.6753C46.9176 89.4976 47.1694 89.4087 47.4868 89.4087C47.8 89.4087 48.0496 89.4976 48.2358 89.6753C48.422 89.853 48.5151 90.0794 48.5151 90.3545C48.5151 90.6338 48.4199 90.8623 48.2295 91.04C48.0433 91.2178 47.7957 91.3066 47.4868 91.3066C47.1779 91.3066 46.9282 91.2178 46.7378 91.04C46.5516 90.8623 46.4585 90.6338 46.4585 90.3545ZM49.6387 95.5024C49.6387 94.8211 49.7699 94.2139 50.0322 93.6807C50.2946 93.1475 50.6712 92.7349 51.1621 92.4429C51.6572 92.1509 52.2306 92.0049 52.8823 92.0049C53.8091 92.0049 54.5645 92.2884 55.1484 92.8555C55.7367 93.4225 56.0646 94.1927 56.1323 95.166L56.145 95.6357C56.145 96.6895 55.8509 97.5358 55.2627 98.1748C54.6745 98.8096 53.8853 99.127 52.895 99.127C51.9048 99.127 51.1134 98.8096 50.521 98.1748C49.9328 97.54 49.6387 96.6768 49.6387 95.585V95.5024ZM51.4731 95.6357C51.4731 96.2874 51.5959 96.7868 51.8413 97.1338C52.0868 97.4766 52.438 97.6479 52.895 97.6479C53.3394 97.6479 53.6864 97.4787 53.936 97.1401C54.1857 96.7974 54.3105 96.2515 54.3105 95.5024C54.3105 94.8634 54.1857 94.3683 53.936 94.0171C53.6864 93.6659 53.3351 93.4902 52.8823 93.4902C52.4338 93.4902 52.0868 93.6659 51.8413 94.0171C51.5959 94.3641 51.4731 94.9036 51.4731 95.6357ZM58.9634 92.1318L59.0205 92.9253C59.5114 92.3117 60.1694 92.0049 60.9946 92.0049C61.7225 92.0049 62.2642 92.2186 62.6196 92.646C62.9751 93.0734 63.1571 93.7124 63.1655 94.563V99H61.3311V94.6074C61.3311 94.2181 61.2464 93.9367 61.0771 93.7632C60.9079 93.5854 60.6265 93.4966 60.2329 93.4966C59.7166 93.4966 59.3294 93.7166 59.0713 94.1567V99H57.2368V92.1318H58.9634ZM68.2817 97.1021C68.2817 96.8778 68.1696 96.7021 67.9453 96.5752C67.7253 96.444 67.3698 96.3276 66.8789 96.2261C65.2454 95.8833 64.4287 95.1893 64.4287 94.144C64.4287 93.5347 64.6805 93.0269 65.1841 92.6206C65.6919 92.2101 66.3542 92.0049 67.1709 92.0049C68.0426 92.0049 68.7388 92.2101 69.2593 92.6206C69.784 93.0311 70.0464 93.5643 70.0464 94.2202H68.2119C68.2119 93.9578 68.1273 93.742 67.958 93.5728C67.7887 93.3993 67.5243 93.3125 67.1646 93.3125C66.8556 93.3125 66.6165 93.3823 66.4473 93.522C66.278 93.6616 66.1934 93.8394 66.1934 94.0552C66.1934 94.2583 66.2886 94.4233 66.479 94.5503C66.6737 94.673 66.9995 94.7809 67.4565 94.874C67.9136 94.9629 68.2987 95.0645 68.6118 95.1787C69.5809 95.5342 70.0654 96.1499 70.0654 97.0259C70.0654 97.6522 69.7967 98.16 69.2593 98.5493C68.7218 98.9344 68.0278 99.127 67.1772 99.127C66.6017 99.127 66.0897 99.0254 65.6411 98.8223C65.1968 98.6149 64.8477 98.3335 64.5938 97.978C64.3398 97.6183 64.2129 97.2311 64.2129 96.8164H65.9521C65.9691 97.1423 66.0897 97.3919 66.314 97.5654C66.5382 97.7389 66.8387 97.8257 67.2153 97.8257C67.5666 97.8257 67.8311 97.7601 68.0088 97.6289C68.1908 97.4935 68.2817 97.3179 68.2817 97.1021Z" fill="white"/>
<path d="M55.6875 19.875H18.3125C15.9307 19.875 14 21.8057 14 24.1875V55.8125C14 58.1943 15.9307 60.125 18.3125 60.125H55.6875C58.0693 60.125 60 58.1943 60 55.8125V24.1875C60 21.8057 58.0693 19.875 55.6875 19.875ZM55.1484 55.8125H18.8516C18.7086 55.8125 18.5715 55.7557 18.4704 55.6546C18.3693 55.5535 18.3125 55.4164 18.3125 55.2734V24.7266C18.3125 24.5836 18.3693 24.4465 18.4704 24.3454C18.5715 24.2443 18.7086 24.1875 18.8516 24.1875H55.1484C55.2914 24.1875 55.4285 24.2443 55.5296 24.3454C55.6307 24.4465 55.6875 24.5836 55.6875 24.7266V55.2734C55.6875 55.4164 55.6307 55.5535 55.5296 55.6546C55.4285 55.7557 55.2914 55.8125 55.1484 55.8125ZM51.375 47.5469V49.7031C51.375 50.2985 50.8923 50.7812 50.2969 50.7812H32.3281C31.7327 50.7812 31.25 50.2985 31.25 49.7031V47.5469C31.25 46.9515 31.7327 46.4688 32.3281 46.4688H50.2969C50.8923 46.4688 51.375 46.9515 51.375 47.5469ZM51.375 38.9219V41.0781C51.375 41.6735 50.8923 42.1562 50.2969 42.1562H32.3281C31.7327 42.1562 31.25 41.6735 31.25 41.0781V38.9219C31.25 38.3265 31.7327 37.8438 32.3281 37.8438H50.2969C50.8923 37.8438 51.375 38.3265 51.375 38.9219ZM51.375 30.2969V32.4531C51.375 33.0485 50.8923 33.5312 50.2969 33.5312H32.3281C31.7327 33.5312 31.25 33.0485 31.25 32.4531V30.2969C31.25 29.7015 31.7327 29.2188 32.3281 29.2188H50.2969C50.8923 29.2188 51.375 29.7015 51.375 30.2969ZM28.7344 31.375C28.7344 33.1613 27.2863 34.6094 25.5 34.6094C23.7137 34.6094 22.2656 33.1613 22.2656 31.375C22.2656 29.5887 23.7137 28.1406 25.5 28.1406C27.2863 28.1406 28.7344 29.5887 28.7344 31.375ZM28.7344 40C28.7344 41.7863 27.2863 43.2344 25.5 43.2344C23.7137 43.2344 22.2656 41.7863 22.2656 40C22.2656 38.2137 23.7137 36.7656 25.5 36.7656C27.2863 36.7656 28.7344 38.2137 28.7344 40ZM28.7344 48.625C28.7344 50.4113 27.2863 51.8594 25.5 51.8594C23.7137 51.8594 22.2656 50.4113 22.2656 48.625C22.2656 46.8387 23.7137 45.3906 25.5 45.3906C27.2863 45.3906 28.7344 46.8387 28.7344 48.625Z" fill="white"/>
<defs>
<linearGradient id="paint0_linear" x1="37" y1="0" x2="37" y2="99" gradientUnits="userSpaceOnUse">
<stop offset="0.59375" stop-color="#1F001A"/>
<stop offset="1" stop-opacity="0"/>
</linearGradient>
</defs>
</svg>
