<svg xmlns="http://www.w3.org/2000/svg" viewBox="0 0 460.47 108.89"><defs><style>.cls-1{fill:none;}.cls-2{fill:#fff;}</style></defs><title>Asset 6</title><g id="Layer_2" data-name="Layer 2"><g id="Layer_1-2" data-name="Layer 1"><rect class="cls-1" width="460.47" height="108.89"/><path class="cls-2" d="M12.85,54.19c.55-2.88.92-5.81,1.67-8.63A47.83,47.83,0,0,1,35.35,17c2.52-1.63,4.95-3.4,7.4-5.14,1.68-1.19,2.18-1.11,3.27.69A9.49,9.49,0,0,1,44.6,24.2a46.72,46.72,0,0,1-6.54,4.88,40.71,40.71,0,1,0,43.48.26,53.86,53.86,0,0,1-6.67-4.72,9.47,9.47,0,0,1-.81-13.91h1c2.55,1.84,5,3.85,7.67,5.49a48,48,0,0,1,22.1,29.52c.79,3,1.12,6.09,1.67,9.14v6c-.2,1.36-.4,2.73-.61,4.09a46.75,46.75,0,0,1-91.76,3.58c-.56-2.3-.86-4.67-1.28-7Z"/><path class="cls-2" d="M59.66,103.34A30.41,30.41,0,0,0,87.25,84.59a29.52,29.52,0,0,0-6.7-32.47c-1.76-1.69-3.82-3.07-5.67-4.67a30.68,30.68,0,0,1-3.45-3.39,9.11,9.11,0,0,1-.62-10.72c1.22-1.86,1.91-1.92,3.54-.51,2.1,1.82,4.23,3.61,6.43,5.31,19.42,15,20.29,45.4-2,59.91-20.87,13.61-50,1.14-54.22-23.4C21.93,59.32,27.22,46.9,39.51,37.41A66.52,66.52,0,0,0,44.69,33c1.16-1.11,2-.85,2.9.23,2.25,2.63,2.58,7.74.25,10.58a37.56,37.56,0,0,1-6,5.73C32.09,57.06,28.14,67,30.43,79s9.9,19.77,21.7,23.16A60.9,60.9,0,0,0,59.66,103.34Z"/><path class="cls-2" d="M85.28,76.75a25.83,25.83,0,0,1-26.7,25.93C44.92,102.48,33.74,90.3,34,75.85a25.67,25.67,0,1,1,51.33.9Zm-5.09,4.81a20.6,20.6,0,1,0-20.55,20.67A20.67,20.67,0,0,0,80.19,81.56Z"/><path class="cls-2" d="M59.61,39.53a5.87,5.87,0,0,1-6-6.06,6.06,6.06,0,0,1,6.16-5.92,6,6,0,0,1-.2,12Z"/><path class="cls-2" d="M63.84,18.82a4.23,4.23,0,0,1-4.19,4.26,4.38,4.38,0,0,1-4-4.46,3.83,3.83,0,0,1,4.07-3.89A4.1,4.1,0,0,1,63.84,18.82Z"/><path class="cls-2" d="M62.77,6.47a3.13,3.13,0,0,1-3.1,3.16,3.25,3.25,0,0,1-3-3.3,2.84,2.84,0,0,1,3-2.88A3,3,0,0,1,62.77,6.47Z"/><path class="cls-2" d="M43.56,85.47a16.1,16.1,0,1,1,32.19.38c-.09,9-7.41,15.91-16.71,15.82C50.55,101.59,43.49,94.2,43.56,85.47ZM59.62,78A11.63,11.63,0,1,0,71.31,89.64,11.73,11.73,0,0,0,59.62,78Z"/><path class="cls-2" d="M139.61,37.91l10.7,3.23a19.67,19.67,0,0,1-3.4,7.52,14.85,14.85,0,0,1-5.75,4.56,21.65,21.65,0,0,1-8.75,1.53,25.36,25.36,0,0,1-10.53-1.87,16.73,16.73,0,0,1-7-6.58q-3-4.72-3-12.07,0-9.81,5.21-15.07t14.76-5.27q7.47,0,11.74,3a17.68,17.68,0,0,1,6.35,9.27l-10.78,2.4A9.47,9.47,0,0,0,138,25.94a6.92,6.92,0,0,0-2.51-2.16,7.71,7.71,0,0,0-9.67,2.59c-1.12,1.65-1.67,4.24-1.67,7.78q0,6.57,2,9a7.86,7.86,0,0,0,10.9.47A12.1,12.1,0,0,0,139.61,37.91Z"/><path class="cls-2" d="M155,54.08V14.56h20.35a29.78,29.78,0,0,1,8.65,1,9.23,9.23,0,0,1,4.83,3.6,10.93,10.93,0,0,1,1.83,6.4,10.56,10.56,0,0,1-5.26,9.55,14.59,14.59,0,0,1-4.29,1.56,12,12,0,0,1,3.18,1.46,12.28,12.28,0,0,1,2,2.07A16.1,16.1,0,0,1,188,42.63l5.91,11.45h-13.8L173.56,42a9.1,9.1,0,0,0-2.21-3,5.11,5.11,0,0,0-3-.92h-1.08v16Zm12.26-23.51h5.15a18,18,0,0,0,3.24-.53,3.27,3.27,0,0,0,2-1.24,3.69,3.69,0,0,0,.77-2.3,3.62,3.62,0,0,0-1.22-2.93c-.8-.69-2.32-1-4.55-1h-5.37Z"/><path class="cls-2" d="M196.39,14.56h32.72V23H208.63v6.28h19v8.06h-19v7.79h21.08v8.95H196.39Z"/><path class="cls-2" d="M259.2,47.56H245.34l-1.93,6.52H230.94L245.8,14.56h13.31L274,54.08H261.18ZM256.67,39l-4.37-14.2L248,39Z"/><path class="cls-2" d="M269.89,14.56H307v9.76H294.55V54.08H282.34V24.32H269.89Z"/><path class="cls-2" d="M311.64,14.56h12.24V54.08H311.64Z"/><path class="cls-2" d="M327.37,14.56h12.77L349,43l8.78-28.44h12.4L355.53,54.08H342.3Z"/><path class="cls-2" d="M372.79,14.56h32.72V23H385v6.28h19v8.06H385v7.79h21.08v8.95H372.79Z"/><path class="cls-2" d="M409.17,41l11.62-.73a8.76,8.76,0,0,0,1.54,4.31,6.45,6.45,0,0,0,5.39,2.4,6,6,0,0,0,4-1.23,3.53,3.53,0,0,0,.07-5.59q-1.35-1.22-6.26-2.29-8-1.8-11.45-4.8a9.65,9.65,0,0,1-3.45-7.63,10.3,10.3,0,0,1,1.76-5.75,11.7,11.7,0,0,1,5.31-4.26,24.84,24.84,0,0,1,9.72-1.55q7.57,0,11.55,2.82t4.73,9l-11.51.67a6.16,6.16,0,0,0-1.93-3.88,6.17,6.17,0,0,0-4.05-1.21,4.92,4.92,0,0,0-3.21.9,2.77,2.77,0,0,0-1.08,2.2,2.22,2.22,0,0,0,.89,1.7,10.08,10.08,0,0,0,4.1,1.45q8,1.72,11.47,3.49a12.08,12.08,0,0,1,5,4.38A11.15,11.15,0,0,1,445,41.22a12.53,12.53,0,0,1-2.1,7,13.19,13.19,0,0,1-5.87,4.87,23.87,23.87,0,0,1-9.52,1.65q-10.08,0-14-3.88A15.29,15.29,0,0,1,409.17,41Z"/><path class="cls-2" d="M137.59,94.12H123.73l-1.93,6.52H109.33l14.86-39.52h13.32l14.85,39.52H139.57Zm-2.53-8.55-4.36-14.2-4.32,14.2Z"/><path class="cls-2" d="M155,100.64V61.12h20.35a29.78,29.78,0,0,1,8.65,1,9.23,9.23,0,0,1,4.83,3.6,10.93,10.93,0,0,1,1.83,6.4,10.56,10.56,0,0,1-5.26,9.55,14.59,14.59,0,0,1-4.29,1.56,12,12,0,0,1,3.18,1.46,12.28,12.28,0,0,1,2,2.07A16.1,16.1,0,0,1,188,89.19l5.91,11.45h-13.8l-6.53-12.08a9.1,9.1,0,0,0-2.21-3,5.11,5.11,0,0,0-3-.92h-1.08v16Zm12.26-23.51h5.15a19,19,0,0,0,3.24-.53,3.27,3.27,0,0,0,2-1.24,3.69,3.69,0,0,0,.77-2.3,3.62,3.62,0,0,0-1.22-2.93c-.8-.69-2.32-1-4.55-1h-5.37Z"/><path class="cls-2" d="M193.94,80.91q0-9.68,5.39-15.07t15-5.39q9.87,0,15.21,5.3t5.33,14.83A24.3,24.3,0,0,1,232.55,92a16.66,16.66,0,0,1-6.74,6.9,22.29,22.29,0,0,1-11,2.46,25.28,25.28,0,0,1-11.07-2.13,16.68,16.68,0,0,1-7.1-6.73A22.35,22.35,0,0,1,193.94,80.91Zm12.21,0q0,6,2.22,8.6a8.41,8.41,0,0,0,12.15,0c1.43-1.7,2.15-4.77,2.15-9.19,0-3.72-.75-6.43-2.25-8.15a7.67,7.67,0,0,0-6.1-2.58,7.42,7.42,0,0,0-5.93,2.62C206.89,74.05,206.15,76.94,206.15,81Z"/><path class="cls-2" d="M265.8,61.12H278V84.67a19.76,19.76,0,0,1-1.09,6.61,14.36,14.36,0,0,1-3.42,5.44,13.76,13.76,0,0,1-4.9,3.27,24.6,24.6,0,0,1-8.54,1.32,53.66,53.66,0,0,1-6.3-.4,16.5,16.5,0,0,1-5.7-1.6,14.47,14.47,0,0,1-4.19-3.41,12.5,12.5,0,0,1-2.6-4.55,23.43,23.43,0,0,1-1.13-6.68V61.12h12.18V85.23a6.91,6.91,0,0,0,1.79,5,7.73,7.73,0,0,0,9.92,0,6.82,6.82,0,0,0,1.8-5.07Z"/><path class="cls-2" d="M284.77,61.12h11.4L311.05,83V61.12h11.51v39.52H311.05l-14.8-21.7v21.7H284.77Z"/><path class="cls-2" d="M329.46,61.12H347.6a21.71,21.71,0,0,1,8.66,1.46,14.08,14.08,0,0,1,5.46,4.18,17.24,17.24,0,0,1,3.13,6.33,29.28,29.28,0,0,1,1,7.66,26.6,26.6,0,0,1-1.44,9.82,16.18,16.18,0,0,1-4,5.85,13,13,0,0,1-5.5,3.14,28.21,28.21,0,0,1-7.27,1.08H329.46Zm12.21,8.95V91.66h3a12.48,12.48,0,0,0,5.44-.85,5.72,5.72,0,0,0,2.54-3,18.67,18.67,0,0,0,.91-6.86c0-4.19-.68-7-2-8.6s-3.63-2.32-6.8-2.32Z"/></g></g></svg>