<svg width="74" height="99" viewBox="0 0 74 99" fill="none" xmlns="http://www.w3.org/2000/svg">
<path d="M0 13C0 5.8203 5.8203 0 13 0H37H61C68.1797 0 74 5.8203 74 13V86C74 93.1797 68.1797 99 61 99H13C5.8203 99 0 93.1797 0 86V13Z" fill="url(#paint0_linear)" fill-opacity="0.45"/>
<path d="M18.0063 75V65.7578H20.8501C21.6626 65.7578 22.3883 65.9419 23.0273 66.3101C23.6706 66.674 24.172 67.1945 24.5317 67.8716C24.8914 68.5444 25.0713 69.3104 25.0713 70.1694V70.5947C25.0713 71.4538 24.8936 72.2176 24.5381 72.8862C24.1868 73.5549 23.6896 74.0732 23.0464 74.4414C22.4032 74.8096 21.6774 74.9958 20.8691 75H18.0063ZM19.9106 67.3003V73.4702H20.8311C21.5758 73.4702 22.145 73.2269 22.5386 72.7402C22.9321 72.2536 23.1331 71.5575 23.1416 70.6519V70.1631C23.1416 69.2236 22.9469 68.5127 22.5576 68.0303C22.1683 67.5436 21.5991 67.3003 20.8501 67.3003H19.9106ZM29.502 75.127C28.4948 75.127 27.6738 74.818 27.0391 74.2002C26.4085 73.5824 26.0933 72.7593 26.0933 71.731V71.5532C26.0933 70.8634 26.2266 70.2477 26.4932 69.7061C26.7598 69.1602 27.1364 68.7412 27.623 68.4492C28.1139 68.153 28.6725 68.0049 29.2988 68.0049C30.2383 68.0049 30.9767 68.3011 31.5142 68.8936C32.0558 69.486 32.3267 70.326 32.3267 71.4136V72.1626H27.9531C28.0124 72.6112 28.1901 72.9709 28.4863 73.2417C28.7868 73.5125 29.1655 73.6479 29.6226 73.6479C30.3293 73.6479 30.8815 73.3919 31.2793 72.8799L32.1807 73.8892C31.9056 74.2785 31.5332 74.5832 31.0635 74.8032C30.5938 75.019 30.0732 75.127 29.502 75.127ZM29.2925 69.4902C28.9285 69.4902 28.6323 69.613 28.4038 69.8584C28.1795 70.1038 28.0356 70.4551 27.9722 70.9121H30.5239V70.7661C30.5155 70.3599 30.4054 70.0467 30.1938 69.8267C29.9823 69.6024 29.6818 69.4902 29.2925 69.4902ZM35.3101 75H33.4692V65.25H35.3101V75ZM39.9883 75.127C38.9811 75.127 38.1602 74.818 37.5254 74.2002C36.8949 73.5824 36.5796 72.7593 36.5796 71.731V71.5532C36.5796 70.8634 36.7129 70.2477 36.9795 69.7061C37.2461 69.1602 37.6227 68.7412 38.1094 68.4492C38.6003 68.153 39.1589 68.0049 39.7852 68.0049C40.7246 68.0049 41.4631 68.3011 42.0005 68.8936C42.5422 69.486 42.813 70.326 42.813 71.4136V72.1626H38.4395C38.4987 72.6112 38.6764 72.9709 38.9727 73.2417C39.2731 73.5125 39.6519 73.6479 40.1089 73.6479C40.8156 73.6479 41.3678 73.3919 41.7656 72.8799L42.667 73.8892C42.3919 74.2785 42.0195 74.5832 41.5498 74.8032C41.0801 75.019 40.5596 75.127 39.9883 75.127ZM39.7788 69.4902C39.4149 69.4902 39.1187 69.613 38.8901 69.8584C38.6659 70.1038 38.522 70.4551 38.4585 70.9121H41.0103V70.7661C41.0018 70.3599 40.8918 70.0467 40.6802 69.8267C40.4686 69.6024 40.1681 69.4902 39.7788 69.4902ZM46.0566 66.4434V68.1318H47.231V69.4775H46.0566V72.9053C46.0566 73.1592 46.1053 73.3411 46.2026 73.4512C46.3 73.5612 46.4862 73.6162 46.7612 73.6162C46.9644 73.6162 47.1442 73.6014 47.3008 73.5718V74.9619C46.9411 75.0719 46.5708 75.127 46.1899 75.127C44.9035 75.127 44.2476 74.4774 44.2222 73.1782V69.4775H43.2192V68.1318H44.2222V66.4434H46.0566ZM51.4141 75.127C50.4069 75.127 49.5859 74.818 48.9512 74.2002C48.3206 73.5824 48.0054 72.7593 48.0054 71.731V71.5532C48.0054 70.8634 48.1387 70.2477 48.4053 69.7061C48.6719 69.1602 49.0485 68.7412 49.5352 68.4492C50.026 68.153 50.5846 68.0049 51.2109 68.0049C52.1504 68.0049 52.8888 68.3011 53.4263 68.8936C53.9679 69.486 54.2388 70.326 54.2388 71.4136V72.1626H49.8652C49.9245 72.6112 50.1022 72.9709 50.3984 73.2417C50.6989 73.5125 51.0776 73.6479 51.5347 73.6479C52.2414 73.6479 52.7936 73.3919 53.1914 72.8799L54.0928 73.8892C53.8177 74.2785 53.4453 74.5832 52.9756 74.8032C52.5059 75.019 51.9854 75.127 51.4141 75.127ZM51.2046 69.4902C50.8407 69.4902 50.5444 69.613 50.3159 69.8584C50.0916 70.1038 49.9478 70.4551 49.8843 70.9121H52.436V70.7661C52.4276 70.3599 52.3175 70.0467 52.106 69.8267C51.8944 69.6024 51.5939 69.4902 51.2046 69.4902ZM19.2378 88.0957H15.8989L15.2642 90H13.2393L16.6797 80.7578H18.4443L21.9038 90H19.8789L19.2378 88.0957ZM16.4131 86.5532H18.7236L17.562 83.0938L16.4131 86.5532ZM25.5029 88.6479C25.8415 88.6479 26.1165 88.5549 26.3281 88.3687C26.5397 88.1825 26.6497 87.9349 26.6582 87.626H28.3784C28.3742 88.0915 28.2472 88.5189 27.9976 88.9082C27.7479 89.2933 27.4051 89.5938 26.9692 89.8096C26.5376 90.0212 26.0594 90.127 25.5347 90.127C24.5529 90.127 23.7785 89.8159 23.2114 89.1938C22.6444 88.5675 22.3608 87.7043 22.3608 86.604V86.4834C22.3608 85.4255 22.6423 84.5812 23.2051 83.9507C23.7679 83.3201 24.5402 83.0049 25.522 83.0049C26.381 83.0049 27.0687 83.2503 27.585 83.7412C28.1055 84.2279 28.37 84.8774 28.3784 85.6899H26.6582C26.6497 85.3345 26.5397 85.0467 26.3281 84.8267C26.1165 84.6024 25.8372 84.4902 25.4902 84.4902C25.0628 84.4902 24.7391 84.6468 24.519 84.96C24.3032 85.2689 24.1953 85.7725 24.1953 86.4707V86.6611C24.1953 87.3678 24.3032 87.8757 24.519 88.1846C24.7349 88.4935 25.0628 88.6479 25.5029 88.6479ZM32.2822 88.6479C32.6208 88.6479 32.8958 88.5549 33.1074 88.3687C33.319 88.1825 33.429 87.9349 33.4375 87.626H35.1577C35.1535 88.0915 35.0265 88.5189 34.7769 88.9082C34.5272 89.2933 34.1844 89.5938 33.7485 89.8096C33.3169 90.0212 32.8387 90.127 32.314 90.127C31.3322 90.127 30.5578 89.8159 29.9907 89.1938C29.4237 88.5675 29.1401 87.7043 29.1401 86.604V86.4834C29.1401 85.4255 29.4215 84.5812 29.9844 83.9507C30.5472 83.3201 31.3195 83.0049 32.3013 83.0049C33.1603 83.0049 33.848 83.2503 34.3643 83.7412C34.8848 84.2279 35.1493 84.8774 35.1577 85.6899H33.4375C33.429 85.3345 33.319 85.0467 33.1074 84.8267C32.8958 84.6024 32.6165 84.4902 32.2695 84.4902C31.8421 84.4902 31.5184 84.6468 31.2983 84.96C31.0825 85.2689 30.9746 85.7725 30.9746 86.4707V86.6611C30.9746 87.3678 31.0825 87.8757 31.2983 88.1846C31.5142 88.4935 31.8421 88.6479 32.2822 88.6479ZM35.9194 86.5024C35.9194 85.8211 36.0506 85.2139 36.313 84.6807C36.5754 84.1475 36.952 83.7349 37.4429 83.4429C37.938 83.1509 38.5114 83.0049 39.1631 83.0049C40.0898 83.0049 40.8452 83.2884 41.4292 83.8555C42.0174 84.4225 42.3454 85.1927 42.4131 86.166L42.4258 86.6357C42.4258 87.6895 42.1317 88.5358 41.5435 89.1748C40.9552 89.8096 40.166 90.127 39.1758 90.127C38.1855 90.127 37.3942 89.8096 36.8018 89.1748C36.2135 88.54 35.9194 87.6768 35.9194 86.585V86.5024ZM37.7539 86.6357C37.7539 87.2874 37.8766 87.7868 38.1221 88.1338C38.3675 88.4766 38.7188 88.6479 39.1758 88.6479C39.6201 88.6479 39.9671 88.4787 40.2168 88.1401C40.4665 87.7974 40.5913 87.2515 40.5913 86.5024C40.5913 85.8634 40.4665 85.3683 40.2168 85.0171C39.9671 84.6659 39.6159 84.4902 39.1631 84.4902C38.7145 84.4902 38.3675 84.6659 38.1221 85.0171C37.8766 85.3641 37.7539 85.9036 37.7539 86.6357ZM47.6689 89.3018C47.2161 89.8519 46.5898 90.127 45.79 90.127C45.0537 90.127 44.4909 89.9154 44.1016 89.4922C43.7165 89.069 43.5197 88.4491 43.5112 87.6323V83.1318H45.3457V87.5688C45.3457 88.284 45.6715 88.6416 46.3232 88.6416C46.9453 88.6416 47.3727 88.4258 47.6055 87.9941V83.1318H49.4463V90H47.7197L47.6689 89.3018ZM52.5186 83.1318L52.5757 83.9253C53.0666 83.3117 53.7246 83.0049 54.5498 83.0049C55.2777 83.0049 55.8193 83.2186 56.1748 83.646C56.5303 84.0734 56.7122 84.7124 56.7207 85.563V90H54.8862V85.6074C54.8862 85.2181 54.8016 84.9367 54.6323 84.7632C54.4631 84.5854 54.1816 84.4966 53.7881 84.4966C53.2718 84.4966 52.8846 84.7166 52.6265 85.1567V90H50.792V83.1318H52.5186ZM60.3135 81.4434V83.1318H61.4878V84.4775H60.3135V87.9053C60.3135 88.1592 60.3621 88.3411 60.4595 88.4512C60.5568 88.5612 60.743 88.6162 61.0181 88.6162C61.2212 88.6162 61.401 88.6014 61.5576 88.5718V89.9619C61.1979 90.0719 60.8276 90.127 60.4468 90.127C59.1603 90.127 58.5044 89.4774 58.479 88.1782V84.4775H57.4761V83.1318H58.479V81.4434H60.3135Z" fill="white"/>
<path d="M37.5 14C26.1782 14 17 23.1781 17 34.5C17 45.8219 26.1782 55 37.5 55C48.8218 55 58 45.8218 58 34.5C58 23.1782 48.8219 14 37.5 14ZM48.2549 23.7451C53.6649 29.1551 54.0412 37.424 49.9641 43.2232L28.7768 22.036C34.5799 17.9562 42.8479 18.3381 48.2549 23.7451ZM26.7451 45.2549C21.3351 39.8449 20.9588 31.576 25.0359 25.7768L46.2232 46.964C40.4202 51.0438 32.1521 50.6619 26.7451 45.2549V45.2549Z" fill="white"/>
<defs>
<linearGradient id="paint0_linear" x1="37" y1="0" x2="37" y2="99" gradientUnits="userSpaceOnUse">
<stop offset="0.59375" stop-color="#1F001A"/>
<stop offset="1" stop-opacity="0"/>
</linearGradient>
</defs>
</svg>
